<svg width="218" height="65" viewBox="0 0 218 65" fill="none" xmlns="http://www.w3.org/2000/svg">
<g clip-path="url(#clip0_120_160077)">
<path d="M209.779 64.95H8.10076C3.91025 64.95 0.499329 61.5452 0.499329 57.3771V8.51155C0.499329 4.34195 3.91025 0.949951 8.10076 0.949951H209.779C213.968 0.949951 217.499 4.34195 217.499 8.51155V57.3771C217.499 61.5452 213.968 64.95 209.779 64.95Z" fill="white"/>
<path d="M215.943 57.3788C215.943 60.7644 213.188 63.5068 209.781 63.5068H8.10075C4.69466 63.5068 1.92992 60.7644 1.92992 57.3788V8.51002C1.92992 5.12602 4.69466 2.37402 8.10075 2.37402H209.779C213.188 2.37402 215.942 5.12602 215.942 8.51002L215.943 57.3788Z" fill="white"/>
<path d="M48.9273 32.6045C48.8807 27.4477 53.1692 24.9389 53.3653 24.8221C50.9366 21.2973 47.172 20.8157 45.8491 20.7773C42.6873 20.4461 39.6204 22.6605 38.0098 22.6605C36.367 22.6605 33.8868 20.8093 31.2137 20.8637C27.7738 20.9165 24.5558 22.8989 22.7909 25.9773C19.1485 32.2541 21.865 41.4781 25.3547 46.5517C27.1003 49.0365 29.1401 51.8109 31.81 51.7133C34.4221 51.6061 35.3977 50.0557 38.5499 50.0557C41.6731 50.0557 42.5893 51.7133 45.3122 51.6509C48.1156 51.6061 49.8805 49.1549 51.5651 46.6477C53.5823 43.7997 54.3925 40.9949 54.4246 40.8509C54.3587 40.8285 48.9803 38.7853 48.9273 32.6045Z" fill="black"/>
<path d="M43.7836 17.4396C45.1885 15.6908 46.1497 13.3116 45.8829 10.8972C43.8495 10.9868 41.3066 12.2972 39.8422 14.0076C38.5467 15.5148 37.3893 17.9852 37.6883 20.3084C39.9724 20.478 42.3176 19.1612 43.7836 17.4396Z" fill="black"/>
<path d="M86.7287 51.3563H83.0783L81.0787 45.1019H74.1282L72.2234 51.3563H68.6695L75.5556 30.0635H79.8088L86.7287 51.3563ZM80.4759 42.4779L78.6675 36.9179C78.4763 36.3499 78.1178 35.0123 77.589 32.9067H77.5247C77.3141 33.8123 76.9749 35.1499 76.5088 36.9179L74.7326 42.4779H80.4759Z" fill="black"/>
<path d="M104.438 43.4907C104.438 46.1019 103.729 48.1659 102.311 49.6811C101.041 51.0299 99.4642 51.7035 97.5819 51.7035C95.5502 51.7035 94.0906 50.9771 93.2017 49.5243H93.1374V57.6123H89.7104V41.0571C89.7104 39.4155 89.6671 37.7307 89.5835 36.0027H92.5974L92.7886 38.4363H92.8529C93.9958 36.6027 95.7302 35.6875 98.0577 35.6875C99.8773 35.6875 101.396 36.4027 102.612 37.8347C103.83 39.2683 104.438 41.1531 104.438 43.4907ZM100.946 43.6155C100.946 42.1211 100.609 40.8891 99.9303 39.9195C99.1893 38.9083 98.1943 38.4027 96.947 38.4027C96.1015 38.4027 95.3332 38.6843 94.6468 39.2395C93.9588 39.7995 93.5087 40.5307 93.2982 41.4363C93.1921 41.8587 93.139 42.2043 93.139 42.4763V45.0363C93.139 46.1531 93.483 47.0955 94.171 47.8651C94.859 48.6347 95.7527 49.0187 96.8522 49.0187C98.1429 49.0187 99.1475 48.5227 99.866 47.5339C100.586 46.5435 100.946 45.2379 100.946 43.6155Z" fill="black"/>
<path d="M122.178 43.4907C122.178 46.1019 121.47 48.1659 120.05 49.6811C118.782 51.0299 117.205 51.7035 115.323 51.7035C113.291 51.7035 111.832 50.9771 110.944 49.5243H110.88V57.6123H107.453V41.0571C107.453 39.4155 107.41 37.7307 107.326 36.0027H110.34L110.531 38.4363H110.595C111.737 36.6027 113.471 35.6875 115.8 35.6875C117.618 35.6875 119.137 36.4027 120.356 37.8347C121.569 39.2683 122.178 41.1531 122.178 43.4907ZM118.687 43.6155C118.687 42.1211 118.348 40.8891 117.67 39.9195C116.929 38.9083 115.937 38.4027 114.688 38.4027C113.841 38.4027 113.074 38.6843 112.386 39.2395C111.698 39.7995 111.25 40.5307 111.039 41.4363C110.935 41.8587 110.88 42.2043 110.88 42.4763V45.0363C110.88 46.1531 111.224 47.0955 111.909 47.8651C112.597 48.6331 113.49 49.0187 114.593 49.0187C115.884 49.0187 116.888 48.5227 117.607 47.5339C118.327 46.5435 118.687 45.2379 118.687 43.6155Z" fill="black"/>
<path d="M142.014 45.3851C142.014 47.1963 141.382 48.6699 140.114 49.8075C138.72 51.0507 136.78 51.6715 134.287 51.6715C131.985 51.6715 130.14 51.2299 128.743 50.3451L129.537 47.5019C131.042 48.4075 132.693 48.8619 134.491 48.8619C135.782 48.8619 136.787 48.5707 137.508 47.9915C138.227 47.4123 138.585 46.6347 138.585 45.6651C138.585 44.8011 138.289 44.0731 137.696 43.4827C137.106 42.8923 136.121 42.3435 134.745 41.8363C131 40.4459 129.129 38.4091 129.129 35.7307C129.129 33.9803 129.785 32.5451 131.098 31.4283C132.406 30.3099 134.152 29.7515 136.335 29.7515C138.281 29.7515 139.899 30.0891 141.189 30.7627L140.332 33.5435C139.127 32.8907 137.764 32.5643 136.238 32.5643C135.033 32.5643 134.091 32.8603 133.416 33.4491C132.845 33.9755 132.559 34.6171 132.559 35.3771C132.559 36.2187 132.885 36.9147 133.541 37.4619C134.112 37.9675 135.149 38.5147 136.653 39.1051C138.494 39.8427 139.845 40.7051 140.715 41.6939C141.581 42.6795 142.014 43.9131 142.014 45.3851Z" fill="black"/>
<path d="M153.344 38.5627H149.567V46.0171C149.567 47.9131 150.233 48.8603 151.567 48.8603C152.179 48.8603 152.687 48.8075 153.089 48.7019L153.184 51.2923C152.509 51.5435 151.62 51.6699 150.519 51.6699C149.165 51.6699 148.108 51.2587 147.344 50.4379C146.584 49.6155 146.201 48.2363 146.201 46.2987V38.5595H143.951V35.9995H146.201V33.1883L149.567 32.1771V35.9995H153.344V38.5627Z" fill="black"/>
<path d="M170.388 43.5532C170.388 45.9132 169.71 47.8508 168.356 49.366C166.937 50.926 165.053 51.7036 162.704 51.7036C160.441 51.7036 158.639 50.9564 157.295 49.462C155.952 47.9676 155.28 46.0812 155.28 43.8076C155.28 41.4284 155.971 39.4796 157.358 37.9644C158.742 36.4476 160.61 35.6892 162.958 35.6892C165.222 35.6892 167.043 36.4364 168.417 37.9324C169.732 39.3836 170.388 41.2572 170.388 43.5532ZM166.832 43.6636C166.832 42.2476 166.528 41.0332 165.913 40.0204C165.194 38.7948 164.167 38.1836 162.836 38.1836C161.459 38.1836 160.412 38.7964 159.694 40.0204C159.078 41.0348 158.774 42.2684 158.774 43.7276C158.774 45.1436 159.078 46.358 159.694 47.3692C160.435 48.5948 161.47 49.206 162.806 49.206C164.114 49.206 165.141 48.582 165.882 47.3372C166.514 46.3052 166.832 45.078 166.832 43.6636Z" fill="black"/>
<path d="M181.527 39.0027C181.188 38.9403 180.826 38.9083 180.447 38.9083C179.241 38.9083 178.309 39.3611 177.653 40.2683C177.083 41.0683 176.797 42.0795 176.797 43.3003V51.3563H173.371L173.403 40.8379C173.403 39.0683 173.36 37.4571 173.275 36.0043H176.26L176.385 38.9419H176.48C176.842 37.9323 177.412 37.1195 178.193 36.5099C178.957 35.9611 179.782 35.6875 180.67 35.6875C180.987 35.6875 181.273 35.7099 181.527 35.7499V39.0027Z" fill="black"/>
<path d="M196.854 42.9531C196.854 43.5643 196.814 44.0795 196.728 44.5003H186.447C186.488 46.0171 186.984 47.1771 187.939 47.9771C188.805 48.6923 189.926 49.0507 191.302 49.0507C192.824 49.0507 194.213 48.8091 195.462 48.3243L195.999 50.6923C194.539 51.3259 192.816 51.6411 190.828 51.6411C188.436 51.6411 186.558 50.9403 185.192 49.5403C183.829 48.1403 183.146 46.2603 183.146 43.9019C183.146 41.5867 183.781 39.6587 185.052 38.1211C186.383 36.4795 188.182 35.6587 190.445 35.6587C192.668 35.6587 194.351 36.4795 195.494 38.1211C196.399 39.4251 196.854 41.0379 196.854 42.9531ZM193.586 42.0683C193.608 41.0571 193.385 40.1835 192.92 39.4459C192.327 38.4971 191.416 38.0235 190.189 38.0235C189.069 38.0235 188.158 38.4859 187.462 39.4139C186.891 40.1515 186.552 41.0363 186.447 42.0667L193.586 42.0683Z" fill="black"/>
<path d="M79.3427 16.9645C79.3427 18.8477 78.7753 20.2653 77.642 21.2173C76.5924 22.0957 75.1007 22.5357 73.1686 22.5357C72.2106 22.5357 71.3908 22.4941 70.7045 22.4109V12.1213C71.5998 11.9773 72.5642 11.9037 73.6058 11.9037C75.4463 11.9037 76.8335 12.3021 77.769 13.0989C78.817 13.9997 79.3427 15.2877 79.3427 16.9645ZM77.5665 17.0109C77.5665 15.7901 77.2418 14.8541 76.5924 14.2013C75.943 13.5501 74.9946 13.2237 73.7457 13.2237C73.2152 13.2237 72.7635 13.2589 72.389 13.3325V21.1549C72.5964 21.1869 72.9757 21.2013 73.5271 21.2013C74.8162 21.2013 75.8112 20.8445 76.512 20.1309C77.2129 19.4173 77.5665 18.3773 77.5665 17.0109Z" fill="black"/>
<path d="M88.7605 18.6092C88.7605 19.7692 88.4277 20.7196 87.7623 21.4652C87.0647 22.2316 86.1404 22.614 84.9863 22.614C83.874 22.614 82.9883 22.2476 82.3276 21.5116C81.6686 20.7772 81.3391 19.8508 81.3391 18.734C81.3391 17.566 81.6782 16.6076 82.3598 15.8636C83.0413 15.1196 83.9575 14.7468 85.1117 14.7468C86.224 14.7468 87.1177 15.1132 87.7944 15.8476C88.4374 16.5612 88.7605 17.4828 88.7605 18.6092ZM87.0132 18.6636C87.0132 17.9676 86.8621 17.3708 86.5615 16.8732C86.2079 16.2716 85.7048 15.9708 85.0506 15.9708C84.3739 15.9708 83.8595 16.2716 83.5059 16.8732C83.2037 17.3708 83.0542 17.9772 83.0542 18.694C83.0542 19.39 83.2053 19.9868 83.5059 20.4844C83.8707 21.086 84.3787 21.3868 85.0345 21.3868C85.6775 21.3868 86.1822 21.0812 86.5455 20.4684C86.8573 19.9612 87.0132 19.3596 87.0132 18.6636Z" fill="black"/>
<path d="M101.388 14.9004L99.0173 22.4428H97.4742L96.4921 19.1676C96.243 18.35 96.0404 17.5372 95.8829 16.7308H95.8524C95.7061 17.5596 95.5036 18.3708 95.2432 19.1676L94.1999 22.4428H92.6392L90.4097 14.9004H92.1409L92.9976 18.486C93.205 19.334 93.3754 20.142 93.512 20.9068H93.5425C93.6679 20.2764 93.8752 19.4732 94.1678 18.502L95.2432 14.902H96.6159L97.6462 18.4252C97.8954 19.2844 98.0979 20.1116 98.2538 20.9084H98.3004C98.4146 20.1324 98.5866 19.3052 98.8148 18.4252L99.7343 14.902H101.388V14.9004Z" fill="black"/>
<path d="M110.121 22.4427H108.437V18.1227C108.437 16.7915 107.929 16.1259 106.91 16.1259C106.41 16.1259 106.006 16.3083 105.693 16.6747C105.383 17.0411 105.225 17.4731 105.225 17.9675V22.4411H103.541V17.0555C103.541 16.3931 103.52 15.6747 103.48 14.8971H104.96L105.039 16.0763H105.085C105.281 15.7099 105.574 15.4075 105.958 15.1659C106.415 14.8843 106.926 14.7419 107.485 14.7419C108.192 14.7419 108.781 14.9691 109.248 15.4251C109.83 15.9835 110.121 16.8171 110.121 17.9243V22.4427Z" fill="black"/>
<path d="M114.767 22.4428H113.084V11.4396H114.767V22.4428Z" fill="black"/>
<path d="M124.684 18.6092C124.684 19.7692 124.352 20.7196 123.686 21.4652C122.989 22.2316 122.063 22.614 120.91 22.614C119.796 22.614 118.911 22.2476 118.252 21.5116C117.593 20.7772 117.263 19.8508 117.263 18.734C117.263 17.566 117.602 16.6076 118.284 15.8636C118.965 15.1196 119.881 14.7468 121.034 14.7468C122.148 14.7468 123.04 15.1132 123.718 15.8476C124.361 16.5612 124.684 17.4828 124.684 18.6092ZM122.936 18.6636C122.936 17.9676 122.784 17.3708 122.484 16.8732C122.132 16.2716 121.627 15.9708 120.975 15.9708C120.296 15.9708 119.782 16.2716 119.43 16.8732C119.128 17.3708 118.978 17.9772 118.978 18.694C118.978 19.39 119.129 19.9868 119.43 20.4844C119.795 21.086 120.303 21.3868 120.958 21.3868C121.601 21.3868 122.105 21.0812 122.468 20.4684C122.781 19.9612 122.936 19.3596 122.936 18.6636Z" fill="black"/>
<path d="M132.837 22.4428H131.325L131.199 21.574H131.153C130.635 22.2668 129.897 22.614 128.939 22.614C128.224 22.614 127.645 22.3852 127.21 21.9308C126.814 21.518 126.617 21.0044 126.617 20.3948C126.617 19.4732 127.002 18.7708 127.779 18.2844C128.553 17.798 129.643 17.5596 131.047 17.5708V17.43C131.047 16.4364 130.523 15.9404 129.473 15.9404C128.725 15.9404 128.066 16.1276 127.497 16.4988L127.155 15.398C127.859 14.9644 128.729 14.7468 129.754 14.7468C131.735 14.7468 132.728 15.7868 132.728 17.8668V20.6444C132.728 21.398 132.765 21.998 132.837 22.4428ZM131.088 19.8508V18.6876C129.23 18.6556 128.301 19.1628 128.301 20.2076C128.301 20.6012 128.407 20.8956 128.624 21.0924C128.841 21.2892 129.118 21.3868 129.447 21.3868C129.817 21.3868 130.162 21.27 130.478 21.038C130.794 20.8044 130.989 20.5084 131.061 20.1452C131.079 20.0636 131.088 19.9644 131.088 19.8508Z" fill="black"/>
<path d="M142.409 22.4428H140.914L140.836 21.2316H140.789C140.312 22.1532 139.498 22.614 138.355 22.614C137.442 22.614 136.682 22.2572 136.079 21.5436C135.477 20.83 135.176 19.9036 135.176 18.766C135.176 17.5452 135.502 16.5564 136.158 15.8012C136.793 15.0972 137.571 14.7452 138.497 14.7452C139.514 14.7452 140.226 15.086 140.632 15.7692H140.664V11.4396H142.35V20.4108C142.35 21.1452 142.369 21.822 142.409 22.4428ZM140.664 19.262V18.0044C140.664 17.7868 140.648 17.6108 140.617 17.4764C140.522 17.0732 140.318 16.734 140.008 16.4604C139.694 16.1868 139.317 16.0492 138.881 16.0492C138.253 16.0492 137.761 16.2972 137.399 16.7948C137.041 17.2924 136.859 17.9276 136.859 18.7036C136.859 19.4492 137.031 20.054 137.376 20.5196C137.741 21.0156 138.233 21.2636 138.849 21.2636C139.402 21.2636 139.844 21.0572 140.18 20.6428C140.505 20.2604 140.664 19.7996 140.664 19.262Z" fill="black"/>
<path d="M156.816 18.6092C156.816 19.7692 156.484 20.7196 155.818 21.4652C155.121 22.2316 154.198 22.614 153.042 22.614C151.932 22.614 151.046 22.2476 150.384 21.5116C149.725 20.7772 149.395 19.8508 149.395 18.734C149.395 17.566 149.734 16.6076 150.416 15.8636C151.097 15.1196 152.014 14.7468 153.169 14.7468C154.28 14.7468 155.175 15.1132 155.85 15.8476C156.493 16.5612 156.816 17.4828 156.816 18.6092ZM155.071 18.6636C155.071 17.9676 154.92 17.3708 154.619 16.8732C154.264 16.2716 153.762 15.9708 153.107 15.9708C152.431 15.9708 151.917 16.2716 151.562 16.8732C151.26 17.3708 151.11 17.9772 151.11 18.694C151.11 19.39 151.261 19.9868 151.562 20.4844C151.927 21.086 152.435 21.3868 153.091 21.3868C153.733 21.3868 154.24 21.0812 154.603 20.4684C154.913 19.9612 155.071 19.3596 155.071 18.6636Z" fill="black"/>
<path d="M165.874 22.4427H164.191V18.1227C164.191 16.7915 163.683 16.1259 162.663 16.1259C162.163 16.1259 161.759 16.3083 161.447 16.6747C161.136 17.0411 160.98 17.4731 160.98 17.9675V22.4411H159.294V17.0555C159.294 16.3931 159.274 15.6747 159.234 14.8971H160.713L160.792 16.0763H160.838C161.036 15.7099 161.328 15.4075 161.711 15.1659C162.169 14.8843 162.679 14.7419 163.24 14.7419C163.945 14.7419 164.534 14.9691 165.001 15.4251C165.585 15.9835 165.874 16.8171 165.874 17.9243V22.4427Z" fill="black"/>
<path d="M177.211 16.1564H175.356V19.8204C175.356 20.7516 175.686 21.2172 176.338 21.2172C176.641 21.2172 176.891 21.1916 177.089 21.1388L177.133 22.4108C176.8 22.5356 176.363 22.598 175.824 22.598C175.159 22.598 174.641 22.3964 174.267 21.9932C173.89 21.59 173.704 20.9116 173.704 19.9596V16.1564H172.596V14.9004H173.704V13.518L175.355 13.022V14.8988H177.21L177.211 16.1564Z" fill="black"/>
<path d="M186.129 22.4428H184.443V18.1548C184.443 16.8028 183.935 16.126 182.918 16.126C182.136 16.126 181.603 16.518 181.31 17.302C181.26 17.4668 181.231 17.6684 181.231 17.9052V22.4412H179.548V11.4396H181.231V15.9852H181.264C181.794 15.158 182.554 14.7452 183.54 14.7452C184.237 14.7452 184.814 14.9724 185.272 15.4284C185.843 15.9964 186.129 16.8412 186.129 17.958V22.4428Z" fill="black"/>
<path d="M195.328 18.3148C195.328 18.6156 195.306 18.8684 195.266 19.0748H190.214C190.236 19.8204 190.477 20.3884 190.945 20.782C191.373 21.134 191.924 21.31 192.599 21.31C193.346 21.31 194.028 21.1916 194.642 20.9532L194.906 22.118C194.187 22.4284 193.342 22.5836 192.363 22.5836C191.189 22.5836 190.265 22.2396 189.596 21.5516C188.924 20.8636 188.592 19.9404 188.592 18.782C188.592 17.6444 188.902 16.6972 189.527 15.942C190.18 15.1356 191.062 14.7324 192.176 14.7324C193.266 14.7324 194.094 15.1356 194.653 15.942C195.105 16.582 195.328 17.374 195.328 18.3148ZM193.721 17.8812C193.734 17.3836 193.623 16.9548 193.395 16.5932C193.102 16.1276 192.657 15.894 192.054 15.894C191.504 15.894 191.056 16.1212 190.713 16.5772C190.434 16.9404 190.268 17.374 190.214 17.8812H193.721Z" fill="black"/>
</g>
<defs>
<clipPath id="clip0_120_160077">
<rect width="217" height="64" fill="white" transform="translate(0.499329 0.949951)"/>
</clipPath>
</defs>
</svg>
