<svg width="217" height="65" viewBox="0 0 217 65" fill="none" xmlns="http://www.w3.org/2000/svg">
<g clip-path="url(#clip0_120_160078)">
<path d="M208.497 64.95H8.50338C4.10343 64.95 0.503531 61.3501 0.503531 56.9501V8.95102C0.503531 4.55107 4.10343 0.951172 8.50338 0.951172H208.497C212.897 0.951172 216.496 4.55107 216.496 8.95102V56.9501C216.496 61.3501 212.897 64.95 208.497 64.95Z" fill="white"/>
<path d="M171.596 48.9502H174.582V28.9473H171.596V48.9502ZM198.487 36.1533L195.065 44.8251H194.963L191.411 36.1533H188.195L193.523 48.2734L190.485 55.0156H193.598L201.808 36.1539L198.487 36.1533ZM181.555 46.6781C180.579 46.6781 179.215 46.1887 179.215 44.9794C179.215 43.4356 180.914 42.8437 182.379 42.8437C183.691 42.8437 184.31 43.1263 185.107 43.5125C184.875 45.3656 183.28 46.6781 181.555 46.6781ZM181.917 35.7158C179.755 35.7158 177.517 36.6683 176.59 38.7783L179.24 39.8846C179.806 38.7783 180.861 38.4184 181.968 38.4184C183.512 38.4184 185.082 39.344 185.107 40.9914V41.197C184.566 40.8882 183.408 40.4252 181.994 40.4252C179.136 40.4252 176.229 41.9945 176.229 44.9281C176.229 47.6044 178.571 49.3287 181.195 49.3287C183.202 49.3287 184.31 48.428 185.003 47.3725H185.107V48.9174H187.99V41.2482C187.99 37.697 185.338 35.7158 181.917 35.7158ZM163.466 38.5883H159.219V31.7323H163.466C165.698 31.7323 166.965 33.5798 166.965 35.1602C166.965 36.7102 165.697 38.5883 163.466 38.5883ZM163.389 28.9478H156.235V48.9507H159.219V41.3728H163.389C166.698 41.3728 169.95 38.9778 169.95 35.1609C169.95 31.3448 166.698 28.9478 163.389 28.9478ZM124.38 46.6815C122.318 46.6815 120.591 44.9539 120.591 42.5834C120.591 40.1853 122.318 38.4335 124.38 38.4335C126.416 38.4335 128.014 40.1855 128.014 42.5834C128.014 44.9539 126.416 46.6815 124.38 46.6815ZM127.808 37.273H127.705C127.035 36.4742 125.746 35.7524 124.123 35.7524C120.719 35.7524 117.601 38.7429 117.601 42.5834C117.601 46.3978 120.719 49.362 124.123 49.362C125.746 49.362 127.035 48.6401 127.705 47.8158H127.808V48.7945C127.808 51.3989 126.416 52.7901 124.174 52.7901C122.344 52.7901 121.21 51.4757 120.746 50.3675L118.143 51.45C118.89 53.2536 120.874 55.4712 124.174 55.4712C127.68 55.4712 130.644 53.4086 130.644 48.3819V36.1646H127.808L127.808 37.273ZM132.707 48.9496H135.696V28.9467H132.707V48.9496ZM140.104 42.351C140.027 39.7217 142.141 38.3816 143.661 38.3816C144.847 38.3816 145.852 38.9747 146.188 39.8247L140.104 42.351ZM149.383 40.0823C148.816 38.5623 147.089 35.7524 143.558 35.7524C140.052 35.7524 137.139 38.5104 137.139 42.5573C137.139 46.3722 140.027 49.3622 143.892 49.3622C147.011 49.3622 148.816 47.4554 149.564 46.3465L147.244 44.7997C146.47 45.9341 145.414 46.6816 143.892 46.6816C142.372 46.6816 141.289 45.9854 140.594 44.6193L149.692 40.8562L149.383 40.0823ZM76.8916 37.8404V40.7273H83.7994C83.5932 42.3511 83.0519 43.5366 82.2269 44.3616C81.2214 45.3666 79.649 46.4753 76.8915 46.4753C72.6383 46.4753 69.3134 43.0472 69.3134 38.7942C69.3134 34.5411 72.6383 31.1126 76.8915 31.1126C79.1857 31.1126 80.8607 32.0149 82.0981 33.1749L84.135 31.1381C82.4074 29.4887 80.1137 28.2257 76.8915 28.2257C71.0652 28.2257 66.1679 32.9686 66.1679 38.7942C66.1679 44.6191 71.0652 49.3622 76.8915 49.3622C80.0357 49.3622 82.4076 48.331 84.2631 46.3979C86.1707 44.4904 86.7637 41.8098 86.7637 39.6443C86.7637 38.9748 86.7117 38.3562 86.6087 37.8404H76.8916ZM94.6181 46.6815C92.5555 46.6815 90.7769 44.9802 90.7769 42.5573C90.7769 40.1085 92.5555 38.4336 94.6181 38.4336C96.6798 38.4336 98.4585 40.1085 98.4585 42.5573C98.4585 44.9802 96.6798 46.6815 94.6181 46.6815ZM94.6181 35.7524C90.8537 35.7524 87.7868 38.6135 87.7868 42.5573C87.7868 46.4753 90.8537 49.3622 94.6181 49.3622C98.3811 49.3622 101.449 46.4753 101.449 42.5573C101.449 38.6135 98.3811 35.7524 94.6181 35.7524ZM109.519 46.6815C107.457 46.6815 105.678 44.9802 105.678 42.5573C105.678 40.1085 107.458 38.4336 109.519 38.4336C111.581 38.4336 113.359 40.1085 113.359 42.5573C113.359 44.9802 111.581 46.6815 109.519 46.6815ZM109.519 35.7524C105.756 35.7524 102.689 38.6135 102.689 42.5573C102.689 46.4753 105.756 49.3622 109.519 49.3622C113.283 49.3622 116.35 46.4753 116.35 42.5573C116.35 38.6135 113.283 35.7524 109.519 35.7524Z" fill="black"/>
<path d="M33.6459 32.0289L16.613 50.1082C16.6137 50.1119 16.615 50.1151 16.6156 50.1189C17.1379 52.0821 18.9311 53.5276 21.0592 53.5276C21.9099 53.5276 22.7086 53.2976 23.3936 52.8939L23.4479 52.862L42.6217 41.798L33.6459 32.0289Z" fill="#EB3131"/>
<path d="M50.8792 28.951L50.8629 28.9398L42.585 24.141L33.2589 32.4398L42.6174 41.7971L50.8516 37.046C52.2953 36.2666 53.2753 34.7447 53.2753 32.9897C53.2753 31.2473 52.3086 29.7329 50.8792 28.951Z" fill="#F6B60B"/>
<path d="M16.6106 15.7941C16.5082 16.1717 16.4544 16.5672 16.4544 16.9779V48.9257C16.4544 49.3356 16.5076 49.7325 16.6113 50.1087L34.2322 32.4914L16.6106 15.7941Z" fill="#5778C5"/>
<path d="M33.7719 32.9519L42.5887 24.1377L23.4366 13.0336C22.7405 12.6166 21.928 12.376 21.0586 12.376C18.9305 12.376 17.1349 13.8241 16.6124 15.7896C16.6118 15.7916 16.6118 15.7929 16.6118 15.7946L33.7719 32.9519Z" fill="#3BAD49"/>
<path d="M76.3317 16.6005H71.6643V17.7555H75.1618C75.0668 18.6981 74.6918 19.4381 74.0593 19.9755C73.4268 20.5131 72.6193 20.783 71.6643 20.783C70.6168 20.783 69.7293 20.4181 69.002 19.6932C68.2894 18.9532 67.927 18.0381 67.927 16.9357C67.927 15.8333 68.2894 14.9182 69.002 14.1783C69.7293 13.4533 70.6168 13.0908 71.6643 13.0908C72.2019 13.0908 72.7144 13.1833 73.1843 13.3858C73.6543 13.5882 74.0318 13.8708 74.3268 14.2333L75.2143 13.3458C74.8117 12.8882 74.3018 12.5383 73.6692 12.2833C73.0367 12.0282 72.3768 11.9058 71.6642 11.9058C70.2668 11.9058 69.0819 12.3908 68.1143 13.3583C67.1468 14.3282 66.6618 15.5233 66.6618 16.9357C66.6618 18.3481 67.1468 19.5457 68.1143 20.5133C69.0818 21.4806 70.2668 21.9658 71.6642 21.9658C73.1317 21.9658 74.3017 21.4957 75.2017 20.5406C75.9942 19.7458 76.3991 18.6708 76.3991 17.3258C76.3991 17.0983 76.3717 16.8555 76.3317 16.6005ZM78.1399 12.1206V21.7506H83.7622V20.568H79.3774V17.5132H83.3323V16.3582H79.3774V13.3057H83.7622V12.1206L78.1399 12.1206ZM91.646 13.3057V12.1206H85.0285V13.3057H87.7186V21.7506H88.9561V13.3057H91.646ZM97.637 12.1206H96.3996V21.7506H97.637V12.1206ZM105.805 13.3057V12.1206H99.1877V13.3057H101.877V21.7506H103.115V13.3057H105.805ZM118.292 13.3733C117.337 12.3907 116.167 11.9058 114.77 11.9058C113.37 11.9058 112.2 12.3907 111.245 13.3583C110.29 14.3133 109.82 15.5107 109.82 16.9356C109.82 18.3605 110.29 19.5581 111.245 20.5132C112.2 21.4805 113.37 21.9657 114.77 21.9657C116.155 21.9657 117.337 21.4806 118.292 20.5132C119.247 19.5582 119.717 18.3606 119.717 16.9356C119.717 15.5232 119.247 14.3281 118.292 13.3733ZM112.132 14.1782C112.845 13.4532 113.72 13.0907 114.77 13.0907C115.817 13.0907 116.692 13.4533 117.392 14.1782C118.105 14.8907 118.455 15.8205 118.455 16.9356C118.455 18.0531 118.105 18.9805 117.392 19.6931C116.692 20.418 115.817 20.783 114.77 20.783C113.72 20.783 112.845 20.418 112.132 19.6931C111.435 18.9656 111.085 18.0531 111.085 16.9356C111.085 15.8205 111.435 14.9056 112.132 14.1782ZM122.657 15.7532L122.605 13.8956H122.657L127.552 21.7505H128.845V12.1205H127.607V17.7554L127.66 19.613H127.607L122.927 12.1205H121.42V21.7505H122.657V15.7532Z" fill="black" stroke="black" stroke-width="0.319994" stroke-miterlimit="10"/>
</g>
<defs>
<clipPath id="clip0_120_160078">
<rect width="216.001" height="64" fill="white" transform="translate(0.499329 0.949951)"/>
</clipPath>
</defs>
</svg>
