<svg width="64" height="64" viewBox="0 0 64 64" fill="none" xmlns="http://www.w3.org/2000/svg">
<path d="M44.0071 30.4767C44.0071 32.5282 42.3375 34.196 40.284 34.196C38.2301 34.196 36.5703 32.5282 36.5703 30.4767C36.5703 28.4251 38.2394 26.7578 40.2836 26.7578C40.7724 26.7571 41.2565 26.8527 41.7083 27.0393C42.1601 27.2259 42.5706 27.4997 42.9165 27.8451C43.2623 28.1905 43.5367 28.6008 43.7238 29.0523C43.9109 29.5038 44.0072 29.9879 44.0071 30.4767Z" fill="black"/>
<path d="M56.2919 14.6725C55.7767 15.4969 48.8273 26.4204 48.152 27.4601C48.002 27.7033 47.8424 27.9377 47.7017 28.1717C47.608 28.3216 47.5049 28.4715 47.4112 28.6219C46.6889 25.8207 44.3445 23.6661 41.4375 23.207C41.5688 23.0009 45.6483 16.5556 46.6797 14.9162C46.792 14.7287 46.9048 14.5885 47.1577 14.5885C50.159 14.5978 53.15 14.5978 56.1513 14.5978C56.1791 14.6164 56.2074 14.6442 56.2919 14.6725Z" fill="#3467FE"/>
<path d="M58.0273 46.3269C56.5266 48.107 54.8385 49.3625 52.6913 49.8685C49.7374 50.5615 46.9334 50.243 44.4107 48.4254C42.5819 47.1044 41.4656 45.2496 40.6501 43.1888C40.6223 43.1233 40.5935 43.0579 40.5656 42.9734C40.5563 42.9548 40.5563 42.9363 40.5471 42.9172C40.2218 42.0453 39.9123 41.1676 39.6187 40.2845C39.3277 39.404 39.0464 38.4673 38.8589 37.6713C39.3277 37.7646 39.8058 37.8115 40.3029 37.8115C42.4882 37.8115 44.4479 36.8562 45.7893 35.3477L45.8078 35.3292C46.3045 36.5564 46.8206 38.4766 47.3085 39.9661V39.9754C47.4398 40.3876 47.5707 40.7626 47.7021 41.081C48.2461 42.4299 48.8184 43.7601 49.9059 44.7627L50.131 44.9595C51.5472 46.1301 53.2446 46.4393 55.0172 46.4959C55.9734 46.5423 56.93 46.4114 58.0273 46.3269Z" fill="#0217FF"/>
<path d="M34.0662 34.3927C32.3219 36.8281 30.4369 39.1419 28.2145 41.1935C26.3389 42.9267 24.3416 44.4723 21.9405 45.409C21.0215 45.765 20.0746 45.9618 19.0804 45.9521C16.2861 45.9618 14.2786 44.2101 13.6785 41.2873C13.1535 38.6926 13.4162 36.1258 14.1473 33.624C15.498 28.9871 17.8708 24.8839 21.0215 21.2403C22.4469 19.5911 24.0882 18.1768 26.2265 17.4926C27.736 17.0146 29.2556 16.8744 30.7372 17.6333C31.8721 18.2139 32.6691 19.1604 33.2975 20.2372C34.198 21.7736 34.7601 23.432 35.2386 25.1276C36.6008 23.8365 38.4073 23.1187 40.284 23.1229C40.6777 23.1229 41.0527 23.1507 41.4282 23.2074C41.4561 23.1698 41.6157 22.9168 41.8692 22.5139C41.5312 21.7457 41.25 21.043 40.9311 20.3593C39.9276 18.233 38.5676 16.3968 36.5982 15.0665C34.2727 13.5023 31.6748 12.9963 28.8899 13.2303C25.3354 13.5301 22.025 14.5606 19.0052 16.4251C14.1946 19.3943 10.415 23.3666 7.77067 28.3595C6.07325 31.5539 5.09712 34.9548 5.36958 38.6174C5.71677 43.3389 8.09883 46.7207 12.338 48.7816C15.6391 50.3927 19.1463 50.5333 22.7008 50.0933C25.6547 49.728 28.4401 48.763 31.0092 47.2735C34.1233 45.4749 36.8237 43.1235 39.3464 40.566C39.4309 40.4722 39.4871 40.3413 39.6092 40.2847C39.3186 39.4042 39.0373 38.4675 38.8493 37.6715C37.871 37.479 36.9423 37.0889 36.12 36.5251C35.2976 35.9614 34.5989 35.2357 34.0666 34.3927" fill="#0219FA"/>
</svg>
