<svg width="64" height="64" viewBox="0 0 64 64" fill="none" xmlns="http://www.w3.org/2000/svg">
<path fill-rule="evenodd" clip-rule="evenodd" d="M24.5671 11.9133L11.2028 36.3686C10.3675 37.9968 11.0125 39.9951 12.6407 40.8304C12.8945 40.9573 13.1694 41.063 13.4443 41.1159C18.0964 42.2155 26.9777 39.4876 34.2202 42.2155C41.4627 44.9433 44.8144 50.5258 49.2021 53.4863C50.1854 54.1947 51.359 54.5753 52.5644 54.5859H52.5855C52.8393 54.5859 53.0719 54.5753 53.3045 54.5436C54.4252 54.4061 55.4825 53.9409 56.3389 53.2114C56.8253 52.7885 57.2376 52.281 57.5654 51.7206C58.6438 49.9549 58.6861 47.7557 57.6711 45.9583L39.0626 11.9344C36.874 7.93782 31.8519 6.46817 27.8553 8.65678C26.4596 9.39689 25.3177 10.5282 24.5671 11.9133Z" fill="url(#paint0_linear_120_159982)"/>
<path fill-rule="evenodd" clip-rule="evenodd" d="M15.4849 45.8738C13.9518 43.3574 10.6742 42.5538 8.14725 44.0869C5.63087 45.62 4.82733 48.8976 6.36041 51.4246C7.88292 53.9304 11.15 54.734 13.6663 53.222C16.1933 51.7101 17.018 48.4219 15.4955 45.8949C15.4955 45.8949 15.4849 45.8843 15.4849 45.8738Z" fill="url(#paint1_linear_120_159982)"/>
<path fill-rule="evenodd" clip-rule="evenodd" d="M16.257 48.7077C16.2147 51.6575 13.7935 54.0153 10.8437 53.973C7.88321 53.9307 5.52544 51.5095 5.56773 48.5597C5.58888 47.1746 6.13867 45.8636 7.11139 44.8803C5.72632 47.3544 6.55102 49.3632 7.54488 50.1139C9.07796 51.2875 12.8737 51.0443 16.257 48.7077Z" fill="url(#paint2_linear_120_159982)"/>
<path fill-rule="evenodd" clip-rule="evenodd" d="M14.9986 36.7071C13.8567 37.0137 12.6725 36.3264 12.3659 35.1845C12.3131 35.0048 12.2919 34.8145 12.2919 34.6347C12.2919 34.3598 12.3448 34.0955 12.4399 33.8418L11.0549 36.3687C10.2196 37.997 10.8646 39.9953 12.5034 40.8305C12.7571 40.9574 13.0215 41.0526 13.3069 41.116C17.959 42.2156 26.8404 39.4878 34.0829 42.2156C44.1801 46.0113 46.8339 55.2309 53.1883 54.5543C56.3813 54.1419 58.6333 51.2238 58.221 48.0413C58.1258 47.3118 57.8932 46.6034 57.5443 45.9584L49.0436 30.469C45.4277 23.8503 35.9331 25.2776 30.1074 27.8575C24.2817 30.4373 17.737 35.8824 14.9986 36.7071Z" fill="url(#paint3_linear_120_159982)"/>
<path fill-rule="evenodd" clip-rule="evenodd" d="M11.8372 34.9417L11.0548 36.369C10.2195 37.9973 10.8645 39.9956 12.4927 40.8309C12.7465 40.9577 13.0214 41.0635 13.2963 41.1163C17.9484 42.2159 26.8297 39.4881 34.0722 42.2159C40.7966 44.7429 44.1694 49.7439 48.1237 52.8206C48.6946 53.3493 49.4453 53.6348 50.2277 53.6348C51.9088 53.6348 53.2727 52.2708 53.2727 50.5897C53.2727 49.469 52.4586 48.2848 51.9194 47.3121C40.564 26.8005 28.5108 34.1593 14.8293 38.7162C14.6073 38.7903 14.3641 38.822 14.1315 38.8114C12.683 38.8008 11.52 37.6272 11.52 36.1893C11.5306 35.7558 11.6363 35.3223 11.8372 34.9417Z" fill="url(#paint4_linear_120_159982)"/>
<defs>
<linearGradient id="paint0_linear_120_159982" x1="20.6057" y1="23.2051" x2="44.2661" y2="33.1178" gradientUnits="userSpaceOnUse">
<stop stop-color="#5F6DED"/>
<stop offset="1" stop-color="#49B9D9"/>
</linearGradient>
<linearGradient id="paint1_linear_120_159982" x1="7.76748" y1="49.2538" x2="15.2543" y2="47.8147" gradientUnits="userSpaceOnUse">
<stop stop-color="#5F6EED"/>
<stop offset="1" stop-color="#45C8D4"/>
</linearGradient>
<linearGradient id="paint2_linear_120_159982" x1="7.6713" y1="49.8216" x2="14.4816" y2="48.1957" gradientUnits="userSpaceOnUse">
<stop stop-color="#578BE5"/>
<stop offset="1" stop-color="#43CED3"/>
</linearGradient>
<linearGradient id="paint3_linear_120_159982" x1="16.4776" y1="31.7154" x2="56.1284" y2="42.7458" gradientUnits="userSpaceOnUse">
<stop stop-color="#5788E6"/>
<stop offset="1" stop-color="#3FDDCF"/>
</linearGradient>
<linearGradient id="paint4_linear_120_159982" x1="48.6611" y1="45.2808" x2="15.4057" y2="35.5288" gradientUnits="userSpaceOnUse">
<stop stop-color="#4452CF"/>
<stop offset="1" stop-color="#0BD3B9"/>
</linearGradient>
</defs>
</svg>
