<svg width="64" height="64" viewBox="0 0 64 64" fill="none" xmlns="http://www.w3.org/2000/svg">
<path d="M11.7457 52.7029C11.7165 52.1172 11.7067 51.5315 11.736 50.9458C11.9312 50.8872 12.1265 50.8482 12.3315 50.8189C12.9172 50.7213 13.5029 50.5748 14.0691 50.4089C14.2253 50.3601 14.3815 50.3015 14.5377 50.2429C15.2894 49.9501 15.9532 49.4619 16.4608 48.8372C16.8122 48.3979 17.1148 47.9196 17.3784 47.4217C17.7494 46.7383 18.0715 46.0257 18.3644 45.3033C18.9501 43.839 19.5358 42.3845 20.1118 40.9202C22.1032 35.883 24.0947 30.8458 26.0861 25.8086C27.9702 21.0154 29.825 16.2223 31.6407 11.3998C31.6798 11.3022 31.7188 11.2046 31.7579 11.107C32.4315 10.9215 33.0855 10.7262 33.7689 10.5408C33.8079 10.6384 33.847 10.7262 33.8762 10.8141C34.6474 12.9618 35.4186 15.1094 36.1801 17.2668C38.8061 24.5981 41.432 31.9196 44.1264 39.2216C44.8683 41.213 45.6102 43.2143 46.3619 45.2057C46.6547 46.016 47.0062 46.8164 47.4064 47.5779C47.5821 47.9098 47.7676 48.2222 47.9726 48.5346C48.5974 49.5108 49.5638 50.2039 50.6864 50.4967C51.2917 50.6529 51.8969 50.7798 52.5217 50.8579L52.961 50.9263C53.0196 51.1215 52.9903 51.307 52.9903 51.4925C52.9903 51.6779 52.9903 51.8927 52.9903 52.0879C53 52.2832 52.9903 52.4687 52.9805 52.6639C52.9219 52.6737 52.8731 52.6834 52.8146 52.6932C52.7462 52.6932 52.6779 52.6932 52.6096 52.6932H37.371C37.3515 52.6639 37.3418 52.6248 37.332 52.5858C37.332 52.0586 37.332 51.5315 37.332 51.0043C37.332 50.9848 37.3418 50.9555 37.3515 50.936C37.4784 50.897 37.6053 50.8774 37.742 50.8579C38.3765 50.7701 39.0013 50.6529 39.6261 50.487C39.8701 50.4186 40.1239 50.3308 40.3582 50.2332C40.4754 50.1843 40.5925 50.1258 40.7097 50.0574C41.3247 49.7158 41.5687 49.1789 41.5101 48.4955C41.4809 48.1831 41.432 47.8805 41.3442 47.5779C41.2173 47.1093 41.0513 46.6505 40.8951 46.2014C37.6932 37.2692 34.5303 28.3272 31.3967 19.3656C31.3674 19.268 31.3479 19.1606 31.2503 19.0728C31.221 19.0923 31.1722 19.1118 31.1526 19.1313C31.1234 19.1802 31.1038 19.229 31.0941 19.2778C29.5614 23.6805 27.9312 28.0538 26.3107 32.4175C25.1099 35.6487 23.9092 38.8897 22.7963 42.1502C22.3473 43.4583 21.9178 44.7762 21.498 46.0941C21.332 46.6017 21.2149 47.1191 21.1368 47.6365C21.0782 47.9879 21.0685 48.3393 21.1075 48.7005C21.1563 49.1593 21.4004 49.5791 21.7811 49.8524C22.0251 50.0281 22.2985 50.1648 22.5913 50.2624C23.0502 50.4284 23.5187 50.5455 23.9971 50.6236C24.5242 50.7212 25.0514 50.7993 25.5883 50.8774C25.6273 50.8872 25.6566 50.8872 25.7054 50.897C25.7152 50.936 25.725 50.9751 25.7347 51.0141C25.7347 51.5217 25.7347 52.0391 25.7347 52.5467C25.7347 52.576 25.725 52.6053 25.7152 52.6346C25.6664 52.6444 25.6176 52.6541 25.5688 52.6541C25.5004 52.6541 25.4321 52.6541 25.3638 52.6541L11.7457 52.7029Z" fill="white"/>
</svg>
