<svg width="65" height="64" viewBox="0 0 65 64" fill="none" xmlns="http://www.w3.org/2000/svg">
<rect x="6.0538" y="5.27032" width="52.7027" height="52.7027" rx="26.3514" fill="#1E1E1E"/>
<path opacity="0.4" d="M47.3968 37.1249C48.31 38.6917 48.3139 40.6275 47.4072 42.198C46.5005 43.7685 44.8221 44.733 43.0086 44.7256C41.1952 44.7182 39.5247 43.7401 38.6308 42.1623L28.0217 23.788C26.6306 21.3673 27.4652 18.2772 29.8858 16.886C32.3065 15.4949 35.3966 16.3295 36.7878 18.7501L47.3968 37.1249Z" fill="#4BDB4B"/>
<path opacity="0.8" d="M26.1815 42.1623C24.7812 44.5638 21.7049 45.3844 19.2945 43.9995C16.8842 42.6146 16.0439 39.5436 17.4133 37.1245L28.0213 18.7507C28.9113 17.1649 30.5844 16.1792 32.4029 16.1693C34.2214 16.1595 35.9051 17.127 36.8122 18.7032C37.7192 20.2793 37.71 22.2212 36.7879 23.7886L26.1815 42.1623Z" fill="#4BDB4B"/>
<path d="M36.7581 18.6995C36.6996 18.5999 36.6363 18.5045 36.572 18.4101C36.5409 18.3648 36.5114 18.3184 36.4787 18.2742C36.416 18.1883 36.3486 18.1071 36.2811 18.0265C36.24 17.9769 36.2005 17.9263 36.1573 17.8784C36.0961 17.8109 36.0318 17.7482 35.9681 17.6844C35.9043 17.6206 35.8563 17.5716 35.7973 17.5179C35.7383 17.4641 35.6824 17.4209 35.6244 17.3729C35.5517 17.3129 35.4795 17.2523 35.4026 17.1959C35.3498 17.1569 35.2945 17.1216 35.2402 17.0852C35.1548 17.0272 35.0689 16.9698 34.9767 16.9165C34.9577 16.9055 34.9409 16.8923 34.924 16.8812C34.884 16.858 34.8418 16.8406 34.8007 16.8185C34.7153 16.7727 34.6294 16.7279 34.5424 16.6873C34.4692 16.6525 34.3943 16.6214 34.319 16.5908C34.2436 16.5603 34.1719 16.5313 34.0976 16.5049C34.0101 16.474 33.9223 16.4456 33.8341 16.4196C33.7688 16.4001 33.7039 16.3816 33.6381 16.3668C33.5437 16.3431 33.4483 16.3226 33.3529 16.3041C33.2881 16.292 33.2228 16.2804 33.1579 16.2704C33.0647 16.2567 32.9714 16.2456 32.877 16.2367C32.8047 16.2296 32.7325 16.2244 32.6604 16.2209C32.5758 16.2166 32.4909 16.2145 32.4059 16.2145C32.3221 16.2145 32.2388 16.2145 32.155 16.2209C32.0818 16.2246 32.008 16.2298 31.9342 16.2367C31.842 16.2456 31.7492 16.2562 31.6575 16.2704C31.5911 16.2804 31.5247 16.292 31.4588 16.3047C31.3639 16.3226 31.27 16.3431 31.1769 16.3663C31.1099 16.3832 31.0435 16.4022 30.9771 16.4217C30.8893 16.4477 30.8014 16.4758 30.7136 16.506C30.6377 16.5329 30.5623 16.5629 30.4875 16.5935C30.4127 16.624 30.341 16.6541 30.2693 16.6878C30.1802 16.7294 30.0922 16.7753 30.0058 16.8222C29.9663 16.8438 29.9257 16.8607 29.8867 16.8833C29.8682 16.8939 29.8519 16.9065 29.834 16.9171C29.7412 16.9698 29.6522 17.0309 29.5647 17.0905C29.512 17.1252 29.4593 17.159 29.4103 17.1959C29.3296 17.2554 29.2521 17.3187 29.1763 17.3824C29.1236 17.4267 29.0709 17.4694 29.0181 17.5163C28.9533 17.5748 28.8927 17.637 28.8316 17.6981C28.7704 17.7593 28.7114 17.8135 28.6587 17.8736C28.606 17.9337 28.5633 17.9864 28.5159 18.0433C28.4558 18.1166 28.3947 18.1898 28.3383 18.2668C28.2982 18.3195 28.2624 18.3769 28.225 18.4323C28.1681 18.5161 28.1117 18.6009 28.0595 18.6895C27.1295 20.2568 27.1158 22.2035 28.0236 23.7837L32.4069 31.3761L36.7897 23.7837C37.6956 22.207 37.6835 20.2648 36.7581 18.6995Z" fill="#4BDB4B"/>
</svg>
