<svg width="64" height="64" viewBox="0 0 64 64" fill="none" xmlns="http://www.w3.org/2000/svg">
<g clip-path="url(#clip0_120_159985)">
<path fill-rule="evenodd" clip-rule="evenodd" d="M34.8102 6.0608L52.0704 14.8885C54.5737 16.2061 56.1548 18.7095 56.1548 21.6081V25.6926H49.8305V21.6081C49.8305 21.2128 49.567 20.8176 49.1717 20.554L31.9116 11.7263C31.6481 11.5946 31.2528 11.5946 30.8575 11.7263L13.5974 20.554C13.2021 20.6858 12.9386 21.0811 12.9386 21.6081V25.6926H6.61429V21.6081C6.61429 18.8412 8.19537 16.2061 10.6987 14.8885L27.9589 6.0608C30.067 5.00675 32.5704 5.00675 34.8102 6.0608ZM36.7866 31.3581C36.7866 28.3277 34.2832 25.9561 31.3846 25.9561C28.3542 25.9561 25.9825 28.3277 25.9825 31.3581C25.9825 34.3885 28.4859 36.7601 31.3846 36.7601C34.2832 36.7601 36.7866 34.3885 36.7866 31.3581ZM49.04 42.6892C49.4352 42.5574 49.6987 42.1622 49.6987 41.6351V37.5507H56.0231V41.6351C56.0231 44.402 54.442 47.0372 51.9386 48.3547L34.6785 57.1824C33.6244 57.7095 32.4386 57.973 31.2528 57.973C30.067 57.973 28.8812 57.7095 27.8271 57.1824L10.6987 48.3547C8.19537 47.0372 6.61429 44.5338 6.61429 41.6351V37.5507H12.9386V41.6351C12.9386 42.0304 13.2021 42.4257 13.5974 42.6892L28.2224 50.0676V42.6892C23.2156 41.2399 19.6582 36.7601 19.6582 31.3581C19.6582 24.902 24.9285 19.5 31.5163 19.5C37.9724 19.5 43.3744 24.7703 43.3744 31.3581C43.3744 36.7601 39.6852 41.3716 34.8102 42.6892V50.0676L49.04 42.6892Z" fill="#245AE5" fill-opacity="0.9"/>
</g>
<defs>
<clipPath id="clip0_120_159985">
<rect width="49.4088" height="52.7027" fill="white" transform="translate(6.61462 5.27051)"/>
</clipPath>
</defs>
</svg>
