<svg width="64" height="64" viewBox="0 0 64 64" fill="none" xmlns="http://www.w3.org/2000/svg">
<path d="M32.05 8.82747C36.7429 8.82747 41.2683 10.5873 44.5366 13.8556C47.8887 17.124 49.7324 21.3979 49.7324 26.0071V54.4162H14.3676V26.0071C14.3676 21.3979 16.2112 17.124 19.5634 13.8556C22.8317 10.5873 27.2732 8.82747 32.05 8.82747ZM32.05 7.90564C27.1056 7.90564 22.4126 9.7493 18.8929 13.1852C15.3732 16.6211 13.4457 21.1465 13.4457 26.0071V55.3381H50.6542V26.0071C50.6542 21.1465 48.7268 16.6211 45.207 13.269C41.6873 9.7493 36.9944 7.90564 32.05 7.90564Z" fill="white"/>
<path d="M42.9977 15.5437L42.1597 14.7057C39.3942 12.2754 35.8745 11.0183 32.1034 11.0183C27.997 11.0183 24.0583 12.6106 21.209 15.5437C18.2759 18.4768 16.6836 22.3317 16.6836 26.4381V52.0818H47.5231V26.5219C47.5231 22.3317 45.847 18.4768 42.9977 15.5437ZM38.221 50.4895C36.7963 50.9923 35.2041 51.2437 33.6118 51.2437H22.466V46.1318C22.2146 45.8803 21.9632 45.5451 21.7956 45.2937C19.8681 42.7796 18.8625 39.6789 18.8625 36.4944V26.8571C18.8625 23.086 20.2872 19.5662 22.8013 16.8007C23.1365 16.8007 23.5555 16.8007 23.9745 16.8845C26.5724 17.136 30.0921 18.0578 33.109 20.1529C35.7907 21.9965 39.059 25.3486 39.059 30.7958V50.2381C38.8076 50.3219 38.5562 50.4057 38.221 50.4895Z" fill="white"/>
<path d="M33.194 20.1535C30.1771 18.1423 26.6574 17.1366 24.0595 16.8852C23.6405 16.8852 23.2215 16.8014 22.8863 16.8014C20.3722 19.5669 18.9476 23.0866 18.9476 26.8578V36.4951C18.9476 39.6796 19.9532 42.7803 21.8807 45.2944C22.1321 45.5458 22.2997 45.881 22.5511 46.1324V51.2444H33.6969C35.2891 51.2444 36.7976 50.993 38.306 50.4902C38.6412 50.4064 38.8926 50.3226 39.2279 50.155V30.7127C39.1441 25.2655 35.8757 21.9972 33.194 20.1535ZM23.3891 50.3226V47.0543C24.8976 48.4789 26.6574 49.6522 28.5849 50.3226C28.5849 50.3226 23.3891 50.3226 23.3891 50.3226ZM38.2222 49.5684C36.7976 50.0712 35.2053 50.3226 33.6131 50.3226C29.9257 50.3226 26.4898 48.8979 23.8081 46.2162L23.3053 45.7134C22.9701 45.3782 22.6349 44.9592 22.3835 44.5402C20.6236 42.1937 19.7018 39.3444 19.7018 36.4113V26.8578C19.7018 23.5057 20.9588 20.2373 23.1377 17.7233C29.0039 17.9747 38.1384 21.9972 38.1384 30.7127V49.5684H38.2222Z" fill="white"/>
<path d="M28.5282 39.1137C28.2768 39.1137 28.0254 38.8623 28.0254 38.6109V30.063C28.0254 27.8003 29.8691 25.9566 32.1318 25.9566C34.3944 25.9566 36.2381 27.8003 36.2381 30.063C36.2381 30.3144 35.9867 30.5658 35.7353 30.5658C35.4839 30.5658 35.2325 30.3144 35.2325 30.063C35.2325 28.3869 33.8078 26.9623 32.1318 26.9623C30.4557 26.9623 29.0311 28.3869 29.0311 30.063V38.6109C29.0311 38.8623 28.7796 39.1137 28.5282 39.1137Z" fill="white"/>
<path d="M33.6399 32.4932C33.3885 32.4932 33.1371 32.2418 33.1371 31.9904C33.1371 31.4038 32.7181 30.9848 32.1315 30.9848C31.5448 30.9848 31.1258 31.4038 31.1258 31.9904C31.1258 32.2418 30.8744 32.4932 30.623 32.4932C30.3716 32.4932 30.1202 32.2418 30.1202 31.9904C30.1202 30.8172 31.042 29.8954 32.2153 29.8954C33.3885 29.8954 34.3103 30.8172 34.3103 31.9904C34.1427 32.2418 33.8913 32.4932 33.6399 32.4932Z" fill="white"/>
<path d="M28.5277 39.1129C27.0193 39.1129 25.7622 37.8559 25.7622 36.3475C25.7622 36.096 26.0136 35.8446 26.265 35.8446C26.5164 35.8446 26.7679 36.096 26.7679 36.3475C26.7679 37.2693 27.5221 38.0235 28.4439 38.0235C29.3657 38.0235 30.12 37.2693 30.12 36.3475C30.12 36.096 30.3714 35.8446 30.6228 35.8446C30.8742 35.8446 31.1256 36.096 31.1256 36.3475C31.2094 37.8559 30.0362 39.1129 28.5277 39.1129Z" fill="white"/>
<path d="M25.595 33.3312C25.4274 33.3312 25.3436 33.2474 25.2598 33.1636L22.9972 30.9009V32.8284C22.9972 33.0798 22.7457 33.3312 22.4943 33.3312C22.2429 33.3312 21.9077 33.0798 21.9077 32.7446V29.6439C21.9077 29.3925 22.0753 29.2249 22.2429 29.1411C22.4943 29.0573 22.6619 29.0573 22.8295 29.2249L25.0922 31.4876V30.1467C25.0922 29.8953 25.3436 29.6439 25.595 29.6439C25.8465 29.6439 26.0979 29.8953 26.0979 30.1467V32.7446C26.0979 32.996 25.9303 33.1636 25.7626 33.2474C25.7626 33.3312 25.6788 33.3312 25.595 33.3312Z" fill="white"/>
<path d="M28.4433 30.6502C28.1919 30.6502 27.9405 30.3987 27.9405 30.1473C27.9405 30.0635 27.9405 27.9685 26.5159 27.9685C26.2645 27.9685 26.013 27.7171 26.013 27.4656C26.013 27.2142 26.2645 26.9628 26.5159 26.9628C28.4433 26.9628 28.9461 29.0579 28.9461 30.1473C28.9461 30.3987 28.6947 30.6502 28.4433 30.6502Z" fill="white"/>
</svg>
