<svg width="64" height="64" viewBox="0 0 64 64" fill="none" xmlns="http://www.w3.org/2000/svg">
<rect x="6.02661" y="5.27051" width="52.7027" height="52.7027" rx="26.3514" fill="url(#paint0_linear_120_159988)"/>
<path d="M28.9509 34.4437L32.4561 23.7766L36.0262 34.4437H28.9509ZM43.8102 41.1891L40.9108 33.2266H42.6418C42.9732 33.2238 43.2902 33.0905 43.5241 32.8556C43.758 32.6207 43.8899 32.3031 43.8913 31.9717C43.8913 31.8154 43.8605 31.6606 43.8007 31.5163C43.7409 31.3719 43.6533 31.2407 43.5428 31.1302C43.4323 31.0197 43.3011 30.932 43.1567 30.8722C43.0123 30.8124 42.8576 30.7816 42.7013 30.7816H39.9966L39.5639 29.5429H42.6418C42.9662 29.543 43.2778 29.4164 43.5102 29.1901C43.7426 28.9637 43.8774 28.6555 43.8859 28.3312C43.8866 28.1669 43.8548 28.0041 43.7923 27.8522C43.7297 27.7003 43.6377 27.5622 43.5215 27.4461C43.4054 27.3299 43.2673 27.2379 43.1154 27.1753C42.9635 27.1128 42.8007 27.081 42.6364 27.0817H38.6389L36.4752 21.1315C36.1519 20.2813 35.6177 19.5274 34.9227 18.9407C34.2361 18.376 33.366 18.0834 32.4777 18.1185C31.5872 18.0902 30.7159 18.3819 30.0219 18.9407C29.3265 19.5282 28.7907 20.2817 28.464 21.1315L26.1975 27.1358H22.2217C21.9042 27.1358 21.5995 27.2615 21.3745 27.4856C21.1494 27.7096 21.0223 28.0137 21.0208 28.3312C21.0208 28.6612 21.1519 28.9776 21.3852 29.211C21.6186 29.4443 21.935 29.5754 22.265 29.5754H25.2834L24.8182 30.7816H22.1135C21.795 30.7816 21.4896 30.9082 21.2644 31.1334C21.0392 31.3586 20.9127 31.664 20.9127 31.9825C20.9127 32.3087 21.0419 32.6215 21.272 32.8527C21.5021 33.0838 21.8144 33.2144 22.1406 33.2158H23.877L20.9289 41.1891C20.7477 41.6386 20.647 42.1165 20.6314 42.6009C20.6621 43.2804 20.9572 43.921 21.4536 44.386C21.9999 44.8591 22.6999 45.1168 23.4226 45.1108C24.0296 45.1441 24.6296 44.9677 25.122 44.6112C25.6144 44.2547 25.9693 43.7397 26.1272 43.1527L27.2686 39.7502H37.768L38.9094 43.2338C39.0881 43.8012 39.4513 44.2925 39.9414 44.6297C40.4315 44.9669 41.0202 45.1305 41.614 45.0946C42.0686 45.1037 42.5172 44.9897 42.9122 44.7646C43.2549 44.5103 43.5592 44.2079 43.8156 43.8667C44.039 43.4828 44.1531 43.0451 44.1456 42.6009C44.0739 42.1288 43.9617 41.6636 43.8102 41.2107V41.1891Z" fill="#FEFEFE"/>
<defs>
<linearGradient id="paint0_linear_120_159988" x1="17.0032" y1="14.9704" x2="52.7568" y2="53.694" gradientUnits="userSpaceOnUse">
<stop stop-color="#FC8F55"/>
<stop offset="0.44" stop-color="#FE7A6A"/>
<stop offset="1" stop-color="#FE687C"/>
</linearGradient>
</defs>
</svg>
