<svg width="64" height="64" viewBox="0 0 64 64" fill="none" xmlns="http://www.w3.org/2000/svg">
<path fill-rule="evenodd" clip-rule="evenodd" d="M31.8653 5.51328C46.3714 5.51328 58.2166 17.2727 58.2166 31.8646C58.2166 46.3708 46.4572 58.216 31.8653 58.216C17.2733 58.216 5.51392 46.3708 5.51392 31.8646C5.51392 17.2727 17.2733 5.51328 31.8653 5.51328Z" fill="#FDFF7F"/>
<path d="M31.8652 11.1784C43.2813 11.1784 52.5515 20.4486 52.5515 31.8646C52.5515 43.2807 43.2813 52.5509 31.8652 52.5509C26.1143 52.5509 20.9642 50.2333 17.1874 46.4566C13.4107 42.6799 11.0931 37.5298 11.0931 31.7788C11.0931 26.0279 13.4107 20.8778 17.1874 17.101C20.9642 13.496 26.1143 11.1784 31.8652 11.1784ZM39.5904 25.7704C40.7921 25.7704 41.8221 26.7145 41.8221 28.0021C41.8221 29.2038 40.8779 30.2338 39.5904 30.2338C38.3887 30.2338 37.3587 29.2896 37.3587 28.0021C37.3587 26.8004 38.3887 25.7704 39.5904 25.7704ZM19.8483 28.9463L23.3675 25.942L24.0542 25.3412L24.7409 25.942L28.2601 28.9463L26.8009 30.663L23.9684 28.3454L21.1358 30.663L19.8483 28.9463ZM40.7062 36.5856C40.7062 38.989 39.6762 41.2207 38.1312 42.8515C36.5003 44.4824 34.3544 45.4266 31.8652 45.4266C29.4618 45.4266 27.2301 44.3966 25.5993 42.8515C23.9684 41.2207 23.0242 39.0748 23.0242 36.5856H25.2559C25.2559 38.3881 26.0284 40.019 27.1443 41.2207C28.346 42.4224 29.9768 43.109 31.7794 43.109C33.5819 43.109 35.2128 42.3365 36.4145 41.2207C37.6162 40.019 38.3028 38.3881 38.3028 36.5856H40.7062ZM50.6631 31.8646C50.6631 21.4786 42.2513 13.0668 31.8652 13.0668C26.6293 13.0668 21.9942 15.2127 18.5608 18.5602C15.1274 21.9936 13.0673 26.7145 13.0673 31.8646C13.0673 37.0148 15.2132 41.7357 18.5608 45.1691C21.9942 48.6025 26.7151 50.6625 31.8652 50.6625C42.2513 50.6625 50.6631 42.2507 50.6631 31.8646Z" fill="#1F1F1F"/>
</svg>
