<svg width="64" height="64" viewBox="0 0 64 64" fill="none" xmlns="http://www.w3.org/2000/svg">
<g clip-path="url(#clip0_120_159990)">
<path d="M5.27005 16.7585C5.13258 12.6615 8.30839 9.2275 12.3681 9.08619C13.5101 9.04718 14.6454 9.27596 15.6831 9.75424C16.7209 10.2325 17.6324 10.947 18.3446 11.8406C16.6205 12.5459 11.5587 15.2194 9.10363 23.0176C7.97711 22.3959 7.03148 21.4921 6.35943 20.3948C5.68739 19.2976 5.31199 18.0445 5.27005 16.7585ZM10.4988 22.7774H24.3596C23.7832 19.1541 21.8027 15.9038 18.8469 13.7304C18.5296 13.4966 18.2572 13.3155 18.0465 13.1844C14.7069 15.6369 12.0992 18.9534 10.504 22.7774H10.4988ZM39.0194 22.7774H52.4665C50.9222 19.0774 48.4296 15.8501 45.24 13.4208C45.0396 13.5493 44.7891 13.7163 44.5051 13.9257C41.6033 16.0578 39.6385 19.2296 39.022 22.7774H39.0194ZM21.5088 33.8695C23.6166 31.1784 24.6875 27.8196 24.5266 24.4051H9.89501C8.70548 28.0445 8.4497 31.9246 9.15116 35.6887C14.5225 35.6078 16.6397 32.0915 16.6397 32.0915L18.0683 33.7488C15.7019 36.7807 12.1086 37.5554 9.6188 37.6916C9.79009 38.3108 9.99008 38.9189 10.2188 39.5159C15.7931 39.3206 19.3261 36.6651 21.5114 33.8695H21.5088ZM26.4678 27.6104C25.8357 31.2218 24.4893 33.9055 22.8231 35.9084C23.7583 37.0826 26.4203 39.6161 31.9843 39.5223C31.9843 39.5223 36.3524 39.9167 40.5148 36.0985C38.855 34.0995 37.5163 31.4183 36.874 27.8057C36.874 27.8057 35.0908 17.1156 43.0984 11.9755C40.042 10.1518 36.5979 9.07634 33.0468 8.83695V17.4445H30.4504V8.8074C26.8574 8.96419 23.3539 9.97727 20.2318 11.7622C28.2587 16.9011 26.4678 27.6104 26.4678 27.6104ZM51.7676 9.20438C50.4999 8.98981 49.1981 9.10798 47.9898 9.54733C46.7814 9.98668 45.7077 10.7322 44.8739 11.7109C51.404 15.2913 53.2913 20.727 53.9825 22.9932C54.9999 22.4731 55.8815 21.7222 56.5567 20.8004C57.232 19.8786 57.6822 18.8116 57.8713 17.6848C58.5432 13.679 55.8106 9.88142 51.7676 9.20438ZM45.4032 33.3377L46.9448 31.6958C46.9448 31.6958 48.8577 34.9693 53.9028 35.1979C54.1023 33.9756 54.2024 32.7391 54.2021 31.5005C54.2041 29.0903 53.822 26.6951 53.0703 24.4051H38.8331C38.6214 27.8843 39.6913 31.3207 41.8406 34.0648C43.9656 36.7846 47.3649 39.3732 52.681 39.6854C52.9967 38.8693 53.2644 38.0354 53.4827 37.188C51.0186 37.0107 47.6655 36.1923 45.4032 33.3377ZM30.3785 44.074V42.4527C27.4365 42.1675 24.2118 40.8635 20.9692 37.7712C17.435 40.7376 13.2353 41.4802 11.163 41.6626C13.8479 47.0179 18.5339 51.1003 24.2067 53.0259C25.6695 52.3927 26.979 51.4524 28.0467 50.2689C29.5608 48.5619 30.3912 46.3558 30.3785 44.074ZM27.8296 53.9239C30.4109 54.3403 33.0443 54.3125 35.6162 53.8417C33.9703 52.0705 32.6487 50.0236 31.712 47.7945C30.7896 50.0507 29.4752 52.1258 27.8296 53.9239ZM33.0635 42.4476V44.1177C33.0494 46.3086 33.8445 48.4276 35.2963 50.0685C36.3809 51.2777 37.717 52.235 39.2108 52.873C44.6338 50.9047 49.1087 46.9532 51.7329 41.8155C49.6003 41.574 45.8759 40.7774 42.6423 38.1849C41.2959 39.3167 37.6936 41.9825 33.0635 42.4476Z" fill="url(#paint0_linear_120_159990)"/>
</g>
<defs>
<linearGradient id="paint0_linear_120_159990" x1="16.4265" y1="13.5865" x2="57.0285" y2="47.1882" gradientUnits="userSpaceOnUse">
<stop stop-color="#EA3570"/>
<stop offset="0.88" stop-color="#138FC9"/>
</linearGradient>
<clipPath id="clip0_120_159990">
<rect width="52.7027" height="45.4094" fill="white" transform="translate(5.27032 8.80743)"/>
</clipPath>
</defs>
</svg>
