<svg width="64" height="64" viewBox="0 0 64 64" fill="none" xmlns="http://www.w3.org/2000/svg">
<path d="M32.1084 58.2161C46.662 58.2161 58.4598 46.4184 58.4598 31.8648C58.4598 17.3112 46.662 5.51343 32.1084 5.51343C17.5548 5.51343 5.75708 17.3115 5.75708 31.8648C5.75708 46.4181 17.5551 58.2161 32.1084 58.2161Z" fill="#070A0E"/>
<path fill-rule="evenodd" clip-rule="evenodd" d="M20.9788 40.701C20.5912 40.4641 20.2708 40.1317 20.0484 39.7356C19.826 39.3395 19.7089 38.893 19.7084 38.4387V33.2907C19.7088 33.0962 19.7605 32.9053 19.8582 32.7371C19.9559 32.569 20.0961 32.4295 20.2649 32.3328C20.4336 32.2361 20.6249 32.1856 20.8194 32.1864C21.0139 32.1871 21.2047 32.2391 21.3727 32.3371L32.9916 39.1115C33.3255 39.3063 33.6027 39.5851 33.7954 39.9203C33.9881 40.2555 34.0896 40.6353 34.0899 41.022V46.3565C34.0904 46.5926 34.0279 46.8245 33.9088 47.0284C33.7897 47.2322 33.6184 47.4006 33.4125 47.5161C33.2066 47.6315 32.9736 47.69 32.7375 47.6853C32.5015 47.6807 32.271 47.6131 32.0698 47.4896L20.9788 40.701ZM38.2982 30.926C38.6321 31.1208 38.9092 31.3998 39.1018 31.735C39.2944 32.0702 39.3958 32.4501 39.396 32.8367V43.6605C39.3962 43.8174 39.3546 43.9714 39.2755 44.1068C39.1963 44.2422 39.0825 44.3541 38.9457 44.4308L36.4017 45.863C36.3692 45.8807 36.3349 45.8949 36.2994 45.9054V39.8954C36.2993 39.5127 36.2001 39.1364 36.0114 38.8034C35.8227 38.4704 35.551 38.1918 35.2227 37.995L25.0195 31.8912V25.106C25.0199 24.9115 25.0716 24.7206 25.1693 24.5524C25.267 24.3842 25.4073 24.2448 25.576 24.1481C25.7448 24.0514 25.936 24.0009 26.1305 24.0016C26.325 24.0024 26.5158 24.0544 26.6838 24.1523L38.2982 30.926ZM43.384 22.9315C43.7193 23.126 43.9975 23.4052 44.1908 23.7412C44.384 24.0772 44.4856 24.458 44.4852 24.8456V40.6565C44.4844 40.8159 44.4406 40.9721 44.3586 41.1087C44.2765 41.2454 44.1591 41.3574 44.0188 41.433L41.6087 42.7348V31.7284C41.6085 31.3464 41.5096 30.971 41.3215 30.6386C41.1335 30.3062 40.8627 30.028 40.5354 29.8311L30.1053 23.5755V17.1397C30.1058 16.9447 30.1567 16.7532 30.2531 16.5837C30.4009 16.3302 30.6431 16.1456 30.9268 16.0704C31.2104 15.9952 31.5123 16.0356 31.7662 16.1826L43.384 22.9315Z" fill="#00D395"/>
</svg>
