<svg width="65" height="64" viewBox="0 0 65 64" fill="none" xmlns="http://www.w3.org/2000/svg">
<ellipse cx="32.5946" cy="31.8649" rx="21.0811" ry="21.0811" fill="white"/>
<path d="M32.5946 5.51321C27.3828 5.51321 22.2881 7.05869 17.9546 9.95422C13.6212 12.8497 10.2436 16.9653 8.24917 21.7803C6.2547 26.5954 5.73286 31.8938 6.74963 37.0055C7.7664 42.1171 10.2761 46.8125 13.9614 50.4978C17.6467 54.1831 22.3421 56.6928 27.4537 57.7096C32.5654 58.7263 37.8638 58.2045 42.6789 56.21C47.4939 54.2156 51.6095 50.838 54.505 46.5046C57.4005 42.1711 58.946 37.0764 58.946 31.8646C58.946 24.8757 56.1697 18.1732 51.2279 13.2313C46.286 8.28951 39.5835 5.51321 32.5946 5.51321V5.51321ZM48.793 39.6408C47.6684 41.9635 46.0566 44.0167 44.0671 45.6604C42.0777 47.3041 39.7574 48.4998 37.2642 49.166C34.7711 49.8322 32.1636 49.9533 29.6194 49.5211C27.0752 49.0889 24.6541 48.1135 22.5208 46.6613C20.3876 45.2091 18.5923 43.3142 17.2573 41.1057C15.9223 38.8972 15.0789 36.427 14.7845 33.8632C14.4902 31.2994 14.7518 28.7023 15.5515 26.2487C16.3512 23.7951 17.6703 21.5427 19.419 19.6448C19.5481 19.4898 19.7807 19.6706 19.7032 19.8514C18.4286 22.1414 17.7699 24.7228 17.7914 27.3435C17.7914 34.7322 22.8033 40.7258 28.952 40.7258C32.8272 40.7258 36.2632 38.3491 38.2524 34.7322C38.2725 34.6973 38.3041 34.6704 38.3418 34.6562C38.3795 34.6421 38.421 34.6415 38.4591 34.6547L48.6896 39.4341C48.793 39.4341 48.8446 39.5375 48.793 39.6408ZM48.7155 24.2175L38.3041 29.0744C38.2628 29.0937 38.2157 29.0964 38.1724 29.082C38.1292 29.0676 38.0931 29.0371 38.0716 28.9969C37.6127 28.1061 36.943 27.341 36.1209 26.7682C35.2987 26.1953 34.349 25.8321 33.3545 25.71C32.3599 25.588 31.3506 25.7109 30.4143 26.068C29.4781 26.4252 28.6433 27.0057 27.9827 27.7591C27.322 28.5125 26.8555 29.416 26.6238 30.3908C26.392 31.3657 26.402 32.3824 26.6529 33.3525C26.9038 34.3227 27.388 35.2168 28.0634 35.957C28.7387 36.6973 29.5848 37.2612 30.5279 37.5999C30.5795 37.6257 30.5537 37.6515 30.502 37.6515H30.3212C24.8442 37.6515 20.3749 32.3296 20.3749 25.7417V25.3284C20.5557 19.1022 25.6451 14.1162 31.8713 13.8836C32.1038 13.8836 32.3363 13.8578 32.5946 13.8578C35.9688 13.8592 39.2746 14.8096 42.1343 16.6003C44.9941 18.3911 47.2925 20.9501 48.7671 23.985C48.8446 24.0625 48.793 24.1658 48.7155 24.2175Z" fill="url(#paint0_linear_120_159994)"/>
<defs>
<linearGradient id="paint0_linear_120_159994" x1="55.913" y1="55.418" x2="5.53542" y2="4.5315" gradientUnits="userSpaceOnUse">
<stop stop-color="#3DEDD6"/>
<stop offset="1" stop-color="#2C55DD"/>
</linearGradient>
</defs>
</svg>
