<svg width="64" height="64" viewBox="0 0 64 64" fill="none" xmlns="http://www.w3.org/2000/svg">
<g clip-path="url(#clip0_120_159993)">
<path d="M30.081 57.6888C30.0404 57.6888 29.9999 57.7294 29.9999 57.7699C29.9999 57.8105 30.0404 57.851 30.081 57.851C30.1215 57.851 30.162 57.8105 30.162 57.7699C30.2026 57.6888 30.162 57.6888 30.081 57.6888ZM27.6485 56.7969C27.5674 56.7969 27.4864 56.878 27.4864 56.9591C27.4864 57.0402 27.5674 57.1213 27.6485 57.1213C27.7296 57.1213 27.8107 57.0402 27.8107 56.9591C27.8107 56.878 27.7296 56.7969 27.6485 56.7969ZM25.2566 55.7023C25.0945 55.7023 24.9729 55.824 24.9729 55.9861C24.9729 56.1483 25.0945 56.2699 25.2566 56.2699C25.4188 56.2699 25.5404 56.1483 25.5404 55.9861C25.5404 55.824 25.4188 55.7023 25.2566 55.7023ZM23.0269 54.3645C22.8242 54.3645 22.662 54.5267 22.662 54.7294C22.662 54.9321 22.8242 55.0942 23.0269 55.0942C23.2296 55.0942 23.3918 54.9321 23.3918 54.7294C23.3512 54.5267 23.1891 54.3645 23.0269 54.3645ZM20.9188 52.7834C20.6756 52.7834 20.4729 52.9861 20.4729 53.2294C20.4729 53.4726 20.6756 53.6753 20.9188 53.6753C21.162 53.6753 21.3647 53.4726 21.3647 53.2294C21.3647 52.9456 21.162 52.7834 20.9188 52.7834ZM18.9729 50.9591C18.6891 50.9591 18.4458 51.2023 18.4458 51.4861C18.4458 51.7699 18.6891 52.0132 18.9729 52.0132C19.2566 52.0132 19.4999 51.7699 19.4999 51.4861C19.4999 51.2023 19.2566 50.9591 18.9729 50.9591ZM17.2296 48.9726C16.9053 48.9726 16.6215 49.2564 16.6215 49.5807C16.6215 49.905 16.9053 50.1888 17.2296 50.1888C17.5539 50.1888 17.8377 49.905 17.8377 49.5807C17.8377 49.2564 17.5539 48.9726 17.2296 48.9726ZM15.6891 46.824C15.2837 46.824 14.9593 47.1483 14.9593 47.5537C14.9593 47.9591 15.2837 48.2834 15.6891 48.2834C16.0945 48.2834 16.4188 47.9591 16.4188 47.5537C16.4188 47.1483 16.0945 46.824 15.6891 46.824ZM15.2431 45.2834C15.2431 44.8375 14.8783 44.4726 14.4323 44.4726C13.9864 44.4726 13.6215 44.8375 13.6215 45.2834C13.6215 45.7294 13.9864 46.0942 14.4323 46.0942C14.8783 46.0537 15.2431 45.6888 15.2431 45.2834ZM14.3918 42.851C14.3918 42.3645 13.9864 41.9591 13.4999 41.9591C13.0134 41.9591 12.608 42.3645 12.608 42.851C12.608 43.3375 13.0134 43.7429 13.4999 43.7429C13.9864 43.7429 14.3918 43.378 14.3918 42.851ZM13.8647 40.378C13.8647 39.851 13.4188 39.405 12.8918 39.405C12.3647 39.405 11.9188 39.851 11.9188 40.378C11.9188 40.905 12.3647 41.351 12.8918 41.351C13.4188 41.351 13.8647 40.905 13.8647 40.378ZM13.662 37.7834C13.662 37.1753 13.1756 36.7294 12.608 36.7294C12.0404 36.7294 11.5539 37.2159 11.5539 37.7834C11.5539 38.351 12.0404 38.8375 12.608 38.8375C13.1756 38.878 13.662 38.3915 13.662 37.7834ZM12.608 36.3645C13.2566 36.3645 13.7431 35.8375 13.7431 35.1888C13.7431 34.5402 13.2161 34.0537 12.608 34.0537C11.9593 34.0537 11.4323 34.5807 11.4323 35.1888C11.4729 35.8375 11.9999 36.3645 12.608 36.3645ZM11.7566 32.6753C11.7566 33.3645 12.3242 33.9321 13.0134 33.9321C13.7026 33.9321 14.2702 33.3645 14.2702 32.6753C14.2702 31.9861 13.7026 31.4186 13.0134 31.4186C12.3242 31.4186 11.7566 31.9861 11.7566 32.6753ZM49.135 51.7294C49.0945 51.7294 49.0539 51.7699 49.0539 51.8105C49.0539 51.851 49.0945 51.8915 49.135 51.8915C49.1756 51.8915 49.2161 51.851 49.2161 51.8105C49.1756 51.7699 49.1756 51.7294 49.135 51.7294ZM46.8242 52.8645C46.7431 52.8645 46.662 52.9456 46.662 53.0267C46.662 53.1077 46.7431 53.1888 46.8242 53.1888C46.9053 53.1888 46.9864 53.1077 46.9864 53.0267C46.9864 52.905 46.9053 52.8645 46.8242 52.8645ZM44.4323 53.7159C44.3107 53.7159 44.1891 53.8375 44.1891 53.9591C44.1891 54.0807 44.3107 54.2023 44.4323 54.2023C44.5539 54.2023 44.6756 54.0807 44.6756 53.9591C44.6756 53.8375 44.5539 53.7159 44.4323 53.7159ZM41.9593 54.324C41.7972 54.324 41.635 54.4456 41.635 54.6483C41.635 54.8105 41.7566 54.9726 41.9593 54.9726C42.1215 54.9726 42.2837 54.8105 42.2837 54.6483C42.2431 54.4861 42.1215 54.324 41.9593 54.324ZM39.4053 54.6888C39.2026 54.6888 38.9999 54.851 38.9999 55.0942C38.9999 55.2969 39.162 55.4996 39.4053 55.4996C39.608 55.4996 39.8107 55.3375 39.8107 55.0942C39.8107 54.851 39.608 54.6888 39.4053 54.6888ZM36.8107 54.7699C36.5674 54.7699 36.3242 54.9726 36.3242 55.2564C36.3242 55.4996 36.5269 55.7429 36.8107 55.7429C37.0539 55.7429 37.2972 55.5402 37.2972 55.2564C37.2972 54.9726 37.0945 54.7699 36.8107 54.7699ZM34.2566 54.5672C33.9729 54.5672 33.6891 54.8105 33.6891 55.1348C33.6891 55.4186 33.9323 55.7023 34.2566 55.7023C34.5404 55.7023 34.8242 55.4591 34.8242 55.1348C34.7837 54.8105 34.5404 54.5672 34.2566 54.5672ZM31.7026 54.1213C31.3377 54.1213 31.0945 54.405 31.0945 54.7294C31.0945 55.0942 31.3783 55.378 31.7026 55.378C32.0674 55.378 32.3512 55.0942 32.3512 54.7294C32.3107 54.405 32.0269 54.1213 31.7026 54.1213ZM29.2296 53.351C28.8242 53.351 28.5404 53.6753 28.5404 54.0402C28.5404 54.4456 28.8647 54.7294 29.2296 54.7294C29.635 54.7294 29.9188 54.405 29.9188 54.0402C29.9188 53.6348 29.5945 53.351 29.2296 53.351ZM26.8377 52.2159C26.3918 52.2159 26.0674 52.5807 26.0674 52.9861C26.0674 53.4321 26.4323 53.7564 26.8377 53.7564C27.2837 53.7564 27.608 53.3915 27.608 52.9861C27.6485 52.5807 27.2837 52.2159 26.8377 52.2159ZM25.4999 51.6888C25.4999 51.2023 25.0945 50.8375 24.6485 50.8375C24.162 50.8375 23.7972 51.2023 23.7972 51.6888C23.7972 52.1753 24.2026 52.5402 24.6485 52.5402C25.0945 52.5402 25.4999 52.1753 25.4999 51.6888ZM22.6215 49.1348C22.0945 49.1348 21.6891 49.5402 21.6891 50.0672C21.6891 50.5942 22.0945 50.9996 22.6215 50.9996C23.1485 50.9996 23.5539 50.5942 23.5539 50.0672C23.5539 49.5402 23.1485 49.1348 22.6215 49.1348ZM20.8377 47.1888C20.2701 47.1888 19.8242 47.6348 19.8242 48.2023C19.8242 48.7699 20.2701 49.2159 20.8377 49.2159C21.4053 49.2159 21.8512 48.7699 21.8512 48.2023C21.8512 47.6348 21.4053 47.1888 20.8377 47.1888ZM19.2972 47.2294C19.9053 47.2294 20.3918 46.7429 20.3918 46.1348C20.3918 45.5267 19.9053 45.0402 19.2972 45.0402C18.6891 45.0402 18.2026 45.5267 18.2026 46.1348C18.2026 46.7429 18.6891 47.2294 19.2972 47.2294ZM19.2161 43.905C19.2161 43.2564 18.6891 42.7294 18.0404 42.7294C17.3918 42.7294 16.8647 43.2564 16.8647 43.905C16.8647 44.5537 17.3918 45.0807 18.0404 45.0807C18.6891 45.0807 19.2161 44.5537 19.2161 43.905ZM58.3783 34.0942C58.3377 34.0942 58.2972 34.1348 58.2972 34.1753C58.2972 34.2159 58.3377 34.2564 58.3783 34.2564C58.4188 34.2564 58.4593 34.2159 58.4593 34.1753C58.4188 34.0942 58.3783 34.0942 58.3783 34.0942ZM57.608 36.4861C57.5269 36.4861 57.4864 36.5672 57.4864 36.6077C57.4864 36.6888 57.5674 36.7294 57.608 36.7294C57.6891 36.7294 57.7296 36.6483 57.7296 36.6077C57.7296 36.5267 57.6485 36.4861 57.608 36.4861ZM56.5539 38.7564C56.4323 38.7564 56.3512 38.8375 56.3512 38.9591C56.3512 39.0807 56.4323 39.1618 56.5539 39.1618C56.6756 39.1618 56.7566 39.0807 56.7566 38.9591C56.7972 38.878 56.6756 38.7564 56.5539 38.7564ZM55.2972 40.9456C55.135 40.9456 55.0134 41.0672 55.0134 41.2294C55.0134 41.3915 55.135 41.5132 55.2972 41.5132C55.4593 41.5132 55.581 41.3915 55.581 41.2294C55.581 41.0672 55.4593 40.9456 55.2972 40.9456ZM53.7972 42.9726C53.5945 42.9726 53.4323 43.1348 53.4323 43.3375C53.4323 43.5402 53.5945 43.7023 53.7972 43.7023C53.9999 43.7023 54.162 43.5402 54.162 43.3375C54.162 43.1348 53.9999 42.9726 53.7972 42.9726ZM52.0945 44.8375C51.8512 44.8375 51.6891 45.0402 51.6891 45.2429C51.6891 45.4861 51.8918 45.6483 52.0945 45.6483C52.3377 45.6483 52.4999 45.4456 52.4999 45.2429C52.5404 45.0402 52.3377 44.8375 52.0945 44.8375ZM50.1891 46.5402C49.9053 46.5402 49.7026 46.7429 49.7026 47.0267C49.7026 47.3105 49.9053 47.5132 50.1891 47.5132C50.4729 47.5132 50.6756 47.3105 50.6756 47.0267C50.6756 46.7429 50.4729 46.5402 50.1891 46.5402ZM48.1215 47.9591C47.7972 47.9591 47.5539 48.2023 47.5539 48.5267C47.5539 48.851 47.7972 49.0942 48.1215 49.0942C48.4458 49.0942 48.6891 48.851 48.6891 48.5267C48.6891 48.2429 48.4458 47.9591 48.1215 47.9591ZM45.8512 49.1753C45.4864 49.1753 45.2026 49.4591 45.2026 49.824C45.2026 50.1888 45.4864 50.4726 45.8512 50.4726C46.2161 50.4726 46.4999 50.1888 46.4999 49.824C46.4999 49.4591 46.2161 49.1753 45.8512 49.1753ZM43.4593 50.0267C43.0539 50.0267 42.7701 50.351 42.7701 50.7159C42.7701 51.1213 43.0945 51.405 43.4593 51.405C43.8647 51.405 44.1485 51.0807 44.1485 50.7159C44.1485 50.351 43.8647 50.0267 43.4593 50.0267ZM40.9458 50.5942C40.4999 50.5942 40.1756 50.9591 40.1756 51.3645C40.1756 51.8105 40.5404 52.1348 40.9458 52.1348C41.3918 52.1348 41.7161 51.7699 41.7161 51.3645C41.7161 50.9591 41.3918 50.5942 40.9458 50.5942ZM38.3918 50.7969C37.9053 50.7969 37.5404 51.1618 37.5404 51.6483C37.5404 52.0942 37.9053 52.4996 38.3918 52.4996C38.8783 52.4996 39.2431 52.1348 39.2431 51.6483C39.2431 51.2023 38.8783 50.7969 38.3918 50.7969ZM36.7296 51.6077C36.7296 51.1213 36.3242 50.6753 35.7972 50.6753C35.3107 50.6753 34.9053 51.0807 34.9053 51.6077C34.9053 52.0942 35.3107 52.5402 35.7972 52.5402C36.3242 52.5402 36.7296 52.1348 36.7296 51.6077ZM34.2566 51.2429C34.2566 50.7159 33.8107 50.2699 33.2837 50.2699C32.7566 50.2699 32.3107 50.7159 32.3107 51.2429C32.3107 51.7699 32.7566 52.2159 33.2837 52.2159C33.8107 52.2159 34.2566 51.7699 34.2566 51.2429ZM31.8242 50.5132C31.8242 49.9456 31.3377 49.4591 30.7701 49.4591C30.2026 49.4591 29.7161 49.9456 29.7161 50.5132C29.7161 51.0807 30.2026 51.5672 30.7701 51.5672C31.3783 51.5672 31.8242 51.0807 31.8242 50.5132ZM29.5539 49.4996C29.5539 48.8915 29.0674 48.3645 28.4188 48.3645C27.8107 48.3645 27.2837 48.851 27.2837 49.4996C27.2837 50.1077 27.7701 50.6348 28.4188 50.6348C29.0269 50.5942 29.5539 50.1077 29.5539 49.4996ZM52.4188 15.2023C52.4593 15.2023 52.4999 15.1618 52.4999 15.1213C52.4999 15.0807 52.4593 15.0402 52.4188 15.0402C52.3783 15.0402 52.3377 15.0807 52.3377 15.1213C52.3377 15.1618 52.3783 15.2023 52.4188 15.2023ZM53.5945 17.5537C53.6756 17.5537 53.7161 17.4726 53.7161 17.4321C53.7161 17.351 53.635 17.3105 53.5945 17.3105C53.5134 17.3105 53.4729 17.3915 53.4729 17.4321C53.4729 17.4726 53.5134 17.5537 53.5945 17.5537ZM54.5674 20.0267C54.6891 20.0267 54.7701 19.9456 54.7701 19.824C54.7701 19.7023 54.6891 19.6213 54.5674 19.6213C54.4458 19.6213 54.3647 19.7023 54.3647 19.824C54.3647 19.905 54.4458 20.0267 54.5674 20.0267ZM55.2566 22.5807C55.4188 22.5807 55.5404 22.4591 55.5404 22.2969C55.5404 22.1348 55.4188 22.0132 55.2566 22.0132C55.0945 22.0132 54.9729 22.1348 54.9729 22.2969C54.9729 22.4591 55.0945 22.5807 55.2566 22.5807ZM55.3377 24.851C55.3377 25.0537 55.4999 25.2159 55.7026 25.2159C55.9053 25.2159 56.0674 25.0537 56.0674 24.851C56.0674 24.6483 55.9053 24.4861 55.7026 24.4861C55.4999 24.4861 55.3377 24.6483 55.3377 24.851ZM55.8242 26.9996C55.581 26.9996 55.4188 27.2023 55.4188 27.405C55.4188 27.6483 55.6215 27.8105 55.8242 27.8105C56.0674 27.8105 56.2296 27.6077 56.2296 27.405C56.2701 27.1618 56.0674 26.9996 55.8242 26.9996ZM55.7431 29.5132C55.4593 29.5132 55.2566 29.7159 55.2566 29.9996C55.2566 30.2834 55.4593 30.4861 55.7431 30.4861C56.0269 30.4861 56.2296 30.2834 56.2296 29.9996C56.2296 29.7159 55.9864 29.5132 55.7431 29.5132ZM55.3377 31.9861C55.0134 31.9861 54.7701 32.2294 54.7701 32.5537C54.7701 32.878 55.0134 33.1213 55.3377 33.1213C55.662 33.1213 55.9053 32.878 55.9053 32.5537C55.9053 32.2294 55.662 31.9861 55.3377 31.9861ZM55.2566 35.0267C55.2566 34.6618 54.9729 34.378 54.608 34.378C54.2431 34.378 53.9593 34.6618 53.9593 35.0267C53.9593 35.3915 54.2431 35.6753 54.608 35.6753C54.9729 35.6753 55.2566 35.3915 55.2566 35.0267ZM53.5945 36.6888C53.1891 36.6888 52.9053 37.0132 52.9053 37.378C52.9053 37.7834 53.2296 38.0672 53.5945 38.0672C53.9999 38.0672 54.2837 37.7429 54.2837 37.378C54.3242 37.0132 53.9999 36.6888 53.5945 36.6888ZM52.2972 38.8375C51.8512 38.8375 51.5269 39.2023 51.5269 39.6077C51.5269 40.0537 51.8918 40.378 52.2972 40.378C52.7431 40.378 53.0674 40.0132 53.0674 39.6077C53.0674 39.1618 52.7026 38.8375 52.2972 38.8375ZM50.6756 40.7834C50.2296 40.7834 49.8242 41.1483 49.8242 41.6348C49.8242 42.1213 50.1891 42.4861 50.6756 42.4861C51.162 42.4861 51.5269 42.1213 51.5269 41.6348C51.5269 41.1483 51.1215 40.7834 50.6756 40.7834ZM48.8107 42.4861C48.3242 42.4861 47.8783 42.8915 47.8783 43.4186C47.8783 43.905 48.2837 44.351 48.8107 44.351C49.2972 44.351 49.7431 43.9456 49.7431 43.4186C49.7431 42.8915 49.3377 42.4861 48.8107 42.4861ZM46.7431 43.9456C46.2161 43.9456 45.7701 44.3915 45.7701 44.9186C45.7701 45.4456 46.2161 45.8915 46.7431 45.8915C47.2701 45.8915 47.7161 45.4456 47.7161 44.9186C47.7161 44.3915 47.2701 43.9456 46.7431 43.9456ZM44.4729 45.1213C43.9053 45.1213 43.4188 45.6078 43.4188 46.1753C43.4188 46.7429 43.9053 47.2294 44.4729 47.2294C45.0404 47.2294 45.5269 46.7429 45.5269 46.1753C45.5269 45.6078 45.081 45.1213 44.4729 45.1213ZM42.081 46.0132C41.4729 46.0132 40.9458 46.4996 40.9458 47.1483C40.9458 47.7564 41.4323 48.2834 42.081 48.2834C42.6891 48.2834 43.2161 47.7969 43.2161 47.1483C43.2161 46.5402 42.6891 46.0132 42.081 46.0132ZM34.7431 5.9591C34.7837 5.9591 34.8242 5.91856 34.8242 5.87802C34.8242 5.83748 34.7837 5.79694 34.7431 5.79694C34.7026 5.79694 34.662 5.83748 34.662 5.87802C34.662 5.91856 34.7026 5.9591 34.7431 5.9591ZM37.2161 6.76991C37.2972 6.76991 37.3377 6.68883 37.3377 6.64829C37.3377 6.56721 37.2566 6.52667 37.2161 6.52667C37.135 6.52667 37.0539 6.60775 37.0539 6.64829C37.0539 6.72937 37.135 6.76991 37.2161 6.76991ZM39.5674 7.8645C39.6891 7.8645 39.7701 7.78342 39.7701 7.6618C39.7701 7.54018 39.6891 7.4591 39.5674 7.4591C39.4458 7.4591 39.3647 7.54018 39.3647 7.6618C39.3647 7.78342 39.4458 7.8645 39.5674 7.8645ZM41.8377 9.20234C41.9999 9.20234 42.1215 9.08072 42.1215 8.91856C42.1215 8.7564 41.9999 8.63477 41.8377 8.63477C41.6756 8.63477 41.5539 8.7564 41.5539 8.91856C41.5539 9.08072 41.6756 9.20234 41.8377 9.20234ZM43.9458 10.7834C44.1485 10.7834 44.3107 10.6213 44.3107 10.4186C44.3107 10.2159 44.1485 10.0537 43.9458 10.0537C43.7431 10.0537 43.581 10.2159 43.581 10.4186C43.581 10.6213 43.7431 10.7834 43.9458 10.7834ZM45.8512 12.5672C46.0945 12.5672 46.2566 12.3645 46.2566 12.1618C46.2566 11.9186 46.0539 11.7564 45.8512 11.7564C45.608 11.7564 45.4458 11.9591 45.4458 12.1618C45.4458 12.3645 45.6485 12.5672 45.8512 12.5672ZM47.5945 14.5132C47.8783 14.5132 48.081 14.3104 48.081 14.0267C48.081 13.7429 47.8783 13.5402 47.5945 13.5402C47.3107 13.5402 47.108 13.7429 47.108 14.0267C47.108 14.3104 47.3512 14.5132 47.5945 14.5132ZM49.135 16.6618C49.4593 16.6618 49.7026 16.4186 49.7026 16.0942C49.7026 15.7699 49.4593 15.5267 49.135 15.5267C48.8107 15.5267 48.5674 15.7699 48.5674 16.0942C48.5674 16.4186 48.8107 16.6618 49.135 16.6618ZM50.3918 19.0132C50.7566 19.0132 51.0404 18.7294 51.0404 18.3645C51.0404 17.9996 50.7566 17.7159 50.3918 17.7159C50.0269 17.7159 49.7431 17.9996 49.7431 18.3645C49.7431 18.7294 50.0269 19.0132 50.3918 19.0132ZM50.635 20.7564C50.635 21.1618 50.9593 21.4456 51.3242 21.4456C51.7296 21.4456 52.0134 21.1213 52.0134 20.7564C52.0134 20.351 51.6891 20.0672 51.3242 20.0672C50.9593 20.0672 50.635 20.3915 50.635 20.7564ZM51.2026 23.2699C51.2026 23.7159 51.5674 24.0402 51.9729 24.0402C52.3783 24.0402 52.7431 23.6753 52.7431 23.2699C52.7431 22.824 52.3783 22.4996 51.9729 22.4996C51.5269 22.4996 51.2026 22.8645 51.2026 23.2699ZM51.4053 25.824C51.4053 26.3104 51.7701 26.6753 52.2566 26.6753C52.7431 26.6753 53.108 26.3104 53.108 25.824C53.108 25.3375 52.7431 24.9726 52.2566 24.9726C51.8107 25.0132 51.4053 25.378 51.4053 25.824ZM53.108 28.4186C53.108 27.9321 52.7026 27.4861 52.1756 27.4861C51.6891 27.4861 51.2431 27.8915 51.2431 28.4186C51.2431 28.905 51.6485 29.351 52.1756 29.351C52.7026 29.351 53.108 28.9456 53.108 28.4186ZM52.8242 30.9726C52.8242 30.4456 52.3783 29.9996 51.8512 29.9996C51.3242 29.9996 50.8783 30.4456 50.8783 30.9726C50.8783 31.4996 51.3242 31.9456 51.8512 31.9456C52.3783 31.9456 52.8242 31.4996 52.8242 30.9726ZM52.1756 33.4456C52.1756 32.878 51.6891 32.3915 51.1215 32.3915C50.5539 32.3915 50.0674 32.878 50.0674 33.4456C50.0674 34.0132 50.5539 34.4996 51.1215 34.4996C51.6891 34.4996 52.1756 34.0537 52.1756 33.4456ZM50.0674 34.7023C49.4593 34.7023 48.9323 35.1888 48.9323 35.8375C48.9323 36.4456 49.4188 36.9726 50.0674 36.9726C50.6756 36.9726 51.2026 36.4861 51.2026 35.8375C51.2026 35.1888 50.7161 34.7023 50.0674 34.7023ZM15.7296 11.9186C15.7702 11.9186 15.8107 11.878 15.8107 11.8375C15.8107 11.7969 15.7702 11.7564 15.7296 11.7564C15.6891 11.7564 15.6485 11.7969 15.6485 11.8375C15.6485 11.878 15.6891 11.9186 15.7296 11.9186ZM17.9999 10.7834C18.081 10.7834 18.162 10.7023 18.162 10.6618C18.162 10.5807 18.081 10.5402 17.9999 10.5402C17.9188 10.5402 17.8783 10.6213 17.8783 10.6618C17.8783 10.7023 17.9188 10.7834 17.9999 10.7834ZM20.3918 9.89153C20.5134 9.89153 20.5945 9.81045 20.5945 9.68883C20.5945 9.56721 20.5134 9.48613 20.3918 9.48613C20.2702 9.48613 20.1891 9.56721 20.1891 9.68883C20.1891 9.81045 20.2702 9.89153 20.3918 9.89153ZM22.9053 9.28342C23.0674 9.28342 23.1891 9.1618 23.1891 8.99964C23.1891 8.83748 23.0674 8.71586 22.9053 8.71586C22.7431 8.71586 22.6215 8.83748 22.6215 8.99964C22.6215 9.12126 22.7431 9.28342 22.9053 9.28342ZM25.4188 8.91856C25.6215 8.91856 25.7837 8.7564 25.7837 8.55369C25.7837 8.35099 25.6215 8.18883 25.4188 8.18883C25.2161 8.18883 25.0539 8.35099 25.0539 8.55369C25.0945 8.7564 25.2566 8.91856 25.4188 8.91856ZM28.0134 8.79694C28.2566 8.79694 28.4188 8.59423 28.4188 8.39153C28.4188 8.14829 28.2161 7.98613 28.0134 7.98613C27.7701 7.98613 27.608 8.18883 27.608 8.39153C27.5674 8.63477 27.7701 8.79694 28.0134 8.79694ZM30.608 8.99964C30.8918 8.99964 31.0945 8.79694 31.0945 8.51315C31.0945 8.22937 30.8918 8.02667 30.608 8.02667C30.3242 8.02667 30.1215 8.22937 30.1215 8.51315C30.081 8.79694 30.3242 8.99964 30.608 8.99964ZM33.1215 9.44559C33.4458 9.44559 33.6891 9.20234 33.6891 8.87802C33.6891 8.55369 33.4458 8.31045 33.1215 8.31045C32.7972 8.31045 32.5539 8.55369 32.5539 8.87802C32.5945 9.20234 32.8377 9.44559 33.1215 9.44559ZM35.635 10.2159C35.9999 10.2159 36.2837 9.93207 36.2837 9.56721C36.2837 9.20234 35.9999 8.91856 35.635 8.91856C35.2701 8.91856 34.9864 9.20234 34.9864 9.56721C34.9864 9.93207 35.2701 10.2159 35.635 10.2159ZM37.9864 11.3105C38.3918 11.3105 38.6756 10.9861 38.6756 10.6213C38.6756 10.2159 38.3512 9.93207 37.9864 9.93207C37.581 9.93207 37.2972 10.2564 37.2972 10.6213C37.2972 11.0267 37.6215 11.3105 37.9864 11.3105ZM39.4458 11.9591C39.4458 12.405 39.8107 12.7294 40.2161 12.7294C40.662 12.7294 40.9864 12.3645 40.9864 11.9591C40.9864 11.5132 40.6215 11.1888 40.2161 11.1888C39.7701 11.1888 39.4458 11.5132 39.4458 11.9591ZM42.2026 14.3915C42.6485 14.3915 43.0539 14.0267 43.0539 13.5402C43.0539 13.0942 42.6891 12.6888 42.2026 12.6888C41.7161 12.6888 41.3512 13.0537 41.3512 13.5402C41.3918 14.0267 41.7566 14.3915 42.2026 14.3915ZM44.0269 16.3375C44.5134 16.3375 44.9593 15.9321 44.9593 15.405C44.9593 14.9186 44.5539 14.4726 44.0269 14.4726C43.5404 14.4726 43.0945 14.878 43.0945 15.405C43.0945 15.9321 43.4999 16.3375 44.0269 16.3375ZM45.5269 16.4996C44.9999 16.4996 44.5539 16.9456 44.5539 17.4726C44.5539 17.9996 44.9999 18.4456 45.5269 18.4456C46.0539 18.4456 46.4999 17.9996 46.4999 17.4726C46.5404 16.9456 46.0945 16.4996 45.5269 16.4996ZM45.7296 19.7429C45.7296 20.3104 46.2161 20.7969 46.7837 20.7969C47.3512 20.7969 47.8377 20.3104 47.8377 19.7429C47.8377 19.1753 47.3512 18.6888 46.7837 18.6888C46.2161 18.6888 45.7296 19.1753 45.7296 19.7429ZM46.6215 22.1348C46.6215 22.7429 47.108 23.2699 47.7566 23.2699C48.3647 23.2699 48.8918 22.7834 48.8918 22.1348C48.8918 21.5267 48.4053 20.9996 47.7566 20.9996C47.108 21.0402 46.6215 21.5267 46.6215 22.1348ZM48.3647 23.4726C47.7161 23.4726 47.1891 23.9996 47.1891 24.6888C47.1891 25.3375 47.7161 25.8645 48.3647 25.8645C49.0134 25.8645 49.5404 25.3375 49.5404 24.6888C49.5404 23.9996 49.0134 23.4726 48.3647 23.4726ZM6.48637 29.351C6.40529 29.351 6.36475 29.3915 6.36475 29.4726C6.36475 29.5537 6.44583 29.5942 6.48637 29.5942C6.56745 29.5942 6.60799 29.5537 6.60799 29.4726C6.60799 29.4321 6.56745 29.351 6.48637 29.351ZM7.25664 26.7564C7.09448 26.7564 6.97285 26.878 6.97285 27.0402C6.97285 27.2023 7.09448 27.324 7.25664 27.324C7.4188 27.324 7.54042 27.2023 7.54042 27.0402C7.49988 26.878 7.37826 26.7564 7.25664 26.7564ZM8.67556 24.6483C8.67556 24.4456 8.51339 24.2429 8.27015 24.2429C8.06745 24.2429 7.86475 24.405 7.86475 24.6483C7.86475 24.851 8.02691 25.0537 8.27015 25.0537C8.47285 25.0537 8.67556 24.8915 8.67556 24.6483ZM9.52691 22.9456C9.81069 22.9456 10.0539 22.7023 10.0539 22.4186C10.0539 22.1348 9.81069 21.8915 9.52691 21.8915C9.24312 21.8915 8.99988 22.1348 8.99988 22.4186C8.99988 22.7023 9.24312 22.9456 9.52691 22.9456ZM11.0269 20.9591C11.3918 20.9591 11.6756 20.6753 11.6756 20.3105C11.6756 19.9456 11.3918 19.6618 11.0269 19.6618C10.662 19.6618 10.3783 19.9456 10.3783 20.3105C10.3783 20.6753 10.662 20.9591 11.0269 20.9591ZM12.7296 19.1753C13.1756 19.1753 13.5404 18.8105 13.5404 18.3645C13.5404 17.9186 13.1756 17.5537 12.7296 17.5537C12.2837 17.5537 11.9188 17.9186 11.9188 18.3645C11.9593 18.8105 12.2837 19.1753 12.7296 19.1753ZM14.635 17.5537C15.162 17.5537 15.5674 17.1483 15.5674 16.6213C15.5674 16.0942 15.162 15.6888 14.635 15.6888C14.108 15.6888 13.7026 16.0942 13.7026 16.6213C13.7026 17.1483 14.108 17.5537 14.635 17.5537ZM16.7026 16.1753C17.3107 16.1753 17.7566 15.6888 17.7566 15.1213C17.7566 14.5537 17.2702 14.0672 16.7026 14.0672C16.135 14.0672 15.6485 14.5537 15.6485 15.1213C15.6485 15.6888 16.135 16.1753 16.7026 16.1753ZM18.9729 14.9996C19.6215 14.9996 20.1485 14.4726 20.1485 13.824C20.1485 13.1753 19.6215 12.6483 18.9729 12.6483C18.3242 12.6483 17.7972 13.1753 17.7972 13.824C17.7566 14.4726 18.2837 14.9996 18.9729 14.9996Z" fill="white"/>
<path d="M21.3647 14.1889C22.0133 14.1889 22.5809 13.7024 22.662 13.0537C22.9052 13.4186 23.3512 13.6618 23.8377 13.6618C24.4052 13.6618 24.8917 13.3375 25.135 12.8916C25.4188 13.2564 25.9052 13.5402 26.3917 13.5402C26.8782 13.5402 27.2836 13.3375 27.5674 13.0132C27.8917 13.4591 28.3782 13.7429 28.9863 13.7429C29.3512 13.7429 29.6755 13.6213 29.9593 13.4186C30.0404 13.5402 30.0809 13.6213 30.162 13.7024C29.716 13.7429 29.3512 13.9456 29.0269 14.2294C28.7025 13.9456 28.2566 13.7429 27.7701 13.7429C27.162 13.7429 26.635 14.0267 26.2701 14.5132C25.9863 14.2699 25.6215 14.1483 25.216 14.1483C24.5269 14.1483 23.9188 14.5537 23.635 15.1618C23.4323 14.9591 23.1079 14.8375 22.7431 14.8375C21.9728 14.8375 21.3242 15.3645 21.162 16.0943C20.9188 15.9321 20.635 15.851 20.3512 15.851C19.4998 15.851 18.8106 16.5402 18.8106 17.3916C18.6079 17.2699 18.3647 17.1889 18.0809 17.1889C17.2701 17.1889 16.662 17.8375 16.662 18.6078C16.662 18.7294 16.7025 18.8916 16.7025 19.0132C16.4998 18.8916 16.2566 18.8105 16.0133 18.8105C15.2836 18.8105 14.6755 19.4186 14.6755 20.1483C14.6755 20.8781 15.2836 21.4862 16.0133 21.4862C16.7431 21.4862 17.3512 20.8781 17.3512 20.1483C17.3512 20.0267 17.3512 19.9051 17.3106 19.824C17.5539 19.9862 17.7971 20.0672 18.0809 20.0672C18.8512 20.0672 19.4998 19.4591 19.4998 18.6889C19.7431 18.851 20.0269 18.9321 20.3106 18.9321H20.3917C20.0674 19.2159 19.8647 19.6213 19.8242 20.1078C19.7025 20.1078 19.6215 20.0672 19.4998 20.0672C18.5674 20.0672 17.7971 20.8375 17.7971 21.7699V21.9726H17.5944C16.7025 21.9726 16.0133 22.7024 16.0133 23.5537C16.0133 23.7159 16.0539 23.9186 16.0944 24.0808H16.0133C15.162 24.0808 14.5133 24.7699 14.5133 25.5808C14.5133 25.8645 14.5944 26.1483 14.7566 26.351H14.716C13.9458 26.351 13.2971 26.9997 13.2971 27.7699C13.2971 28.1754 13.4593 28.5402 13.7431 28.824H13.7025C12.9728 28.824 12.3647 29.4321 12.3647 30.1618C12.3647 30.8916 12.9728 31.4997 13.7025 31.4997C14.4323 31.4997 15.0404 30.8916 15.0404 30.1618C15.0404 29.797 14.8782 29.4727 14.635 29.2294H14.716C15.1215 29.2294 15.4863 29.0672 15.7701 28.7835V28.824C15.7701 29.1889 15.8917 29.5132 16.0944 29.797C15.4863 29.9997 15.0404 30.6078 15.0404 31.2564C15.0404 31.7429 15.2431 32.1483 15.6079 32.4321C15.0809 32.6754 14.7566 33.2024 14.7566 33.7699C14.7566 34.3375 15.0809 34.824 15.5674 35.1078C15.1215 35.351 14.7971 35.797 14.7971 36.3645C14.7971 37.0537 15.2836 37.5808 15.8917 37.7429C15.4458 37.9456 15.162 38.3916 15.162 38.9186C15.162 39.6483 15.7701 40.2564 16.4998 40.2564C16.5809 40.2564 16.662 40.2564 16.7431 40.2159C16.216 40.3781 15.8512 40.8645 15.8512 41.3916C15.8512 42.0808 16.4188 42.6483 17.1079 42.6483C17.7971 42.6483 18.3647 42.0808 18.3647 41.3916C18.3647 40.7024 17.7971 40.1348 17.1079 40.1348C17.0269 40.1348 16.9458 40.1348 16.8647 40.1754C17.3917 40.0132 17.7971 39.4862 17.7971 38.9186V38.8375C17.9998 39.0808 18.2836 39.2429 18.5674 39.2835C18.3647 39.5267 18.2025 39.8916 18.2025 40.2564C18.2025 41.0672 18.8512 41.7159 19.662 41.7159H19.7025C19.5404 41.9591 19.4188 42.2429 19.4188 42.5267C19.4188 43.297 20.0674 43.9456 20.8377 43.9456C20.9998 43.9456 21.1215 43.9051 21.2431 43.9051C21.1215 44.1078 21.0404 44.351 21.0404 44.6348C21.0404 45.3645 21.6485 45.9727 22.3782 45.9727C22.7025 45.9727 22.9863 45.851 23.189 45.6889C22.9863 45.8916 22.8647 46.2159 22.8647 46.4997C22.8647 47.1889 23.4323 47.7564 24.1215 47.7564C24.8106 47.7564 25.3782 47.1889 25.3782 46.4997C25.3782 46.1754 25.2566 45.851 25.0133 45.6483C25.1755 45.6483 25.3377 45.6078 25.4998 45.5672C25.4998 46.1754 25.8242 46.7024 26.3512 46.9456C26.2701 46.9456 26.189 46.9051 26.1079 46.9051C25.4593 46.9051 24.9323 47.4321 24.9323 48.0808C24.9323 48.7294 25.4593 49.297 26.1079 49.297C26.7566 49.297 27.3242 48.77 27.3242 48.0808C27.3242 47.6348 27.0809 47.2294 26.6755 47.0267C26.7971 47.0672 26.9188 47.0672 27.0404 47.0672C27.3242 47.0672 27.6079 46.9862 27.8512 46.824C27.9323 47.5943 28.5404 48.1618 29.3106 48.1618C29.716 48.1618 30.1215 47.9997 30.3647 47.7159C30.4863 48.4051 31.0539 48.8916 31.7431 48.8916C32.2701 48.8916 32.7566 48.6078 32.9998 48.1618C33.1215 48.77 33.6485 49.2159 34.2971 49.2159C34.9863 49.2159 35.5539 48.6889 35.635 48.0402C35.6755 48.6889 36.2025 49.2159 36.8917 49.2159C37.5809 49.2159 38.1485 48.6483 38.1485 47.9591C38.1485 47.27 37.5809 46.7024 36.9323 46.7024C37.0539 46.5808 37.135 46.4591 37.216 46.297C37.4998 46.5808 37.9052 46.7835 38.3106 46.7835C38.4728 46.7835 38.635 46.7429 38.7971 46.7024C38.4728 46.9051 38.2701 47.27 38.2701 47.6754C38.2701 48.324 38.7971 48.8916 39.4863 48.8916C40.135 48.8916 40.662 48.3645 40.662 47.6754C40.662 47.0267 40.135 46.4997 39.4863 46.4997C39.3647 46.4997 39.2431 46.5402 39.162 46.5402C39.5269 46.3375 39.7701 45.9727 39.8512 45.5672C40.0944 45.77 40.4593 45.9321 40.7836 45.9321C41.5944 45.9321 42.2836 45.2835 42.2836 44.4727V44.4321C42.5269 44.5943 42.8106 44.7159 43.0944 44.7159C43.8647 44.7159 44.5133 44.0672 44.5133 43.297C44.5133 43.1348 44.5133 43.0132 44.4323 42.8916C44.635 43.0132 44.8782 43.1348 45.162 43.1348C45.8917 43.1348 46.4998 42.5267 46.4998 41.797C46.4998 41.4727 46.3782 41.1889 46.216 40.9862C46.4188 41.1889 46.7025 41.3105 47.0269 41.3105C47.716 41.3105 48.2836 40.7429 48.2836 40.0537C48.2836 39.3645 47.716 38.797 47.0269 38.797C46.7025 38.797 46.3782 38.9186 46.135 39.1618C46.135 38.9997 46.0944 38.8375 46.0539 38.6754C46.662 38.6754 47.189 38.351 47.4323 37.824C47.4323 37.9051 47.3917 37.9862 47.3917 38.0672C47.3917 38.7159 47.9188 39.2429 48.6079 39.2429C49.2566 39.2429 49.8242 38.7159 49.8242 38.0672C49.8242 37.4186 49.2971 36.8916 48.6079 36.8916C48.162 36.8916 47.7566 37.1348 47.5539 37.5402C47.5944 37.4186 47.5944 37.297 47.5944 37.1754C47.5944 36.8916 47.5133 36.6078 47.3512 36.3645C48.1215 36.324 48.689 35.6754 48.689 34.9051C48.689 34.4997 48.5269 34.0943 48.2431 33.851C48.9323 33.7294 49.4188 33.1618 49.4188 32.4727C49.4188 31.9456 49.135 31.4591 48.689 31.2159C49.2971 31.0943 49.7431 30.5672 49.7431 29.9186C49.7431 29.2294 49.216 28.6618 48.5269 28.5808C49.1755 28.5402 49.7025 27.9727 49.7025 27.324C49.7025 26.6348 49.135 26.0672 48.4458 26.0672C47.7566 26.0672 47.189 26.6348 47.189 27.324C47.189 27.9727 47.6755 28.4997 48.3242 28.5808C47.635 28.6213 47.0674 29.1889 47.0674 29.9186C47.0674 30.4051 47.3512 30.851 47.7566 31.0943C47.1079 31.2159 46.5809 31.7835 46.5809 32.4727C46.5809 32.8781 46.7431 33.2024 46.9863 33.4456C46.2566 33.5267 45.689 34.1754 45.689 34.9051C45.689 35.1889 45.7701 35.4321 45.8917 35.6348C45.0809 35.6754 44.4323 36.3645 44.4323 37.1754C44.4323 37.3375 44.4728 37.4997 44.5133 37.6213H44.4323C43.5404 37.6213 42.8106 38.351 42.8106 39.2429V39.3645C42.7296 39.3645 42.6485 39.324 42.5674 39.324C41.716 39.324 41.0269 39.9727 40.9052 40.7835C40.7431 40.7429 40.6215 40.7024 40.4593 40.7024C39.7701 40.7024 39.162 41.1078 38.8782 41.7159C38.5133 41.4321 38.0674 41.3105 37.6215 41.3916C37.0944 41.4727 36.689 41.8375 36.4863 42.2835C36.162 41.9186 35.6755 41.7159 35.1485 41.797C34.6215 41.8781 34.216 42.1618 34.0133 42.6078C33.7296 42.2429 33.2836 42.0402 32.7971 42.0402C32.3512 42.0402 31.9458 42.2429 31.662 42.5267C31.4998 42.1213 31.135 41.797 30.689 41.6754C30.2025 41.5132 29.716 41.6348 29.3512 41.8781C29.2296 41.4321 28.9458 41.0267 28.4998 40.824C28.0539 40.6213 27.6079 40.6213 27.2025 40.824C27.2025 40.3781 26.9998 39.9727 26.635 39.6483C26.2701 39.3645 25.8242 39.2835 25.4188 39.324C25.5404 38.8781 25.4188 38.4321 25.135 38.0267C24.8512 37.6213 24.3647 37.4186 23.9188 37.4186C24.0809 37.0132 24.0809 36.5267 23.8782 36.0808C23.6755 35.6754 23.3106 35.4321 22.9052 35.3105C23.1485 34.9862 23.2701 34.5402 23.189 34.1348C23.1079 33.6483 22.8242 33.2429 22.4188 33.0402C22.7836 32.7564 23.0269 32.3105 23.0269 31.7835C23.0269 31.3375 22.8242 30.9321 22.4998 30.6483C22.9052 30.4456 23.189 30.0808 23.3106 29.6348C23.4323 29.1889 23.3106 28.7429 23.0674 28.3781C23.4728 28.297 23.8377 28.0132 24.0809 27.6483C24.3242 27.2429 24.3647 26.7564 24.2025 26.351C24.6485 26.3916 25.0944 26.1889 25.4188 25.824C25.7431 25.4591 25.8647 25.0132 25.7836 24.5672C26.189 24.6889 26.6755 24.6078 27.0404 24.324C27.4458 24.0402 27.6485 23.6348 27.689 23.1889C28.0944 23.3916 28.5809 23.4321 29.0269 23.2294C29.4323 23.0672 29.7566 22.7024 29.8782 22.3375C30.2025 22.6213 30.6079 22.7835 31.0539 22.7429C31.5404 22.7024 31.9863 22.4186 32.2296 22.0132C32.4728 22.3781 32.9188 22.6213 33.3647 22.6618C33.8106 22.7024 34.2566 22.5402 34.5404 22.2159C34.7025 22.6213 35.0269 22.9456 35.5133 23.1078C35.9593 23.2699 36.4863 23.1889 36.8512 22.9456C36.9323 23.3916 37.216 23.797 37.6215 24.0402C37.9863 24.2429 38.3512 24.2835 38.716 24.2024C38.7566 24.2429 38.7971 24.324 38.8377 24.3645C38.8377 24.6889 38.9998 25.0132 39.2431 25.297L39.2836 25.3375C40.0539 26.1483 41.9188 28.1754 41.5539 30.851C41.4728 31.5402 41.8377 31.8645 42.3242 31.3375C45.2431 28.2159 44.7971 24.324 44.716 23.8781C44.716 23.5943 44.635 23.3105 44.5133 23.0267C44.5539 22.8645 44.5539 22.7024 44.5539 22.5402C44.5539 21.7294 44.1485 20.9997 43.5809 20.5537C43.6215 20.3916 43.6215 20.2699 43.6215 20.1078C43.6215 19.0943 43.0133 18.2429 42.1215 17.8781C42.0809 16.7429 41.2701 15.851 40.1755 15.6483C39.9728 14.6348 39.1215 13.8645 38.0269 13.8645H37.9052C37.6215 13.0537 36.8512 12.4456 35.9593 12.4456C35.7971 12.4456 35.5944 12.4862 35.4323 12.5267C35.1079 11.8375 34.4593 11.3916 33.6485 11.3916C33.3242 11.3916 33.0404 11.4726 32.7971 11.5943C32.4728 11.0672 31.9052 10.7024 31.216 10.7024C30.7701 10.7024 30.4052 10.8645 30.0809 11.1078C29.7566 10.6618 29.2701 10.3781 28.7025 10.3781C28.1755 10.3781 27.689 10.6213 27.3647 11.0267C27.0809 10.6618 26.635 10.4186 26.1079 10.4186C25.4593 10.4186 24.8917 10.7835 24.6485 11.351C24.3647 11.0267 23.9998 10.824 23.5133 10.824C22.7431 10.824 22.135 11.3916 22.0539 12.1213C21.8106 11.797 21.4458 11.5943 20.9998 11.5943C20.2701 11.5943 19.662 12.2024 19.662 12.9321C20.0269 13.5808 20.635 14.1889 21.3647 14.1889ZM12.4458 48.4051C12.4052 48.4051 12.3647 48.4456 12.3647 48.5267C12.3647 48.5672 12.4052 48.6483 12.4458 48.6483C12.4863 48.6483 12.5674 48.6078 12.5674 48.5267C12.5269 48.4456 12.4863 48.4051 12.4458 48.4051ZM11.2296 46.0132C11.1079 46.0132 11.0269 46.0943 11.0269 46.2159C11.0269 46.3375 11.1079 46.4186 11.2296 46.4186C11.3512 46.4186 11.4323 46.3375 11.4323 46.2159C11.4323 46.1348 11.3512 46.0132 11.2296 46.0132ZM10.2971 43.5402C10.135 43.5402 9.9728 43.6618 9.9728 43.8645C9.9728 44.0267 10.0944 44.1889 10.2971 44.1889C10.4593 44.1889 10.6215 44.0672 10.6215 43.8645C10.5809 43.6618 10.4593 43.5402 10.2971 43.5402ZM9.5674 40.9456C9.32416 40.9456 9.16199 41.1483 9.16199 41.351C9.16199 41.5943 9.32416 41.7564 9.5674 41.7564C9.81064 41.7564 9.9728 41.5943 9.9728 41.351C10.0133 41.1078 9.81064 40.9456 9.5674 40.9456ZM9.64848 38.797C9.64848 38.5132 9.40524 38.27 9.12145 38.27C8.83767 38.27 8.59443 38.5132 8.59443 38.797C8.59443 39.0808 8.83767 39.324 9.12145 39.324C9.44578 39.324 9.64848 39.0808 9.64848 38.797ZM9.60794 36.2429C9.60794 35.9186 9.32416 35.6348 8.99983 35.6348C8.67551 35.6348 8.39172 35.9186 8.39172 36.2429C8.39172 36.5672 8.67551 36.851 8.99983 36.851C9.32416 36.851 9.60794 36.5672 9.60794 36.2429ZM8.39172 33.6483C8.39172 34.0537 8.71605 34.3781 9.12145 34.3781C9.52686 34.3781 9.85118 34.0537 9.85118 33.6483C9.85118 33.2429 9.52686 32.9186 9.12145 32.9186C8.71605 32.9186 8.39172 33.2429 8.39172 33.6483ZM9.48632 31.9051C9.93226 31.9051 10.2971 31.5402 10.2971 31.0943C10.2971 30.6483 9.93226 30.2835 9.48632 30.2835C9.04037 30.2835 8.67551 30.6483 8.67551 31.0943C8.67551 31.5402 9.04037 31.9051 9.48632 31.9051ZM10.216 27.6889C9.68902 27.6889 9.28362 28.0943 9.28362 28.6213C9.28362 29.1483 9.68902 29.5537 10.216 29.5537C10.7431 29.5537 11.1485 29.1483 11.1485 28.6213C11.1079 28.0943 10.7025 27.6889 10.216 27.6889ZM11.2296 27.2835C11.7971 27.2835 12.2431 26.8375 12.2431 26.2699C12.2431 25.7024 11.7971 25.2564 11.2296 25.2564C10.662 25.2564 10.216 25.7024 10.216 26.2699C10.216 26.797 10.662 27.2835 11.2296 27.2835Z" fill="white"/>
<path d="M12.5674 25.1756C13.1755 25.1756 13.7025 24.6891 13.7025 24.0404C13.7025 23.4323 13.216 22.9053 12.5674 22.9053C11.9593 22.9053 11.4323 23.3918 11.4323 24.0404C11.4323 24.6485 11.9187 25.1756 12.5674 25.1756ZM15.4052 22.0134C15.4052 21.3242 14.8377 20.7972 14.189 20.7972C13.4998 20.7972 12.9728 21.3647 12.9728 22.0134C12.9728 22.7026 13.5404 23.2296 14.189 23.2296C14.8377 23.2702 15.4052 22.7026 15.4052 22.0134Z" fill="white"/>
</g>
<defs>
<clipPath id="clip0_120_159993">
<rect width="52.7027" height="52.7027" fill="white" transform="translate(5.99982 5.51364)"/>
</clipPath>
</defs>
</svg>
