<svg width="64" height="64" viewBox="0 0 64 64" fill="none" xmlns="http://www.w3.org/2000/svg">
<g clip-path="url(#clip0_120_159995)">
<path d="M38.5253 17.3973H35.1306V22.385H38.5253V17.3973Z" fill="#1682FE"/>
<path d="M28.7828 8.14862H25.3881V13.1363H28.7828V8.14862Z" fill="#1682FE"/>
<path d="M19.0398 12.9051H15.6451V17.8928H19.0398V12.9051Z" fill="#60D8A4"/>
<path d="M14.1854 31.8649H10.7567V46.1012H14.1854V31.8649Z" fill="#F4BB3B"/>
<path d="M14.1854 17.6285H10.7567V31.8648H14.1854V17.6285Z" fill="#60D8A4"/>
<path d="M43.3798 22.1538H39.9851V27.1414H43.3798V22.1538Z" fill="#1682FE"/>
<path d="M43.3798 36.5883H39.9851V41.576H43.3798V36.5883Z" fill="#FF5A5A"/>
<path d="M38.5253 41.3448H35.1306V46.3324H38.5253V41.3448Z" fill="#FF5A5A"/>
<path d="M28.7828 50.5934H25.3881V55.5811H28.7828V50.5934Z" fill="#FF5A5A"/>
<path d="M19.0398 45.837H15.6451V50.8246H19.0398V45.837Z" fill="#F4BB3B"/>
<path d="M52.9189 27.1084V17.6285H48.0305V12.9051H38.2877V8.14865H28.5449V12.9051H18.8022V17.6616H13.9138V46.1012H18.8022V50.8577H28.5449V55.6141H38.2877V50.8577H48.0305V46.1012H52.9189V36.5883H43.1761V41.3447H38.2877V46.1012H28.5449V41.3447H23.6905V22.385H28.5789V17.6285H38.3217V22.385H43.21V27.1414H52.9189V27.1084Z" fill="#3A3A3A"/>
</g>
<defs>
<clipPath id="clip0_120_159995">
<rect width="42.1622" height="47.4324" fill="white" transform="translate(10.7567 8.14865)"/>
</clipPath>
</defs>
</svg>
