<svg width="64" height="64" viewBox="0 0 64 64" fill="none" xmlns="http://www.w3.org/2000/svg">
<path d="M32.0809 58.2161C46.6344 58.2161 58.4323 46.4182 58.4323 31.8648C58.4323 17.3113 46.6344 5.5134 32.0809 5.5134C17.5275 5.5134 5.72955 17.3113 5.72955 31.8648C5.72955 46.4182 17.5275 58.2161 32.0809 58.2161Z" fill="black"/>
<path d="M31.911 12.7567C31.6705 12.2132 32.5401 11.8278 32.7806 12.345C38.4329 22.0818 44.0853 31.8235 49.7377 41.5752C49.4363 41.5752 49.1464 41.4764 48.8565 41.4303L33.7704 38.4229C33.2763 38.3982 33.1676 37.5994 33.6502 37.4809L39.5693 35.8504C39.6399 35.8325 39.7056 35.7992 39.7618 35.753C39.818 35.7068 39.8633 35.6487 39.8945 35.5829C39.9256 35.5172 39.9419 35.4453 39.942 35.3725C39.9422 35.2998 39.9263 35.2278 39.8954 35.1619L31.911 12.7435V12.755V12.7567Z" fill="white"/>
<path d="M31.0433 12.8083C31.0976 12.8873 31.1454 12.973 31.1865 13.0619C32.9751 18.1345 34.8099 23.2072 36.5853 28.2798C36.7434 28.7014 36.1505 29.0522 35.8606 28.7377C34.3388 27.1434 32.8895 25.5014 31.3924 23.9071C31.1503 23.6897 30.7995 23.8347 30.6431 24.0636L15.0875 42.3382C14.9064 42.5309 14.7499 42.8208 14.4469 42.857C14.2295 42.857 14.0845 42.6874 13.9643 42.5194V42.2394C19.6644 32.4334 25.358 22.6241 31.0433 12.8083Z" fill="white"/>
<path d="M26.2837 30.2105C26.5736 30.1265 26.959 30.3308 26.8635 30.6816C26.259 32.7831 25.62 34.8731 24.9909 36.9614C24.8954 37.2282 25.1358 37.4687 25.3895 37.4819C33.5304 39.1123 41.6713 40.8021 49.8106 42.4326C49.9687 42.4573 50.0774 42.5776 50.1976 42.6747V43.0123L49.967 43.2545H15.4138C19.0371 38.9065 22.6489 34.5338 26.2837 30.2105Z" fill="white"/>
</svg>
