<svg width="64" height="64" viewBox="0 0 64 64" fill="none" xmlns="http://www.w3.org/2000/svg">
<path d="M32.3246 58.216C46.878 58.216 58.6759 46.4181 58.6759 31.8646C58.6759 17.3112 46.878 5.51328 32.3246 5.51328C17.7711 5.51328 5.97321 17.3112 5.97321 31.8646C5.97321 46.4181 17.7711 58.216 32.3246 58.216Z" fill="#2E3148"/>
<path d="M32.3247 47.1549C40.7693 47.1549 47.615 40.3091 47.615 31.8645C47.615 23.4199 40.7693 16.5742 32.3247 16.5742C23.8801 16.5742 17.0344 23.4199 17.0344 31.8645C17.0344 40.3091 23.8801 47.1549 32.3247 47.1549Z" fill="#1B1E36"/>
<path d="M32.3789 8.875C29.5344 8.875 27.2279 19.1921 27.2279 31.9189C27.2279 44.6458 29.5344 54.9629 32.3789 54.9629C35.2234 54.9629 37.5298 44.6458 37.5298 31.9189C37.5298 19.1921 35.2234 8.875 32.3789 8.875ZM32.7345 53.6624C32.4092 54.0962 32.084 53.7708 32.084 53.7708C30.774 52.2529 30.119 49.4331 30.119 49.4331C27.8277 42.0592 28.3731 26.2266 28.3731 26.2266C29.4499 13.6572 31.4087 10.688 32.0753 10.0288C32.1434 9.96149 32.233 9.92038 32.3284 9.91266C32.4238 9.90495 32.5189 9.93113 32.5969 9.98661C33.5641 10.672 34.3753 13.5381 34.3753 13.5381C36.7707 22.4303 36.5538 30.7804 36.5538 30.7804C36.7707 38.0459 35.3534 46.179 35.3534 46.179C34.2625 52.36 32.7345 53.6624 32.7345 53.6624Z" fill="#6F7390"/>
<path d="M52.367 20.4511C50.9508 17.9829 40.8548 21.1169 29.8102 27.45C18.7656 33.7832 10.9749 40.9185 12.3901 43.3857C13.8052 45.8528 23.9022 42.7199 34.9468 36.3867C45.9914 30.0536 53.7822 22.9182 52.367 20.4511ZM13.6967 43.0471C13.1545 42.9788 13.2769 42.5331 13.2769 42.5331C13.9421 40.642 16.0586 38.6704 16.0586 38.6704C21.3168 33.0131 35.3223 25.6076 35.3223 25.6076C46.7596 20.2863 50.3122 20.5108 51.2134 20.7589C51.3059 20.7847 51.3863 20.8425 51.4403 20.9219C51.4944 21.0013 51.5185 21.0972 51.5086 21.1928C51.4002 22.3733 49.3125 24.5025 49.3125 24.5025C42.796 31.0079 35.4448 34.9758 35.4448 34.9758C29.2505 38.7809 21.4906 41.5971 21.4906 41.5971C15.586 43.7248 13.6969 43.0471 13.6969 43.0471H13.6967Z" fill="#6F7390"/>
<path d="M52.3165 43.468C53.7437 41.0064 45.9726 33.8385 34.9668 27.4577C23.9611 21.0769 13.8665 17.9042 12.4405 20.37C11.0146 22.8359 18.7844 29.9996 29.7965 36.3804C40.8086 42.7612 50.8906 45.9341 52.3165 43.468ZM13.3862 21.3212C13.1754 20.8214 13.6204 20.701 13.6204 20.701C15.5907 20.3289 18.3582 21.1768 18.3582 21.1768C25.8873 22.8913 39.3127 31.3009 39.3127 31.3009C49.6493 38.534 51.2346 41.72 51.4722 42.6244C51.4964 42.7171 51.487 42.8155 51.4457 42.902C51.4044 42.9885 51.3339 43.0576 51.2466 43.0972C50.1688 43.5907 47.2819 42.8554 47.2819 42.8554C38.3843 40.4697 31.2684 36.0986 31.2684 36.0986C24.8747 32.6501 18.5525 27.3441 18.5525 27.3441C13.7486 23.2992 13.3877 21.3267 13.3877 21.3267L13.3862 21.3212Z" fill="#6F7390"/>
<path d="M32.3247 34.576C33.822 34.576 35.0357 33.3623 35.0357 31.865C35.0357 30.3678 33.822 29.154 32.3247 29.154C30.8274 29.154 29.6137 30.3678 29.6137 31.865C29.6137 33.3623 30.8274 34.576 32.3247 34.576Z" fill="#B7B9C8"/>
<path d="M43.4399 23.0806C44.3084 23.0806 45.0124 22.3524 45.0124 21.454C45.0124 20.5557 44.3084 19.8274 43.4399 19.8274C42.5715 19.8274 41.8675 20.5557 41.8675 21.454C41.8675 22.3524 42.5715 23.0806 43.4399 23.0806Z" fill="#B7B9C8"/>
<path d="M17.6306 28.6115C18.499 28.6115 19.203 27.8832 19.203 26.9849C19.203 26.0865 18.499 25.3583 17.6306 25.3583C16.7622 25.3583 16.0582 26.0865 16.0582 26.9849C16.0582 27.8832 16.7622 28.6115 17.6306 28.6115Z" fill="#B7B9C8"/>
<path d="M29.1253 48.5647C29.9937 48.5647 30.6978 47.8365 30.6978 46.9381C30.6978 46.0398 29.9937 45.3116 29.1253 45.3116C28.2568 45.3116 27.5528 46.0398 27.5528 46.9381C27.5528 47.8365 28.2568 48.5647 29.1253 48.5647Z" fill="#B7B9C8"/>
</svg>
