<svg width="65" height="64" viewBox="0 0 65 64" fill="none" xmlns="http://www.w3.org/2000/svg">
<path d="M11.4635 27.1344C10.6998 27.1344 10.3604 27.4687 10.3604 28.1374C10.3604 28.1374 10.3604 43.1902 10.3604 45.3635C10.3604 46.1159 10.6998 46.3666 11.4635 46.3666C19.8689 46.4502 30.1389 39.0921 38.6292 33.3222V13.4191C30.226 19.1054 19.6992 27.2179 11.4635 27.1344Z" fill="url(#paint0_linear_120_159998)"/>
<path d="M55.6917 34.9108C56.4555 34.9108 56.7949 34.5764 56.7949 33.9077C56.7949 33.9077 56.7949 18.8548 56.7949 16.6814C56.7949 15.9291 56.4555 15.6783 55.6917 15.6783C47.2015 15.5947 37.0163 22.9529 28.5261 28.7229V48.5426C36.9315 42.8563 47.4583 34.7436 55.6917 34.9108Z" fill="url(#paint1_linear_120_159998)"/>
<path d="M38.629 33.3223V21.9495C35.1476 24.1229 31.6684 26.4656 28.4416 28.639V40.0118C32.0079 37.8384 35.4044 35.4957 38.629 33.3223Z" fill="#194AAD"/>
<defs>
<linearGradient id="paint0_linear_120_159998" x1="27.0807" y1="43.9154" x2="22.274" y2="16.2618" gradientUnits="userSpaceOnUse">
<stop offset="0.1" stop-color="#194AAD"/>
<stop offset="0.5" stop-color="#248FCB"/>
<stop offset="0.8" stop-color="#2BBFDF"/>
</linearGradient>
<linearGradient id="paint1_linear_120_159998" x1="45.799" y1="13.858" x2="39.4428" y2="50.4481" gradientUnits="userSpaceOnUse">
<stop offset="0.1" stop-color="#194AAD"/>
<stop offset="0.5" stop-color="#248FCB"/>
<stop offset="0.8" stop-color="#2BBFDF"/>
</linearGradient>
</defs>
</svg>
