<svg width="64" height="64" viewBox="0 0 64 64" fill="none" xmlns="http://www.w3.org/2000/svg">
<path d="M59.0095 31.8646C59.0095 17.3112 47.2116 5.51328 32.6581 5.51328C18.1047 5.51328 6.30679 17.3112 6.30679 31.8646C6.30679 46.4181 18.1047 58.216 32.6581 58.216C47.2116 58.216 59.0095 46.4181 59.0095 31.8646Z" fill="#010427"/>
<path d="M33.6168 23.3456V16.5332C24.8806 16.5332 17.806 23.6859 17.806 32.1041C17.806 40.5226 24.881 47.6757 33.6168 47.6757V40.8633C28.9539 40.8633 24.7233 37.9437 24.7233 32.1045C24.7233 26.2652 28.9539 23.3456 33.6168 23.3456Z" fill="white"/>
<path d="M43.2058 23.9813C42.6971 23.9813 42.1935 23.8822 41.7236 23.6896C41.2536 23.497 40.8266 23.2146 40.4669 22.8587C40.1073 22.5028 39.822 22.0802 39.6273 21.6152C39.4327 21.1502 39.3325 20.6517 39.3325 20.1484C39.3325 19.6451 39.4327 19.1467 39.6273 18.6816C39.822 18.2166 40.1073 17.794 40.4669 17.4381C40.8266 17.0822 41.2536 16.7999 41.7236 16.6073C42.1935 16.4146 42.6971 16.3155 43.2058 16.3155C44.233 16.3155 45.2182 16.7193 45.9446 17.4381C46.671 18.1569 47.079 19.1319 47.079 20.1484C47.079 21.165 46.671 22.1399 45.9446 22.8587C45.2182 23.5775 44.233 23.9813 43.2058 23.9813Z" fill="#00DCD7"/>
<path d="M43.2058 47.8936C42.1785 47.8936 41.1933 47.4898 40.4669 46.771C39.7406 46.0522 39.3325 45.0773 39.3325 44.0607C39.3325 43.0442 39.7406 42.0692 40.4669 41.3504C41.1933 40.6316 42.1785 40.2278 43.2058 40.2278C44.233 40.2278 45.2182 40.6316 45.9446 41.3504C46.671 42.0692 47.079 43.0442 47.079 44.0607C47.079 45.0773 46.671 46.0522 45.9446 46.771C45.2182 47.4898 44.233 47.8936 43.2058 47.8936Z" fill="#FF318B"/>
<path d="M33.9352 40.5976V23.6108C38.6779 23.6108 42.6231 27.3856 42.5158 32.1035C42.6231 36.8227 38.6783 40.5976 33.9352 40.5976Z" fill="white"/>
</svg>
