<svg width="64" height="64" viewBox="0 0 64 64" fill="none" xmlns="http://www.w3.org/2000/svg">
<ellipse cx="32.0539" cy="31.8647" rx="18.4459" ry="18.4459" fill="white"/>
<path fill-rule="evenodd" clip-rule="evenodd" d="M32.054 5.53558C17.483 5.53558 5.70262 17.3992 5.70262 31.9972C5.70262 46.5952 17.483 58.4588 32.054 58.4588C46.6228 58.4588 58.4053 46.6261 58.4053 31.9972C58.4053 17.3992 46.5909 5.53558 32.054 5.53558ZM34.1736 33.2453L43.4104 42.5201C43.5878 42.6949 43.7256 42.9081 43.8141 43.1445C43.9025 43.3808 43.9394 43.6345 43.9221 43.8873C43.9048 44.1402 43.8337 44.386 43.714 44.607C43.5942 44.8281 43.4287 45.0191 43.2293 45.1663C40.2716 47.5027 36.6522 48.7645 32.9316 48.7562C23.0898 48.7562 15.2121 40.1782 16.3646 30.0809C17.2124 22.3255 23.4818 16.0894 31.2338 15.3286C35.5493 14.8758 39.8698 16.1369 43.3209 18.8568C43.5097 19.0069 43.6647 19.1977 43.7751 19.416C43.8855 19.6343 43.9486 19.8749 43.9602 20.121C43.9717 20.3671 43.9314 20.6129 43.842 20.8413C43.7526 21.0696 43.6162 21.2751 43.4424 21.4434L34.1736 30.7491C34.0085 30.909 33.8768 31.1022 33.7868 31.3169C33.6968 31.5316 33.6504 31.7632 33.6504 31.9972C33.6504 32.2312 33.6968 32.4628 33.7868 32.6775C33.8768 32.8922 34.0085 33.0854 34.1736 33.2453Z" fill="#69E2DC"/>
</svg>
