<svg width="64" height="64" viewBox="0 0 64 64" fill="none" xmlns="http://www.w3.org/2000/svg">
<path d="M32.1972 5.51328L9.37104 18.689V45.0403L32.1972 58.216L55.0234 45.0403V18.689L32.1972 5.51328Z" fill="url(#paint0_linear_120_160001)"/>
<path d="M32.1972 5.51328L9.37104 18.689V45.0403L32.1972 58.216V5.51328Z" fill="url(#paint1_linear_120_160001)"/>
<path d="M41.0963 16.8976H23.1821L21.1018 26.0281H43.2923L41.0963 16.8976ZM26.3605 38.5682V32.5004L21.044 29.1487L15.0341 33.5984L23.2399 47.8721H26.5338L30.4056 44.2314V42.44L26.3605 38.5682Z" fill="white"/>
<path d="M37.9759 27.4149H26.4184L28.3254 32.5002L27.7475 38.2211H36.6468L36.0689 32.5002L37.9759 27.4149Z" fill="white"/>
<path d="M43.2932 29.0905L38.0345 32.5V38.5677L34.0471 42.4395V44.2309L37.9189 47.8138H41.1551L49.3032 33.598L43.2932 29.0905Z" fill="white"/>
<defs>
<linearGradient id="paint0_linear_120_160001" x1="32.177" y1="5.51328" x2="32.177" y2="58.1836" gradientUnits="userSpaceOnUse">
<stop stop-color="#25376C"/>
<stop offset="1" stop-color="#1F1F49"/>
</linearGradient>
<linearGradient id="paint1_linear_120_160001" x1="20.7755" y1="58.1836" x2="20.7755" y2="5.51328" gradientUnits="userSpaceOnUse">
<stop stop-color="#25376C"/>
<stop offset="1" stop-color="#1F1F49"/>
</linearGradient>
</defs>
</svg>
