<svg width="65" height="64" viewBox="0 0 65 64" fill="none" xmlns="http://www.w3.org/2000/svg">
<path d="M20.0136 8.67548L23.2248 16.6233C18.1 19.7625 14.6801 25.4143 14.6801 31.8645C14.6801 41.7286 22.6764 49.7248 32.5405 49.7248C33.8477 49.7256 35.1511 49.5833 36.4273 49.3006L39.6385 57.2486C37.3275 57.8924 34.9395 58.2178 32.5405 58.2157C17.9872 58.2157 6.18915 46.4178 6.18915 31.8645C6.18915 21.8453 11.7806 13.1323 20.0136 8.67548Z" fill="#FE4040"/>
<path d="M32.5405 41.2341C27.3659 41.2341 23.171 37.0393 23.171 31.8646C23.171 26.69 27.3659 22.4952 32.5405 22.4952C36.1868 22.4952 39.3468 24.5769 40.8939 27.6192H49.8922C47.987 19.8047 40.9406 14.0042 32.5395 14.0042C31.2323 14.0034 29.9289 14.1457 28.6526 14.4285L25.4425 6.48038C27.7535 5.83661 30.1415 5.51124 32.5405 5.51328C47.0939 5.51328 58.892 17.3113 58.892 31.8646C58.892 41.8837 53.3005 50.597 45.0675 55.0538L41.8563 47.106C45.819 44.6788 48.7622 40.7493 49.8935 36.1101H40.8939C40.1096 37.6515 38.9141 38.9459 37.4399 39.8502C35.9656 40.7545 34.27 41.2335 32.5405 41.2341Z" fill="#00C46B"/>
</svg>
