<svg width="64" height="64" viewBox="0 0 64 64" fill="none" xmlns="http://www.w3.org/2000/svg">
<path d="M39.1409 9.99295H19.9567L18.3657 18.882L35.6818 18.9025C44.2116 18.9025 46.7264 22.0023 46.6545 27.1346C46.6135 29.7623 45.4741 34.217 44.9814 35.6643C43.6676 39.5135 40.968 43.8964 30.8473 43.8861L14.0136 43.8759L12.4226 52.7751H31.5658C38.3198 52.7751 41.1836 51.9848 44.2321 50.5888C50.9759 47.4581 54.9893 40.8068 56.6008 32.1231C58.9924 19.1899 56.0157 9.99295 39.1409 9.99295Z" fill="#008DE4"/>
<path d="M11.6733 26.919C6.64371 26.919 5.9252 30.1934 5.45303 32.1744C4.8269 34.761 4.62161 35.8183 4.62161 35.8183H24.2677C29.2973 35.8183 30.0158 32.5439 30.488 30.5629C31.1141 27.9762 31.3194 26.919 31.3194 26.919H11.6733Z" fill="#008DE4"/>
</svg>
