<svg width="300" height="111" viewBox="0 0 300 111" fill="none" xmlns="http://www.w3.org/2000/svg">
<g clip-path="url(#clip0_120_160026)">
<path d="M1.66628 36.3279L6.10352e-05 50.357V108.582C6.10352e-05 109.634 0.852851 110.487 1.90482 110.487H298.095C299.147 110.487 300 109.634 300 108.582V45.8255C300 44.9089 298.73 44.6745 298.402 45.5306C298.277 45.8593 297.957 46.0723 297.605 46.0613L297.265 46.0506C296.733 46.0338 296.245 46.3415 296.03 46.828L295.142 48.8428C294.89 49.4146 294.115 49.5023 293.742 49.0014C293.341 48.4636 292.498 48.6128 292.306 49.2557L291.012 53.5933C290.98 53.7001 290.933 53.8022 290.874 53.8965C290.273 54.848 288.815 54.5531 288.631 53.4429L287.565 46.9929C287.436 46.211 286.829 45.5946 286.049 45.453L285.951 45.4351C285.683 45.3865 285.434 45.2667 285.228 45.0882C284.476 44.4338 283.307 44.6737 282.873 45.5715L281.928 47.5285L280.12 50.4119C279.502 51.5585 277.79 51.3136 277.518 50.0395L277.398 49.4764C277.115 48.1546 275.309 47.9621 274.754 49.1947C274.717 49.2766 274.688 49.3618 274.668 49.4492L272.931 56.8551C272.904 56.9664 272.868 57.075 272.823 57.1798L271.932 59.2273C271.589 60.0175 270.485 60.0634 270.077 59.3044C269.711 58.6246 268.756 58.572 268.318 59.2076L267.56 60.3079C267.5 60.3952 267.45 60.489 267.411 60.5875C266.895 61.8885 265.002 61.7188 264.726 60.3469L264.462 59.0338C264.242 57.9421 262.804 57.6752 262.207 58.6154C262.103 58.7804 262.039 58.9678 262.02 59.1623L260.263 77.9188C260.248 78.0749 260.214 78.2286 260.162 78.3765L259.015 81.6189C258.79 82.2526 257.922 82.3218 257.6 81.7315C257.259 81.1051 256.324 81.2313 256.161 81.9258L255.883 83.1105C255.637 84.1605 254.133 84.1323 253.926 83.0738C253.718 82.0103 252.204 81.9889 251.966 83.0461L251.205 86.4323L249.568 91.4935C249.456 91.8373 249.25 92.1424 248.972 92.3732L247.931 93.2368C247.707 93.4228 247.528 93.6576 247.409 93.9233L246.092 96.8599C245.894 97.303 245.533 97.6534 245.085 97.8396L244.678 98.0088C244.227 98.1959 243.865 98.5489 243.667 98.9949L242.253 102.18C242.197 102.307 242.127 102.427 242.044 102.539L241.01 103.938C240.612 104.477 239.945 104.747 239.284 104.637C238.817 104.56 238.4 104.299 238.125 103.913L237.397 102.892C237.055 102.411 236.364 102.346 235.938 102.756C235.453 103.221 234.653 103.063 234.381 102.448L233.483 100.411C233.269 99.9255 232.793 99.6095 232.263 99.6016C231.698 99.5932 231.198 99.2365 231.007 98.7058L229.815 95.4007C229.626 94.878 229.219 94.4636 228.699 94.2663L228.072 94.0279C227.836 93.9383 227.579 93.9161 227.331 93.964C226.559 94.1131 225.821 93.5772 225.725 92.7963L224.124 79.8743C224.105 79.728 224.07 79.5842 224.019 79.446L223.231 77.323C222.849 76.2908 221.445 76.1522 220.868 77.0895C220.628 77.4789 220.203 77.7165 219.746 77.7177L219.721 77.7177C219.103 77.7192 218.562 77.3067 218.399 76.7112L216.867 71.1078L215.428 66.2467C215.222 65.5532 214.506 65.1457 213.805 65.3238C213.452 65.4134 213.15 65.6421 212.969 65.9577L212.014 67.6187C211.726 68.1189 211.044 68.2132 210.631 67.8096C210.169 67.3575 209.394 67.5391 209.18 68.1495L209 68.6652C208.615 69.7668 207.056 69.7636 206.676 68.6604L206.412 67.8945C206.199 67.2767 205.52 66.9551 204.907 67.1825C204.485 67.3389 204.012 67.2386 203.69 66.9249L202.766 66.0255C202.532 65.7976 202.244 65.6336 201.928 65.5494L200.855 65.2631C200.687 65.2184 200.527 65.1509 200.377 65.0627L199.994 64.8362C199.28 64.4144 198.375 64.503 197.757 65.0551L197.26 65.4978C197.08 65.6586 196.871 65.7837 196.644 65.8664L195.386 66.325C195.25 66.3748 195.119 66.4401 194.997 66.5197L193.804 67.2987C193.522 67.4829 193.196 67.589 192.859 67.6061L192.146 67.6423C191.768 67.6615 191.404 67.7931 191.101 68.0202L189.991 68.8519C189.837 68.967 189.667 69.0582 189.486 69.1224L188.417 69.5021C188.112 69.6101 187.784 69.6336 187.468 69.5699L187.041 69.4842C186.511 69.3775 185.974 69.6363 185.727 70.1177C185.227 71.0913 183.794 70.9535 183.489 69.9024L182.662 67.0513C182.576 66.7545 182.401 66.4915 182.159 66.2983C181.418 65.7048 180.318 65.9414 179.886 66.7874L179.272 67.9907C179.05 68.427 178.622 68.7219 178.136 68.7755C177.52 68.8433 176.93 68.5145 176.663 67.956L175.432 65.3756C175.345 65.1943 175.23 65.0277 175.092 64.8822L173.772 63.497C173.589 63.3043 173.448 63.0754 173.358 62.8249L171.765 58.3747C171.713 58.2286 171.679 58.0766 171.663 57.9222L169.932 40.5882C169.898 40.242 169.769 39.9118 169.56 39.6336L168.431 38.1303C168.197 37.8193 167.874 37.5873 167.505 37.4655C166.758 37.219 165.936 37.4575 165.437 38.0657L165.156 38.4079C164.736 38.9197 164.043 39.1181 163.415 38.9061C162.935 38.7436 162.56 38.3617 162.407 37.8778L161.028 33.5163C160.908 33.1372 160.672 32.8052 160.354 32.5667L159.398 31.8496C159.16 31.6713 158.967 31.4398 158.835 31.1736L157.768 29.0287C157.461 28.4104 156.739 28.1207 156.089 28.3552C155.671 28.5062 155.205 28.4431 154.842 28.1864L154.328 27.8228C153.892 27.5141 153.317 27.4826 152.85 27.7417C152.25 28.0743 151.497 27.9201 151.076 27.3784L150.397 26.5044C150.142 26.1763 149.772 25.9574 149.361 25.8919C148.664 25.7805 147.973 26.1289 147.648 26.7561L146.829 28.3376C146.55 28.8762 146.031 29.2497 145.432 29.3434L144.578 29.477L143.574 29.6806C143.061 29.7844 142.529 29.6731 142.101 29.3726L141.355 28.8493C141.099 28.6691 140.799 28.5606 140.487 28.5349C139.7 28.4701 139.052 27.8903 138.901 27.1154L137.648 20.7032C137.474 19.8143 136.686 19.1705 135.78 19.1636C135.623 19.1625 135.465 19.1806 135.313 19.2178L133.735 19.6024L132.803 19.8654C132.249 20.0215 131.796 20.4194 131.569 20.9479L131.012 22.2477C130.558 23.3058 129.233 23.6586 128.313 22.9661L126.645 21.9624C126.553 21.9066 126.455 21.86 126.353 21.8234C125.456 21.5009 124.474 22.0016 124.208 22.9163L123.211 26.3452C123.042 26.9276 122.399 27.2281 121.843 26.9844C121.403 26.7911 120.887 26.9376 120.613 27.3337L119.449 29.0205C119.335 29.1859 119.248 29.3684 119.191 29.5612L117.956 33.7269C117.77 34.3555 116.926 34.4629 116.588 33.901C116.244 33.3283 115.38 33.4534 115.212 34.1002L114.107 38.3676C113.952 38.9653 113.479 39.4278 112.877 39.5681C112.357 39.6895 111.81 39.5529 111.407 39.201L110.843 38.7079C110.458 38.3708 109.953 38.203 109.443 38.2425L109.338 38.2505C108.766 38.2947 108.244 38.5944 107.918 39.0664L106.791 40.6958C106.682 40.8539 106.549 40.9944 106.398 41.1128L105.51 41.8076C105.074 42.1486 104.505 42.2699 103.968 42.1363C103.372 41.9883 102.894 41.5466 102.698 40.965L101.555 37.57C101.353 36.97 100.747 36.6034 100.122 36.7026C99.6724 36.7739 99.2185 36.6045 98.9256 36.2563L98.1003 35.2751C97.7788 34.8928 97.2978 34.6816 96.7987 34.7035C96.1784 34.7307 95.6291 35.1126 95.3875 35.6846L94.2336 38.4167C94.0667 38.8118 93.7713 39.139 93.3952 39.3454L93.1519 39.4789C92.5451 39.8119 91.8054 39.7895 91.2198 39.4203L90.5985 39.0286C90.4413 38.9295 90.2996 38.8078 90.178 38.6673C89.3615 37.7241 87.8709 37.8184 87.1797 38.857L86.747 39.5072L85.0676 42.4981C84.9833 42.6483 84.8679 42.7786 84.7292 42.8805C84.0003 43.4156 82.9634 42.9895 82.8214 42.0965L81.6064 34.4572C81.4786 33.6531 80.5425 33.2721 79.8894 33.7583C79.6522 33.9349 79.3532 34.0069 79.0616 33.9575L78.5578 33.8723C78.0193 33.7811 77.5458 33.4632 77.2576 32.9992L76.1259 31.1773C75.9795 30.9416 75.7833 30.7407 75.5511 30.5887L74.2267 29.7217C74.14 29.6649 74.058 29.6012 73.9816 29.531L72.4062 28.0843C72.3283 28.0128 72.2446 27.9479 72.156 27.8903L70.8578 27.0464C70.6106 26.8857 70.4041 26.6698 70.2545 26.4156L68.8829 24.0856C68.7457 23.8525 68.5602 23.6514 68.3389 23.4958C67.5138 22.9159 66.3792 23.0826 65.7559 23.8755L65.1565 24.6381C65.0924 24.7196 65.0218 24.7957 64.9454 24.8657L64.4879 25.2847C63.7817 25.9314 62.7051 25.9532 61.9732 25.3358L61.7991 25.1888C61.5669 24.993 61.385 24.7444 61.2684 24.4639L59.7472 20.8029C59.6752 20.6297 59.578 20.468 59.4587 20.3232L57.8313 18.3466L56.1735 16.6907C56.0742 16.5915 55.9862 16.4816 55.911 16.3631L54.3327 13.8742C54.2557 13.7529 54.1927 13.6232 54.145 13.4876L52.4096 8.56689L50.6849 4.09687C50.6301 3.95482 50.5585 3.81985 50.4715 3.69486L49.1004 1.72362C48.9008 1.43669 48.6261 1.21021 48.3064 1.06897L48.1428 0.99671C47.4428 0.687495 46.6257 0.827203 46.0683 1.35143L45.1807 2.186L43.6382 3.79763C43.4635 3.98015 43.3268 4.1956 43.2362 4.43143L41.6515 8.5553C41.5949 8.70249 41.5203 8.84208 41.4293 8.97088L40.4594 10.3442C40.0422 10.9349 39.291 11.188 38.6014 10.9703C38.1852 10.8389 37.7339 10.8765 37.3452 11.0751L36.613 11.449C36.3065 11.6055 35.9633 11.6761 35.6198 11.6532L34.9682 11.6097C34.5586 11.5824 34.1512 11.6881 33.8066 11.9111L32.8595 12.5239C32.6422 12.6645 32.4559 12.8479 32.3118 13.0629L31.7992 13.8279C31.2776 14.6064 30.1397 14.6262 29.5913 13.8664L29.51 13.7537C29.1681 13.28 28.5317 13.1267 28.0117 13.3929C27.492 13.6588 26.856 13.506 26.514 13.0329L25.7499 11.9762C25.4699 11.5888 25.0137 11.3684 24.5362 11.3896C23.9161 11.4173 23.35 11.0389 23.1383 10.4554L21.6868 6.45325C21.1479 5.29316 19.431 5.53977 19.2405 6.80464L18.0988 14.3817C18.0812 14.4987 18.0527 14.6138 18.0137 14.7255L16.583 18.8253C16.3831 19.3979 15.9226 19.8412 15.3427 20.0189L15.2841 20.0368C14.759 20.1978 14.329 20.5775 14.1043 21.0785L12.7519 24.0939C12.6847 24.2437 12.5984 24.3843 12.4951 24.512L10.9677 26.4009C10.8851 26.5031 10.7921 26.5965 10.6902 26.6796L9.59294 27.5742C9.25144 27.8526 8.78241 27.9153 8.37976 27.7364C7.75853 27.4604 7.03372 27.7707 6.80467 28.4107L5.53007 31.9723C5.45836 32.1727 5.35357 32.3596 5.22006 32.5254L3.95886 34.0911C3.73388 34.3704 3.4346 34.5805 3.09548 34.6972L2.93776 34.7515C2.24655 34.9895 1.7525 35.602 1.66628 36.3279Z" fill="url(#paint0_linear_120_160026)"/>
<path d="M6.10352e-05 50.357L1.66628 36.3279C1.7525 35.602 2.24655 34.9895 2.93776 34.7515L3.09548 34.6972C3.4346 34.5805 3.73388 34.3704 3.95886 34.0911L5.22006 32.5254C5.35357 32.3596 5.45836 32.1727 5.53007 31.9723L6.80467 28.4107C7.03372 27.7707 7.75853 27.4604 8.37976 27.7364V27.7364C8.78241 27.9153 9.25144 27.8526 9.59294 27.5742L10.6902 26.6796C10.7921 26.5965 10.8851 26.5031 10.9677 26.4009L12.4951 24.512C12.5984 24.3843 12.6847 24.2437 12.7519 24.0939L14.1043 21.0785C14.329 20.5775 14.759 20.1978 15.2841 20.0369L15.3427 20.0189C15.9226 19.8412 16.3831 19.3979 16.583 18.8253L18.0137 14.7255C18.0527 14.6138 18.0812 14.4987 18.0988 14.3817L19.2405 6.80464C19.431 5.53977 21.1479 5.29316 21.6868 6.45325V6.45325L23.1383 10.4554C23.35 11.0389 23.9161 11.4173 24.5362 11.3896V11.3896C25.0137 11.3684 25.4699 11.5888 25.7499 11.9762L26.514 13.0329C26.856 13.506 27.492 13.6588 28.0117 13.3929V13.3929C28.5317 13.1267 29.1681 13.28 29.51 13.7537L29.5913 13.8664C30.1397 14.6262 31.2776 14.6064 31.7992 13.8279L32.3118 13.0629C32.4559 12.8479 32.6422 12.6645 32.8595 12.5239L33.8066 11.9111C34.1512 11.6881 34.5586 11.5824 34.9682 11.6097L35.6198 11.6532C35.9633 11.6761 36.3065 11.6055 36.613 11.449L37.3452 11.0751C37.7339 10.8765 38.1852 10.8389 38.6014 10.9703V10.9703C39.291 11.188 40.0422 10.9349 40.4594 10.3442L41.4293 8.97088C41.5203 8.84208 41.5949 8.70249 41.6515 8.5553L43.2362 4.43143C43.3268 4.1956 43.4635 3.98015 43.6382 3.79763L45.1807 2.186L46.0683 1.35143C46.6257 0.827203 47.4428 0.687495 48.1428 0.996711L48.3064 1.06897C48.6261 1.21021 48.9008 1.43669 49.1004 1.72362L50.4715 3.69486C50.5585 3.81985 50.6301 3.95482 50.6849 4.09687L52.4096 8.56689L54.1449 13.4876C54.1927 13.6232 54.2557 13.7529 54.3327 13.8742L55.911 16.3631C55.9862 16.4816 56.0742 16.5915 56.1735 16.6907L57.8313 18.3466L59.4587 20.3232C59.578 20.468 59.6752 20.6297 59.7471 20.8029L61.2684 24.4639C61.385 24.7444 61.5669 24.993 61.7991 25.1888L61.9732 25.3358C62.7051 25.9532 63.7817 25.9314 64.4879 25.2847L64.9454 24.8657C65.0218 24.7957 65.0924 24.7196 65.1565 24.6381L65.7559 23.8755C66.3792 23.0826 67.5138 22.9159 68.3389 23.4958V23.4958C68.5602 23.6514 68.7457 23.8525 68.8829 24.0856L70.2545 26.4156C70.4041 26.6698 70.6106 26.8857 70.8578 27.0464L72.156 27.8903C72.2446 27.9479 72.3283 28.0128 72.4062 28.0843L73.9816 29.531C74.058 29.6012 74.14 29.6649 74.2267 29.7217L75.5511 30.5887C75.7833 30.7407 75.9795 30.9416 76.1259 31.1773L77.2576 32.9992C77.5458 33.4632 78.0193 33.7811 78.5578 33.8723L79.0616 33.9575C79.3532 34.0069 79.6522 33.9349 79.8894 33.7583V33.7583C80.5425 33.2721 81.4786 33.6531 81.6064 34.4572L82.8214 42.0965C82.9634 42.9895 84.0003 43.4156 84.7292 42.8805V42.8805C84.8679 42.7786 84.9833 42.6483 85.0676 42.4982L86.747 39.5072L87.1797 38.857C87.8709 37.8184 89.3615 37.7241 90.178 38.6673V38.6673C90.2996 38.8078 90.4413 38.9295 90.5985 39.0286L91.2198 39.4203C91.8054 39.7895 92.5451 39.8119 93.1519 39.4789L93.3952 39.3454C93.7713 39.139 94.0667 38.8118 94.2336 38.4167L95.3875 35.6846C95.6291 35.1126 96.1784 34.7307 96.7987 34.7035V34.7035C97.2978 34.6816 97.7788 34.8928 98.1003 35.2751L98.9256 36.2563C99.2185 36.6046 99.6724 36.7739 100.122 36.7026V36.7026C100.747 36.6034 101.353 36.97 101.555 37.57L102.698 40.965C102.893 41.5466 103.372 41.9883 103.968 42.1363V42.1363C104.505 42.2699 105.074 42.1486 105.51 41.8076L106.398 41.1128C106.549 40.9944 106.682 40.8539 106.791 40.6958L107.918 39.0664C108.244 38.5944 108.766 38.2947 109.338 38.2506L109.443 38.2425C109.953 38.203 110.458 38.3708 110.843 38.7079L111.407 39.201C111.81 39.5529 112.357 39.6895 112.877 39.5681V39.5681C113.479 39.4278 113.952 38.9653 114.107 38.3676L115.212 34.1002C115.38 33.4534 116.244 33.3283 116.588 33.901V33.901C116.926 34.4629 117.77 34.3555 117.956 33.7269L119.191 29.5612C119.248 29.3684 119.335 29.1859 119.449 29.0205L120.613 27.3337C120.887 26.9376 121.403 26.7911 121.843 26.9844V26.9844C122.399 27.2281 123.042 26.9276 123.211 26.3452L124.208 22.9163C124.474 22.0016 125.456 21.5009 126.353 21.8234V21.8234C126.455 21.86 126.553 21.9066 126.645 21.9624L128.313 22.9661V22.9661C129.233 23.6586 130.558 23.3058 131.012 22.2477L131.569 20.9479C131.796 20.4194 132.249 20.0215 132.803 19.8654L133.735 19.6024L135.313 19.2178C135.465 19.1806 135.623 19.1625 135.78 19.1636V19.1636C136.686 19.1705 137.474 19.8143 137.648 20.7032L138.901 27.1154C139.052 27.8903 139.7 28.4701 140.487 28.5349V28.5349C140.799 28.5606 141.099 28.6691 141.356 28.8493L142.101 29.3726C142.529 29.6731 143.061 29.7844 143.574 29.6806L144.578 29.477L145.432 29.3434C146.031 29.2497 146.55 28.8762 146.829 28.3376L147.648 26.7561C147.973 26.1289 148.664 25.7805 149.361 25.8919V25.8919C149.772 25.9574 150.142 26.1763 150.397 26.5044L151.076 27.3784C151.497 27.9201 152.25 28.0743 152.85 27.7417V27.7417C153.317 27.4826 153.892 27.5141 154.328 27.8228L154.842 28.1864C155.205 28.4431 155.671 28.5062 156.089 28.3552V28.3552C156.739 28.1207 157.461 28.4104 157.768 29.0288L158.835 31.1736C158.967 31.4398 159.16 31.6713 159.398 31.8496L160.354 32.5667C160.672 32.8052 160.908 33.1372 161.028 33.5163L162.407 37.8778C162.56 38.3617 162.935 38.7436 163.415 38.9061V38.9061C164.043 39.1181 164.736 38.9197 165.156 38.4079L165.437 38.0657C165.936 37.4575 166.758 37.219 167.505 37.4655V37.4655C167.874 37.5873 168.197 37.8193 168.431 38.1303L169.56 39.6336C169.769 39.9118 169.898 40.242 169.932 40.5882L171.663 57.9222C171.679 58.0766 171.713 58.2286 171.765 58.3747L173.358 62.8249C173.448 63.0754 173.589 63.3043 173.772 63.497L175.092 64.8822C175.23 65.0277 175.345 65.1943 175.432 65.3756L176.663 67.956C176.93 68.5145 177.52 68.8433 178.136 68.7755V68.7755C178.622 68.7219 179.05 68.427 179.272 67.9907L179.886 66.7874C180.318 65.9414 181.418 65.7048 182.159 66.2983V66.2983C182.401 66.4915 182.576 66.7545 182.662 67.0513L183.489 69.9024C183.794 70.9535 185.227 71.0913 185.727 70.1177V70.1177C185.974 69.6363 186.511 69.3775 187.041 69.4842L187.468 69.5699C187.784 69.6336 188.112 69.6101 188.417 69.5021L189.486 69.1224C189.667 69.0582 189.837 68.967 189.991 68.8519L191.101 68.0202C191.404 67.7931 191.768 67.6615 192.146 67.6423L192.859 67.6061C193.196 67.589 193.522 67.4829 193.804 67.2987L194.997 66.5197C195.119 66.4401 195.25 66.3748 195.386 66.325L196.644 65.8664C196.871 65.7837 197.08 65.6586 197.26 65.4978L197.756 65.0551C198.375 64.503 199.28 64.4144 199.994 64.8362L200.377 65.0627C200.527 65.1509 200.687 65.2184 200.855 65.2631L201.928 65.5494C202.244 65.6336 202.532 65.7976 202.766 66.0255L203.69 66.9249C204.012 67.2386 204.485 67.3389 204.907 67.1825V67.1825C205.52 66.9551 206.199 67.2767 206.412 67.8945L206.676 68.6604C207.056 69.7636 208.615 69.7668 209 68.6652L209.18 68.1495C209.394 67.5391 210.169 67.3575 210.631 67.8096V67.8096C211.044 68.2131 211.726 68.1189 212.014 67.6187L212.969 65.9577C213.15 65.6421 213.452 65.4134 213.805 65.3238V65.3238C214.506 65.1457 215.222 65.5532 215.428 66.2467L216.867 71.1078L218.399 76.7112C218.562 77.3067 219.103 77.7192 219.721 77.7177L219.746 77.7177C220.203 77.7165 220.628 77.4789 220.868 77.0895V77.0895C221.445 76.1522 222.849 76.2908 223.231 77.323L224.019 79.446C224.07 79.5842 224.105 79.728 224.124 79.8743L225.725 92.7963C225.821 93.5772 226.559 94.1131 227.331 93.964V93.964C227.579 93.9161 227.836 93.9383 228.072 94.0279L228.699 94.2663C229.219 94.4636 229.626 94.878 229.815 95.4007L231.007 98.7058C231.198 99.2365 231.698 99.5932 232.263 99.6016V99.6016C232.793 99.6095 233.269 99.9255 233.483 100.411L234.381 102.448C234.653 103.063 235.453 103.221 235.938 102.756V102.756C236.364 102.346 237.054 102.411 237.397 102.892L238.125 103.913C238.4 104.299 238.817 104.56 239.284 104.637V104.637C239.945 104.747 240.612 104.477 241.01 103.938L242.044 102.539C242.127 102.427 242.197 102.307 242.253 102.18L243.667 98.9949C243.865 98.5489 244.227 98.1959 244.678 98.0088L245.085 97.8396C245.533 97.6534 245.894 97.303 246.092 96.8599L247.409 93.9233C247.528 93.6576 247.707 93.4228 247.931 93.2368L248.972 92.3732C249.25 92.1424 249.456 91.8373 249.568 91.4935L251.205 86.4323L251.966 83.0461C252.204 81.9889 253.718 82.0103 253.926 83.0738V83.0738C254.133 84.1323 255.637 84.1605 255.883 83.1105L256.161 81.9257C256.324 81.2313 257.259 81.1052 257.6 81.7315V81.7315C257.922 82.3218 258.79 82.2526 259.015 81.6189L260.162 78.3765C260.214 78.2286 260.248 78.0749 260.263 77.9188L262.02 59.1623C262.039 58.9678 262.103 58.7804 262.207 58.6154V58.6154C262.804 57.6752 264.242 57.9421 264.462 59.0338L264.726 60.3469C265.002 61.7188 266.895 61.8885 267.411 60.5875V60.5875C267.45 60.489 267.5 60.3952 267.56 60.3079L268.318 59.2076C268.756 58.572 269.711 58.6246 270.077 59.3044V59.3044C270.485 60.0634 271.589 60.0175 271.932 59.2273L272.823 57.1798C272.868 57.075 272.904 56.9664 272.931 56.8551L274.668 49.4492C274.688 49.3618 274.717 49.2765 274.754 49.1947V49.1947C275.309 47.9621 277.115 48.1546 277.398 49.4765L277.518 50.0395C277.79 51.3136 279.502 51.5585 280.12 50.4119V50.4119L281.928 47.5285L282.873 45.5715C283.307 44.6736 284.476 44.4338 285.228 45.0882V45.0882C285.434 45.2667 285.683 45.3865 285.951 45.4351L286.049 45.453C286.829 45.5946 287.435 46.211 287.565 46.9929L288.631 53.4429C288.815 54.5531 290.273 54.848 290.874 53.8965V53.8965C290.933 53.8022 290.98 53.7002 291.012 53.5933L292.306 49.2557C292.498 48.6128 293.341 48.4636 293.742 49.0014V49.0014C294.115 49.5023 294.89 49.4146 295.142 48.8428L296.03 46.828C296.245 46.3415 296.733 46.0339 297.265 46.0506V46.0506C297.82 46.068 298.326 45.7317 298.524 45.2126L300 41.351" stroke="#FF0000" stroke-width="1.15385" stroke-miterlimit="10" stroke-linecap="round"/>
</g>
<defs>
<linearGradient id="paint0_linear_120_160026" x1="150.607" y1="0.486572" x2="150.607" y2="109.998" gradientUnits="userSpaceOnUse">
<stop stop-color="#FF0000" stop-opacity="0.1"/>
<stop offset="1" stop-color="white" stop-opacity="0"/>
</linearGradient>
<clipPath id="clip0_120_160026">
<rect width="300" height="110" fill="white" transform="translate(6.10352e-05 0.486572)"/>
</clipPath>
</defs>
</svg>
