<svg width="300" height="111" viewBox="0 0 300 111" fill="none" xmlns="http://www.w3.org/2000/svg">
<g clip-path="url(#clip0_120_160041)">
<path d="M2.89841 54.8833L0.196382 60.3834C0.0671819 60.6464 0 60.9355 0 61.2286L-7.39725e-05 108.57C-7.56111e-05 109.628 0.85803 110.487 1.91658 110.487H298.083C299.142 110.487 300 109.628 300 108.57V6.12897C300 4.96703 298.974 4.07234 297.823 4.23003L297.269 4.30589C297.071 4.33309 296.878 4.39129 296.697 4.47837L295.46 5.07465C294.604 5.48758 293.574 5.16682 293.104 4.34064C292.302 2.93228 290.195 3.20884 289.783 4.77646L288.842 8.36298C288.548 9.48529 286.981 9.55645 286.586 8.46547C286.16 7.28709 284.434 7.49477 284.299 8.74074L281.818 31.6353L280.059 43.3349C279.754 45.3579 276.917 45.5609 276.328 43.6017L275.758 41.7054L273.772 34.2001C273.357 32.6299 271.299 32.2556 270.358 33.579L269.9 34.2231C269.766 34.4113 269.667 34.6221 269.608 34.8455L266.724 45.7795C266.686 45.9244 266.631 46.0642 266.56 46.1962L263.636 51.6511L260.606 57.8526L259.861 59.367C259.076 60.9633 256.729 60.7216 256.285 58.9987L254.615 52.5118C254.569 52.3319 254.497 52.1597 254.401 52.0006L251.592 47.3363C251.541 47.252 251.496 47.1638 251.459 47.0726L248.847 40.6812C248.619 40.1238 248.142 39.7059 247.56 39.5528L246.441 39.2585C245.824 39.0963 245.329 38.638 245.119 38.0358L243.237 32.637C242.825 31.4558 241.41 30.9792 240.368 31.6705L239.394 32.316L237.12 33.9045C236.642 34.2385 236.038 34.3366 235.479 34.1712L234.761 33.9587C233.921 33.7102 233.019 34.0626 232.571 34.8148L230.303 38.6171L227.411 44.6549C227.319 44.8458 227.197 45.0202 227.049 45.1711L226.185 46.0486C225.246 47.0034 223.642 46.7248 223.079 45.5091L221.304 41.6717C221.243 41.5396 221.197 41.4011 221.167 41.2587L219.793 34.678C219.383 32.7118 216.608 32.6212 216.07 34.5564L215.687 35.9367C215.395 36.9867 214.287 37.5823 213.25 37.2471L213.075 37.1902C212.477 36.9972 212.012 36.524 211.83 35.9234L209.091 26.9032L207.083 16.525C206.816 15.1437 204.88 15.037 204.463 16.3805C204.057 17.687 202.19 17.6346 201.858 16.3075L201.62 15.3552C201.206 13.7013 198.851 13.7152 198.457 15.3739L197.865 17.8639C197.498 19.4075 195.522 19.8625 194.517 18.6347L193.939 17.9288L193.029 16.9466C192.058 15.8981 190.322 16.2434 189.826 17.5838L187.937 22.686C187.898 22.7908 187.869 22.8989 187.849 23.0089L186.786 28.8592C186.403 30.9682 183.375 30.9539 183.012 28.8413L182.563 26.2296C182.351 24.9989 180.656 24.8221 180.195 25.9826C179.753 27.0964 178.144 26.9923 177.848 25.8309L176.294 19.7149C176.05 18.7556 174.875 18.3986 174.138 19.0601C173.455 19.6739 172.369 19.4172 172.034 18.5624L169.697 12.6156L168.512 8.19936C168.004 6.30788 165.321 6.30564 164.81 8.19627L163.676 12.393C163.65 12.4915 163.615 12.5876 163.573 12.6806L161.919 16.3515C161.384 17.5402 159.716 17.5954 159.103 16.4448C158.486 15.2861 156.803 15.3524 156.279 16.5561L155.118 19.2207C154.802 19.9474 153.957 20.2807 153.229 19.9659C152.363 19.5911 151.377 20.1378 151.237 21.0707L148.95 36.2278C148.801 37.2215 147.473 37.4552 146.993 36.5723C146.508 35.6809 145.166 35.9299 145.033 36.936L143.068 51.8202C142.896 53.1239 141.102 53.3441 140.62 52.1207C140.19 51.0317 138.643 51.0492 138.239 52.1476L136.458 56.9817C136.395 57.1519 136.309 57.3123 136.201 57.4582L133.534 61.0677C133.401 61.2474 133.301 61.4491 133.238 61.6634L132.56 63.9576C131.989 65.8883 129.208 65.7461 128.838 63.7672L127.304 55.5789C127.283 55.4677 127.253 55.3587 127.213 55.253L126.879 54.371C126.177 52.5184 123.469 52.8174 123.189 54.7784L122.31 60.9239C122.027 62.9048 119.279 63.181 118.607 61.2962L118.182 60.1024L117.28 57.697C116.623 55.9434 114.1 56.0761 113.63 57.8889L112.192 63.4406C112.145 63.6217 112.072 63.795 111.975 63.9549L109.883 67.3985C109.42 68.162 108.49 68.504 107.642 68.2229L106.996 68.0086C106.42 67.8177 105.785 67.9581 105.344 68.3743C104.371 69.2914 102.768 68.7317 102.577 67.4081L100.02 49.6553C100.007 49.5636 99.9868 49.4729 99.9605 49.3841L99.5944 48.1487C99.0036 46.1545 96.1052 46.3971 95.8541 48.4617L95.082 54.8097C94.8636 56.605 92.3049 56.7256 91.9187 54.9587L91.7487 54.1807C91.4763 52.9344 89.7785 52.743 89.2355 53.8974C88.7313 54.9694 87.1847 54.903 86.7742 53.7918L86.5868 53.2846C86.0556 51.8467 83.987 51.9543 83.6079 53.4396L81.9226 60.0419C81.8538 60.3115 81.7272 60.5628 81.5514 60.7785L80.1306 62.5224C79.439 63.3712 78.1412 63.3677 77.4541 62.5151C76.6636 61.534 75.1216 61.7059 74.5666 62.8371L72.7273 66.5862L71.3763 68.8884C70.6297 70.1605 68.7861 70.1479 68.057 68.8656L66.6667 66.4202L63.6364 59.322L61.1673 53.7821C60.832 53.0298 60.0536 52.5758 59.2337 52.6544L58.6185 52.7134C57.9687 52.7757 57.3953 53.1644 57.0968 53.745L54.6276 58.548C54.5729 58.6542 54.5284 58.7653 54.4944 58.8799L51.575 68.7335C51.5352 68.8679 51.4808 68.9974 51.4128 69.1199L49.9089 71.8267C49.3276 72.8731 47.7981 72.7964 47.3244 71.6971C46.7611 70.39 44.8456 70.6029 44.5831 72.0018L44.1294 74.4194C43.7457 76.4638 40.8373 76.5188 40.3766 74.4904L39.5143 70.6943C39.4356 70.3478 39.2622 70.03 39.0133 69.7764L36.6121 67.3292C36.4478 67.1618 36.3157 66.9657 36.2223 66.7507L33.5547 60.6118C33.4101 60.2791 33.174 59.9942 32.8739 59.7903L30.7348 58.3369C30.4521 58.1448 30.2259 57.8806 30.0796 57.5717L27.2727 51.6428L24.7308 47.743C24.4212 47.2681 23.9173 46.9546 23.3545 46.8867L22.5053 46.7843C21.7248 46.6903 20.9659 47.0824 20.5911 47.7734L20.0815 48.713C19.3156 50.1252 17.2564 50.025 16.6311 48.5451L15.6032 46.112C15.3256 45.4548 14.7058 45.0062 13.9947 44.9477L13.6222 44.9171C12.7413 44.8447 12.0241 44.1792 11.8861 43.3062L10.2672 33.0656C9.95697 31.1032 7.2334 30.851 6.56804 32.723L6.12322 33.9746C6.08158 34.0917 6.05143 34.2127 6.03322 34.3357L3.07412 54.319C3.04508 54.5151 2.98581 54.7054 2.89841 54.8833Z" fill="url(#paint0_linear_120_160041)"/>
<path d="M0 61.4246L2.85324 55.5945C2.97051 55.3549 3.05036 55.0968 3.08969 54.8301L6.02507 34.9312C6.0487 34.771 6.08769 34.6138 6.14144 34.462C6.95034 32.1774 10.0938 32.5003 10.4729 34.907L11.8373 43.5713C12.0041 44.6303 12.8312 45.4326 13.8422 45.516C14.649 45.5826 15.3567 46.1115 15.6861 46.8942L16.32 48.4004C17.0932 50.2376 19.5099 50.3662 20.4532 48.6204C20.9137 47.7681 21.8092 47.288 22.7306 47.3995L23.174 47.4532C23.8527 47.5353 24.4646 47.9247 24.8517 48.5207L27.2727 52.2493L30.0137 58.061C30.2031 58.4626 30.4911 58.8028 30.8475 59.0459L32.7531 60.3455C33.132 60.6039 33.4331 60.9718 33.6209 61.4056L36.1781 67.3129C36.3007 67.5962 36.4723 67.8526 36.6839 68.0691L38.8988 70.3351C39.2222 70.6659 39.4496 71.0876 39.5544 71.5505L40.2603 74.6705C40.7682 76.9149 43.8045 76.8511 44.2277 74.5871L44.5768 72.72C44.851 71.2531 46.7407 71.0208 47.3251 72.3821C47.8126 73.5174 49.3063 73.5993 49.9018 72.5233L51.379 69.8543C51.4695 69.6908 51.5421 69.5169 51.5955 69.336L54.4769 59.5734C54.5225 59.419 54.5821 59.2696 54.655 59.1274L56.973 54.6012C57.3496 53.866 58.0483 53.3789 58.835 53.3031L58.959 53.2912C59.9478 53.196 60.8873 53.766 61.3097 54.7174L63.6364 59.9579L66.6667 67.0832L67.7038 68.9143C68.6133 70.5201 70.8059 70.5365 71.7367 68.9444L72.7273 67.2498L74.5529 63.5145C75.1276 62.3386 76.6453 62.1555 77.4551 63.1644C78.155 64.0363 79.4249 64.0399 80.1292 63.1722L81.4684 61.5222C81.6987 61.2385 81.8659 60.9038 81.9577 60.5427L83.6038 54.0692C83.9984 52.5172 86.0357 52.3999 86.5869 53.8975L86.7712 54.3984C87.1963 55.5533 88.7143 55.6249 89.2346 54.5145C89.7971 53.3139 91.4711 53.5222 91.7555 54.8281L91.9195 55.5814C92.3229 57.434 94.855 57.3012 95.0835 55.4155L95.6981 50.3433C95.9965 47.8807 99.2509 47.5779 99.9503 49.9477C99.9834 50.0597 100.008 50.1741 100.025 50.2902L102.564 67.9804C102.764 69.3793 104.351 69.9838 105.348 69.0411C105.79 68.6228 106.407 68.4819 106.973 68.6701L107.369 68.8018C108.385 69.1401 109.49 68.7154 110.065 67.7653L111.927 64.6878C112.056 64.4748 112.153 64.2423 112.216 63.9982L113.283 59.8635C113.882 57.5454 116.923 57.3686 117.757 59.6034L118.182 60.7413C118.995 63.0308 122.152 62.6786 122.496 60.26L123.054 56.3432C123.383 54.0353 126.381 53.6682 127.198 55.8357C127.248 55.9668 127.286 56.1025 127.312 56.241L128.5 62.6135C128.975 65.1573 132.342 65.3485 133.071 62.873L133.206 62.4171C133.29 62.13 133.423 61.8615 133.597 61.6243L136.151 58.1556C136.292 57.9637 136.406 57.7509 136.489 57.5241L138.239 52.7556C138.657 51.6152 140.175 51.5963 140.618 52.726C141.12 54.0029 142.893 53.7617 143.073 52.3919L145.028 37.5246C145.167 36.4674 146.492 36.1958 146.993 37.1217C147.49 38.0381 148.799 37.7837 148.956 36.7403L151.223 21.653C151.372 20.6591 152.358 20.0727 153.237 20.4548C153.968 20.7724 154.806 20.423 155.136 19.6628L156.274 17.0387C156.816 15.7899 158.467 15.7188 159.103 16.9167C159.734 18.106 161.37 18.0468 161.923 16.8147L163.552 13.1858C163.608 13.0608 163.654 12.931 163.69 12.7978L164.388 10.2043C165.04 7.78224 168.283 7.78524 168.931 10.2085L169.697 13.0729L172.019 19.005C172.369 19.8989 173.44 20.1718 174.136 19.5443C174.889 18.8652 176.053 19.2487 176.309 20.2603L177.845 26.3245C178.152 27.5379 179.736 27.6511 180.195 26.4924C180.674 25.2824 182.346 25.4757 182.567 26.7666L182.988 29.2258C183.373 31.4692 186.405 31.4851 186.81 29.2459L187.838 23.5652C187.865 23.4153 187.905 23.2684 187.958 23.1262L189.578 18.732C190.202 17.0402 192.268 16.5951 193.467 17.894L193.939 18.4064L194.271 18.8134C195.406 20.2054 197.551 19.6657 197.974 17.882L198.456 15.8435C198.867 14.1094 201.189 14.0942 201.62 15.8227L201.857 16.7719C202.202 18.1585 204.041 18.2156 204.463 16.8528C204.897 15.4493 206.808 15.5662 207.086 17.0132L209.091 27.4151L211.792 36.3437C211.998 37.0255 212.507 37.5572 213.153 37.767C214.253 38.1239 215.416 37.4605 215.74 36.292L215.776 36.1606C216.414 33.8561 219.533 33.9691 220.021 36.3145L221.152 41.7497C221.192 41.9429 221.254 42.1305 221.335 42.3083L222.819 45.5273C223.522 47.0526 225.425 47.4089 226.58 46.2312L226.984 45.8183C227.175 45.6235 227.334 45.3961 227.453 45.1455L230.303 39.1738L232.395 35.6538C232.951 34.7166 234.024 34.2788 235.031 34.5779L235.323 34.6646C235.984 34.8609 236.693 34.743 237.265 34.3418L239.394 32.8486L239.957 32.4738C241.228 31.628 242.912 32.2359 243.43 33.7276L245.023 38.3145C245.293 39.0918 245.909 39.6771 246.668 39.8775L247.351 40.0578C248.065 40.2465 248.656 40.7775 248.948 41.4938L251.441 47.6163C251.49 47.738 251.549 47.8553 251.616 47.9672L254.354 52.5295C254.481 52.7415 254.577 52.9726 254.639 53.215L255.989 58.4802C256.553 60.6785 259.373 60.9985 260.364 58.9766L260.606 58.4829L263.636 52.2576L266.525 46.8484C266.619 46.6718 266.693 46.4836 266.744 46.2881L269.582 35.4863C269.658 35.1971 269.784 34.9255 269.954 34.6854C271.088 33.0864 273.461 33.5589 273.969 35.4846L275.758 42.2739C276.511 44.7877 279.962 44.5538 280.352 41.9492L281.818 32.1652L284.295 9.21594C284.437 7.90612 286.143 7.67811 286.587 8.90967C286.997 10.0451 288.538 9.96769 288.844 8.79629L289.774 5.2379C290.202 3.60091 292.273 3.30215 293.099 4.75824C293.578 5.60173 294.578 5.93009 295.423 5.52101L296.646 4.9295C296.86 4.82549 297.089 4.75621 297.323 4.72399L300 4.35592" stroke="#55FE66" stroke-width="0.833333" stroke-linecap="round" stroke-linejoin="round"/>
</g>
<defs>
<linearGradient id="paint0_linear_120_160041" x1="150" y1="0.486572" x2="150" y2="110.487" gradientUnits="userSpaceOnUse">
<stop stop-color="#62C370" stop-opacity="0.1"/>
<stop offset="1" stop-color="white" stop-opacity="0"/>
</linearGradient>
<clipPath id="clip0_120_160041">
<rect width="300" height="110" fill="white" transform="translate(0 0.486572)"/>
</clipPath>
</defs>
</svg>
