<svg width="24" height="25" viewBox="0 0 24 25" fill="none" xmlns="http://www.w3.org/2000/svg">
<path fill-rule="evenodd" clip-rule="evenodd" d="M12 0.913574C5.37527 0.913574 0 6.28885 0 12.9136C0 19.5383 5.37527 24.9136 12 24.9136C18.6117 24.9136 24 19.5383 24 12.9136C24 6.28885 18.6117 0.913574 12 0.913574ZM19.9262 6.44503C21.3579 8.18906 22.217 10.4146 22.243 12.8224C21.9046 12.7574 18.5206 12.0676 15.1106 12.4971C15.0325 12.3279 14.9675 12.1456 14.8894 11.9635C14.6811 11.4689 14.4469 10.9613 14.2126 10.4797C17.9869 8.94397 19.705 6.73136 19.9262 6.44503ZM12 2.68364C14.603 2.68364 16.9848 3.65978 18.7939 5.26065C18.6117 5.52095 17.0629 7.59037 13.4186 8.95695C11.7397 5.87236 9.87855 3.34741 9.5922 2.95696C10.3601 2.77474 11.1671 2.68364 12 2.68364ZM7.63995 3.64676C7.91325 4.01119 9.73538 6.54915 11.4404 9.56865C6.65076 10.8442 2.42083 10.8181 1.96529 10.8181C2.62907 7.64242 4.77657 5.00034 7.63995 3.64676ZM1.74404 12.9266C1.74404 12.8224 1.74404 12.7183 1.74404 12.6142C2.18655 12.6272 7.15835 12.6923 12.2733 11.1565C12.5727 11.7292 12.846 12.3148 13.1063 12.9005C12.9761 12.9396 12.8329 12.9787 12.7028 13.0177C7.41865 14.7226 4.60738 19.3821 4.3731 19.7725C2.7462 17.9635 1.74404 15.5557 1.74404 12.9266ZM12 23.1695C9.6312 23.1695 7.44469 22.3626 5.71367 21.009C5.89588 20.6316 7.97827 16.6229 13.757 14.6056C13.783 14.5925 13.7961 14.5925 13.8221 14.5795C15.2668 18.3148 15.8525 21.4515 16.0087 22.3496C14.7722 22.8832 13.4186 23.1695 12 23.1695ZM17.7136 21.4125C17.6096 20.7877 17.0629 17.7943 15.7223 14.1109C18.9371 13.6033 21.7484 14.4364 22.0998 14.5535C21.6573 17.4038 20.0173 19.8637 17.7136 21.4125Z" fill="#999999"/>
</svg>
