<svg width="24" height="25" viewBox="0 0 24 25" fill="none" xmlns="http://www.w3.org/2000/svg">
<path d="M7.55016 22.6636C16.6045 22.6636 21.5583 15.1603 21.5583 8.65544C21.5583 8.4445 21.5536 8.22887 21.5442 8.01793C22.5079 7.32104 23.3395 6.45783 24 5.46887C23.1025 5.86817 22.1496 6.12896 21.1739 6.24231C22.2013 5.62648 22.9705 4.65905 23.3391 3.51934C22.3726 4.09213 21.3156 4.49619 20.2134 4.71418C19.4708 3.92514 18.489 3.40269 17.4197 3.22763C16.3504 3.05256 15.2532 3.23462 14.2977 3.74567C13.3423 4.25672 12.5818 5.06828 12.1338 6.05489C11.6859 7.04149 11.5754 8.14819 11.8195 9.20387C9.86249 9.10566 7.94794 8.59728 6.19998 7.71167C4.45203 6.82607 2.90969 5.58301 1.67297 4.06309C1.0444 5.14682 0.852057 6.42922 1.13503 7.64967C1.418 8.87011 2.15506 9.93702 3.19641 10.6336C2.41463 10.6087 1.64998 10.3983 0.965625 10.0195V10.0804C0.964925 11.2177 1.3581 12.3202 2.07831 13.2003C2.79852 14.0805 3.80132 14.6841 4.91625 14.9086C4.19206 15.1067 3.43198 15.1356 2.69484 14.9929C3.00945 15.971 3.62157 16.8265 4.44577 17.4399C5.26997 18.0533 6.26512 18.3942 7.29234 18.4148C5.54842 19.7847 3.39417 20.5277 1.17656 20.5242C0.783287 20.5236 0.390399 20.4995 0 20.452C2.25286 21.8973 4.87353 22.665 7.55016 22.6636Z" fill="#999999"/>
</svg>
