<svg width="24" height="25" viewBox="0 0 24 25" fill="none" xmlns="http://www.w3.org/2000/svg">
<path fill-rule="evenodd" clip-rule="evenodd" d="M8.16006 0.913574H15.8399C18.2247 0.913574 20.16 2.84882 20.16 5.2336C20.16 6.9048 19.2096 8.35518 17.8202 9.07354C19.2096 9.79192 20.16 11.2424 20.16 12.9135C20.16 15.2983 18.2247 17.2336 15.8399 17.2336C14.4834 17.2336 13.2723 16.6074 12.4801 15.6285V20.5935C12.4801 22.9783 10.5448 24.9136 8.16006 24.9136C5.77527 24.9136 3.84 22.9783 3.84 20.5935C3.84 18.9223 4.79039 17.4719 6.17985 16.7535C4.79038 16.0352 3.84 14.5847 3.84 12.9135C3.84 11.2424 4.79037 9.79192 6.17983 9.07354C4.79038 8.35518 3.84 6.9048 3.84 5.2336C3.84 2.84882 5.77527 0.913574 8.16006 0.913574ZM4.8 5.2336C4.8 3.37902 6.30545 1.87357 8.16006 1.87357H11.5199V8.59351H8.16006L8.14964 8.59353C6.2998 8.5879 4.8 7.0847 4.8 5.2336ZM11.5201 12.8679C11.52 12.8831 11.5199 12.8983 11.5199 12.9135C11.5199 12.9288 11.52 12.944 11.5201 12.9592V16.2735H8.16003C6.30545 16.2736 4.8 14.7681 4.8 12.9135C4.8 11.0624 6.29987 9.55911 8.14973 9.55353L8.16006 9.55354H11.5199L11.5201 12.8679ZM12.4801 12.9538V12.8733C12.5017 11.0418 13.9913 9.56092 15.8262 9.55354H15.8399C15.8434 9.55354 15.8468 9.55354 15.8503 9.55353C17.7001 9.55911 19.2 11.0624 19.2 12.9135C19.2 14.7681 17.6945 16.2736 15.8399 16.2736C13.9988 16.2736 12.5017 14.7899 12.4801 12.9538ZM13.1253 9.55354C12.8882 9.74531 12.6719 9.96163 12.4801 10.1986V9.55354H13.1253ZM15.8504 8.59353C15.8469 8.59352 15.8434 8.59351 15.8399 8.59351C15.8347 8.59351 15.8294 8.59352 15.8242 8.59354H12.4801V1.87357H15.8399C17.6945 1.87357 19.2 3.37902 19.2 5.2336C19.2 7.0847 17.7002 8.5879 15.8504 8.59353ZM8.16006 17.2335C6.30545 17.2335 4.8 18.739 4.8 20.5935C4.8 22.4481 6.30545 23.9536 8.16006 23.9536C10.0147 23.9536 11.5201 22.4481 11.5201 20.5935V17.2335H8.16006Z" fill="#999999"/>
</svg>
