<svg width="24" height="25" viewBox="0 0 24 25" fill="none" xmlns="http://www.w3.org/2000/svg">
<g clip-path="url(#clip0_120_160086)">
<path d="M12 3.07451C15.2063 3.07451 15.5859 3.08857 16.8469 3.14482C18.0188 3.19639 18.6516 3.39326 19.0734 3.55732C19.6313 3.77295 20.0344 4.03545 20.4516 4.45264C20.8734 4.87451 21.1313 5.27295 21.3469 5.83076C21.5109 6.25264 21.7078 6.89014 21.7594 8.05732C21.8156 9.32295 21.8297 9.70264 21.8297 12.9042C21.8297 16.1104 21.8156 16.4901 21.7594 17.7511C21.7078 18.923 21.5109 19.5558 21.3469 19.9776C21.1313 20.5354 20.8687 20.9386 20.4516 21.3558C20.0297 21.7776 19.6313 22.0354 19.0734 22.2511C18.6516 22.4151 18.0141 22.612 16.8469 22.6636C15.5813 22.7198 15.2016 22.7339 12 22.7339C8.79375 22.7339 8.41406 22.7198 7.15313 22.6636C5.98125 22.612 5.34844 22.4151 4.92656 22.2511C4.36875 22.0354 3.96563 21.7729 3.54844 21.3558C3.12656 20.9339 2.86875 20.5354 2.65313 19.9776C2.48906 19.5558 2.29219 18.9183 2.24063 17.7511C2.18438 16.4855 2.17031 16.1058 2.17031 12.9042C2.17031 9.69795 2.18438 9.31826 2.24063 8.05732C2.29219 6.88545 2.48906 6.25264 2.65313 5.83076C2.86875 5.27295 3.13125 4.86982 3.54844 4.45264C3.97031 4.03076 4.36875 3.77295 4.92656 3.55732C5.34844 3.39326 5.98594 3.19639 7.15313 3.14482C8.41406 3.08857 8.79375 3.07451 12 3.07451ZM12 0.913574C8.74219 0.913574 8.33438 0.927637 7.05469 0.983887C5.77969 1.04014 4.90313 1.24639 4.14375 1.5417C3.35156 1.85107 2.68125 2.25889 2.01563 2.9292C1.34531 3.59482 0.9375 4.26514 0.628125 5.05264C0.332812 5.8167 0.126563 6.68857 0.0703125 7.96357C0.0140625 9.24795 0 9.65576 0 12.9136C0 16.1714 0.0140625 16.5792 0.0703125 17.8589C0.126563 19.1339 0.332812 20.0105 0.628125 20.7698C0.9375 21.562 1.34531 22.2323 2.01563 22.8979C2.68125 23.5636 3.35156 23.9761 4.13906 24.2808C4.90313 24.5761 5.775 24.7823 7.05 24.8386C8.32969 24.8948 8.7375 24.9089 11.9953 24.9089C15.2531 24.9089 15.6609 24.8948 16.9406 24.8386C18.2156 24.7823 19.0922 24.5761 19.8516 24.2808C20.6391 23.9761 21.3094 23.5636 21.975 22.8979C22.6406 22.2323 23.0531 21.562 23.3578 20.7745C23.6531 20.0105 23.8594 19.1386 23.9156 17.8636C23.9719 16.5839 23.9859 16.1761 23.9859 12.9183C23.9859 9.66045 23.9719 9.25264 23.9156 7.97295C23.8594 6.69795 23.6531 5.82139 23.3578 5.06201C23.0625 4.26514 22.6547 3.59482 21.9844 2.9292C21.3188 2.26357 20.6484 1.85107 19.8609 1.54639C19.0969 1.25107 18.225 1.04482 16.95 0.988574C15.6656 0.927637 15.2578 0.913574 12 0.913574Z" fill="#999999"/>
<path d="M12 6.74951C8.59688 6.74951 5.83594 9.51045 5.83594 12.9136C5.83594 16.3167 8.59688 19.0776 12 19.0776C15.4031 19.0776 18.1641 16.3167 18.1641 12.9136C18.1641 9.51045 15.4031 6.74951 12 6.74951ZM12 16.912C9.79219 16.912 8.00156 15.1214 8.00156 12.9136C8.00156 10.7058 9.79219 8.91514 12 8.91514C14.2078 8.91514 15.9984 10.7058 15.9984 12.9136C15.9984 15.1214 14.2078 16.912 12 16.912Z" fill="#999999"/>
<path d="M19.8469 6.50571C19.8469 7.30259 19.2 7.94478 18.4078 7.94478C17.6109 7.94478 16.9688 7.2979 16.9688 6.50571C16.9688 5.70884 17.6156 5.06665 18.4078 5.06665C19.2 5.06665 19.8469 5.71353 19.8469 6.50571Z" fill="#999999"/>
</g>
<defs>
<clipPath id="clip0_120_160086">
<rect width="24" height="24" fill="white" transform="translate(0 0.913574)"/>
</clipPath>
</defs>
</svg>
