<svg width="24" height="25" viewBox="0 0 24 25" fill="none" xmlns="http://www.w3.org/2000/svg">
<g clip-path="url(#clip0_120_160084)">
<path d="M24 12.9136C24 6.28615 18.6274 0.913574 12 0.913574C5.37258 0.913574 0 6.28615 0 12.9136C0 18.903 4.3882 23.8676 10.125 24.7678V16.3823H7.07812V12.9136H10.125V10.2698C10.125 7.26232 11.9166 5.60107 14.6576 5.60107C15.9701 5.60107 17.3438 5.83545 17.3438 5.83545V8.78857H15.8306C14.34 8.78857 13.875 9.71365 13.875 10.6636V12.9136H17.2031L16.6711 16.3823H13.875V24.7678C19.6118 23.8676 24 18.903 24 12.9136Z" fill="#999999"/>
</g>
<defs>
<clipPath id="clip0_120_160084">
<rect width="24" height="24" fill="white" transform="translate(0 0.913574)"/>
</clipPath>
</defs>
</svg>
