<svg width="24" height="25" viewBox="0 0 24 25" fill="none" xmlns="http://www.w3.org/2000/svg">
<path d="M23.7609 8.11362C23.7609 8.11362 23.5266 6.45894 22.8047 5.73237C21.8906 4.77612 20.8688 4.77144 20.4 4.71519C17.0438 4.47144 12.0047 4.47144 12.0047 4.47144H11.9953C11.9953 4.47144 6.95625 4.47144 3.6 4.71519C3.13125 4.77144 2.10938 4.77612 1.19531 5.73237C0.473438 6.45894 0.24375 8.11362 0.24375 8.11362C0.24375 8.11362 0 10.0589 0 11.9996V13.8183C0 15.7589 0.239062 17.7042 0.239062 17.7042C0.239062 17.7042 0.473437 19.3589 1.19062 20.0855C2.10469 21.0417 3.30469 21.0089 3.83906 21.1121C5.76094 21.2949 12 21.3511 12 21.3511C12 21.3511 17.0438 21.3417 20.4 21.1027C20.8688 21.0464 21.8906 21.0417 22.8047 20.0855C23.5266 19.3589 23.7609 17.7042 23.7609 17.7042C23.7609 17.7042 24 15.7636 24 13.8183V11.9996C24 10.0589 23.7609 8.11362 23.7609 8.11362ZM9.52031 16.0261V9.28081L16.0031 12.6652L9.52031 16.0261Z" fill="#999999"/>
</svg>
