<svg width="24" height="25" viewBox="0 0 24 25" fill="none" xmlns="http://www.w3.org/2000/svg">
<g clip-path="url(#clip0_120_160087)">
<path d="M22.2234 0.913574H1.77187C0.792187 0.913574 0 1.68701 0 2.64326V23.1792C0 24.1354 0.792187 24.9136 1.77187 24.9136H22.2234C23.2031 24.9136 24 24.1355 24 23.1839V2.64326C24 1.68701 23.2031 0.913574 22.2234 0.913574ZM7.12031 21.3651H3.55781V9.90889H7.12031V21.3651ZM5.33906 8.34795C4.19531 8.34795 3.27188 7.42451 3.27188 6.28545C3.27188 5.14639 4.19531 4.22295 5.33906 4.22295C6.47813 4.22295 7.40156 5.14639 7.40156 6.28545C7.40156 7.41982 6.47813 8.34795 5.33906 8.34795ZM20.4516 21.3651H16.8937V15.7964C16.8937 14.4698 16.8703 12.7589 15.0422 12.7589C13.1906 12.7589 12.9094 14.2073 12.9094 15.7026V21.3651H9.35625V9.90889H12.7687V11.4745H12.8156C13.2891 10.5745 14.4516 9.62295 16.1813 9.62295C19.7859 9.62295 20.4516 11.9948 20.4516 15.0792V21.3651Z" fill="#999999"/>
</g>
<defs>
<clipPath id="clip0_120_160087">
<rect width="24" height="24" fill="white" transform="translate(0 0.913574)"/>
</clipPath>
</defs>
</svg>
